<?xml version="1.0" encoding="utf-8"?>
<!-- Generator: Adobe Illustrator 24.0.2, SVG Export Plug-In . SVG Version: 6.00 Build 0)  -->
<svg version="1.1" id="Layer_1" xmlns="http://www.w3.org/2000/svg" xmlns:xlink="http://www.w3.org/1999/xlink" x="0px" y="0px"
	 viewBox="0 0 1900 900" style="enable-background:new 0 0 1900 900;" xml:space="preserve">
<style type="text/css">
	.st0{fill:url(#SVGID_1_);}
</style>
<g>
	<g>
		<path d="M1170.6,307.5l12.9,5.8l-5.3-12.8c-1-2.5-2.1-4.8-3.2-7.2c-1.1-2.4-2.2-4.7-3.4-7c-1.2-2.3-2.3-4.6-3.5-6.9
			c-1.2-2.3-2.4-4.6-3.7-6.8c-1.3-2.2-2.6-4.6-3.9-6.7l-4.1-6.4c-1.5-2.3-3-4.3-4.5-6.5c-1.6-2.1-3.2-4.2-4.8-6.2
			c-1.7-2-3.3-4-5.1-5.9c-1.8-1.9-3.5-3.8-5.4-5.6c-1.8-1.8-3.6-3.7-5.5-5.4c-1.9-1.8-3.8-3.4-5.8-5.1c-2-1.7-3.9-3.3-5.9-4.9
			c-2-1.6-4.1-3.1-6.1-4.6c-2.1-1.5-4.2-3-6.3-4.4c-2.1-1.4-4.3-2.8-6.5-4c3.8,3.4,7.5,6.9,11.1,10.5c1.8,1.8,3.5,3.6,5.3,5.4
			c1.8,1.8,3.5,3.7,5.2,5.5c1.7,1.9,3.4,3.8,5,5.7c1.7,1.9,3.3,3.8,4.8,5.8c1.6,1.9,3.1,4,4.6,5.9c1.5,2,2.9,4.1,4.4,6.1
			c1.4,2,2.7,4.1,4.1,6.2c1.2,2.1,2.6,4.3,3.7,6.3l3.6,6.7c1.2,2.2,2.3,4.4,3.4,6.6c1.2,2.2,2.2,4.5,3.3,6.7
			c1.1,2.2,2.1,4.5,3.2,6.8c0.3,0.6,0.6,1.3,0.9,1.9c-0.6-0.2-1.2-0.4-1.8-0.5c-1.6-0.5-3.2-0.9-4.8-1.3c-1.6-0.4-3.2-0.9-4.8-1.2
			l-4.9-1c-1.6-0.4-3.3-0.6-4.9-0.8l-4.9-0.7l-0.6-0.1l-0.7-0.1l-1.2-0.1l-2.4-0.3l-5-0.4c-1.7-0.1-3.3-0.2-5-0.2c-1.7,0-3.3,0-5,0
			c-1.7,0-3.3,0.1-5,0.2c-1.7,0.1-3.4,0.2-5,0.4c-1.7,0.2-3.4,0.4-5.1,0.7c-0.8,0.1-1.7,0.3-2.6,0.5c-0.9,0.2-1.6,0.4-2.8,0.7
			l-18.8,5.8l19.1,3.6c1.4,0.3,3,0.6,4.5,1c1.5,0.4,3.1,0.8,4.6,1.3c3,1,6,2.1,8.9,3.3c1.5,0.6,2.9,1.3,4.3,2
			c1.4,0.7,2.8,1.4,4.2,2.2c2.7,1.6,5.3,3.3,7.7,5.4c0.6,0.5,1.2,1,1.7,1.6l0.4,0.4l0.1,0.1l0.1,0l0,0c0,0-0.1-0.1-0.1-0.1l0,0
			l0.2,0.2l0.9,0.9c0.5,0.6,1.2,1.2,1.7,1.8l1.5,1.8c0.5,0.6,0.9,1.3,1.4,1.9c0.5,0.6,0.9,1.3,1.3,2c0.9,1.3,1.7,2.7,2.4,4.2
			c0.7,1.4,1.5,2.9,2.1,4.4c0.7,1.5,1.3,3,1.8,4.6c1.1,3.1,2,6.3,2.6,9.6c0.1-1.7,0-3.3-0.1-5c-0.2-1.7-0.3-3.4-0.6-5
			c-0.3-1.7-0.6-3.3-1.1-5c-0.4-1.7-0.9-3.3-1.5-4.9c-0.6-1.6-1.2-3.2-2-4.8c-0.3-0.8-0.7-1.6-1.2-2.3c-0.4-0.8-0.8-1.5-1.3-2.3
			l-1.4-2.3c-0.5-0.8-1-1.4-1.5-2.1l-0.7-1l-0.2-0.3l-0.3-0.3l-0.4-0.5c-0.6-0.7-1.2-1.3-1.8-2c-2.4-2.6-5.1-4.9-8-6.9
			c-2.5-1.8-5.2-3.5-7.9-5c0.7,0,1.5,0.1,2.2,0.1c1.5,0.1,3.1,0.2,4.6,0.3l4.5,0.5l4.7,0.6l4.6,0.7c1.5,0.3,3.1,0.5,4.6,0.8l4.5,0.9
			c1.5,0.3,3,0.7,4.5,1.1c1.5,0.4,3,0.7,4.5,1.2c1.5,0.4,3,0.8,4.4,1.3c1.4,0.5,2.9,0.9,4.3,1.5C1168,306.4,1169.5,307,1170.6,307.5
			z"/>
		<path d="M1210.7,350.1c-19.3-16.2-35.6-24.8-35.6-24.8s66.1,69.7,61,78.4c-5.2,8.7-25.6-1.1-25.6-1.1s3.3,14.2,11.4,19
			c6.6,4,19,7.3,18.8,10.9c-0.3,3.5-5.7,5.4-5.7,5.4s1.6,7.9,7.1,7.6c5.4-0.3,18.2-23.4,18-39.7
			C1259.8,397.1,1233.4,369.3,1210.7,350.1z"/>
		<path d="M1235.4,457.1c0,0-0.2,0.4-0.6,1.2c-0.3,0.8-0.9,1.9-1.5,3.3c-0.6,1.4-1.4,3.2-2.3,5.2c-0.9,2-1.9,4.2-3,6.6
			c-0.5,1.2-1.1,2.5-1.7,3.8c-0.6,1.3-1.1,2.6-1.8,4c-1.2,2.7-2.6,5.5-4,8.4c-0.8,1.4-1.5,2.9-2.2,4.3c-0.8,1.4-1.6,2.8-2.4,4.3
			c-0.9,1.4-1.7,2.8-2.6,4.2c-0.9,1.3-1.8,2.6-2.8,3.9l-1.3,1.6l-0.7,0.8c-0.1,0.1-0.2,0.3-0.3,0.4l-0.5,0.5
			c-0.6,0.6-1.3,1.2-1.9,1.8l-0.5,0.5l-0.2,0.2l-0.9,0.6c-0.6,0.4-1.2,0.9-1.8,1.3c-0.6,0.4-1.3,0.8-1.9,1.2
			c-1.2,0.8-2.6,1.4-3.9,2.1c-1.3,0.7-2.7,1.1-4,1.7c-1.4,0.4-2.7,0.9-4.1,1.2c-1.4,0.3-2.7,0.7-4,0.9c-1.3,0.3-2.6,0.5-3.9,0.7
			c-2.5,0.4-4.9,0.6-7,0.8c-2.1,0.1-4,0.2-5.6,0.3c-1.6,0-2.8,0-3.7,0c-0.9,0-1.3,0-1.3,0s0.4,0.2,1.2,0.6c0.8,0.4,1.9,1,3.4,1.6
			c1.5,0.6,3.3,1.3,5.5,1.9c2.2,0.6,4.7,1.2,7.5,1.5c2.8,0.4,5.9,0.5,9.2,0.3c1.7-0.1,3.4-0.4,5.1-0.6c0.9-0.2,1.7-0.4,2.6-0.6
			c0.9-0.2,1.8-0.4,2.7-0.7c1.8-0.6,3.6-1.2,5.3-2.1c0.9-0.4,1.8-0.8,2.6-1.3c0.8-0.5,1.7-1.1,2.5-1.7l1.3-0.8l0.2-0.1l0.4-0.4
			l0.2-0.2l0.5-0.4c0.7-0.6,1.3-1.2,2-1.8c0.6-0.5,1.4-1.5,2.1-2.2l2.1-2.5c1.2-1.6,2.2-3.2,3.3-4.8c1-1.6,1.9-3.3,2.7-5
			c0.8-1.7,1.6-3.3,2.3-5c0.7-1.7,1.3-3.3,1.9-5c1.1-3.3,2.1-6.5,2.8-9.6c0.7-3.1,1.3-6,1.7-8.7c0.4-2.7,0.7-5.2,0.9-7.4
			c0.2-2.2,0.2-4.2,0.3-5.8c0.1-1.6,0-2.9,0-3.7C1235.5,457.5,1235.4,457.1,1235.4,457.1z"/>
		<path d="M1135.9,500.3c-1.2-2.5-2.6-5-3.9-7.5l-2.1-3.8c-0.7-1.3-1.5-2.5-2.2-3.6l-1.1-1.8c-0.6-0.8-1-1.3-1.6-2
			c-1.1-1.2-2.2-2.3-3.5-3.3c-2.5-2-5.3-3.6-8.1-4.8c-2.9-1.2-5.8-2.1-8.8-2.7c-0.6-0.1-1.2-0.2-1.7-0.3c0.5-1.2,0.9-2.3,1.2-3.5
			c1.1-3.4,1.6-6.9,2-10.4c0.4-3.5,0.4-6.9,0.2-10.4c-0.2-3.4-0.7-6.8-1.2-10.2c-0.6-3.3-1.4-6.6-2.4-9.9c-0.9-3.2-2.1-6.4-3.3-9.5
			l-1.9-4.6l-2.1-4.5l-2.3-4.4c-0.8-1.5-1.6-2.9-2.5-4.4c-0.8-1.5-1.7-2.8-2.5-4.1c-0.8-1.3-1.9-2.9-2.9-4.4
			c-2.1-2.9-4.6-5.4-7.3-7.6c-5.3-4.5-11.1-7.8-17.1-10.6c-6-2.8-12.2-4.9-18.5-6.6c-3.1-0.8-6.3-1.6-9.5-2.2
			c-3.2-0.6-6.4-1.1-9.6-1.4c6.1,2.1,12,4.5,17.8,7.1c5.8,2.6,11.4,5.5,16.7,8.8c5.3,3.3,10.3,6.9,14.4,11.1
			c2.1,2.1,3.9,4.3,5.4,6.7c0.7,1.2,1.3,2.3,2.1,3.8c0.7,1.4,1.5,2.9,2.1,4.3c1.3,2.8,2.6,5.6,3.8,8.4c1.2,2.9,2.3,5.7,3.4,8.6
			c1,2.9,2,5.8,2.8,8.7c0.9,2.9,1.5,5.9,2.1,8.8c0.6,2.9,1,5.9,1.2,8.8c0.3,2.9,0.3,5.9,0.2,8.8c-0.1,2.9-0.5,5.8-1.1,8.5
			c-0.3,1.4-0.6,2.8-1.1,4c-2.7,5.9-7.8,11.8-7.8,11.8l10.4-1c1-0.1,2.4-0.1,3.6,0c1.3,0.1,2.5,0.2,3.8,0.3c2.5,0.3,5,0.9,7.3,1.6
			c2.3,0.8,4.6,1.8,6.5,3.2c1,0.7,1.9,1.4,2.8,2.2c0.4,0.4,0.9,0.9,1.2,1.2l1.4,1.6c0.9,1.1,1.9,2.1,2.7,3.2l2.5,3.2l5.1,6.6
			l5.1,6.7c1.7,2.2,3.4,4.5,5.1,6.7c-1-2.6-2.1-5.2-3.3-7.8C1138.3,505.4,1137.1,502.8,1135.9,500.3z"/>
	</g>
	<path d="M1057.2,499c-0.3-3.3-0.4-6.6-0.8-10l-0.5-5l-0.6-5c-0.4-3.3-1-6.6-1.5-9.9c-0.6-3.3-1.3-6.6-2-9.8
		c-0.8-3.3-1.5-6.5-2.5-9.7l-1.4-4.8l-1.6-4.8c-1-3.2-2.2-6.3-3.4-9.5c-1.2-3.1-2.6-6.3-4-9.4l-8.6-17.4c-0.7-1.4-1.5-2.8-2-4.3
		l-1.8-4.4c-1.2-3-2.5-5.9-3.6-8.9l-3.1-9c-0.3-0.8-0.5-1.5-0.8-2.3l-0.6-2.3l-1.2-4.6l-1.2-4.6l-0.9-4.7c-0.6-3.1-1.3-6.3-1.6-9.4
		c-0.4-3.2-1-6.3-1.1-9.5c-0.2-3.2-0.5-6.4-0.4-9.6l0-4.8l0.3-4.8l0.1-2.4c0.1-0.8,0.2-1.6,0.3-2.4c0.2-1.6,0.4-3.2,0.6-4.8
		c1-6.4,2.4-12.7,5-18.7c-1.7,2.8-3,5.8-4.3,8.9c-0.6,1.5-1.2,3.1-1.7,4.6l-1.4,4.7c-0.4,1.6-0.8,3.2-1.1,4.8
		c-0.2,0.8-0.4,1.6-0.5,2.4l-0.4,2.4l-0.8,4.9l-0.5,4.9c-0.4,3.3-0.4,6.6-0.5,9.9c-0.2,3.3,0.1,6.6,0.2,10c0.1,1.7,0.1,3.3,0.3,5
		l0.6,5l0.6,5l0.9,4.9l1,4.9l0.5,2.5c0.2,0.8,0.4,1.6,0.6,2.4l2.6,9.7c0.9,3.2,2.2,6.3,3.2,9.4l1.7,4.7c0.5,1.6,1.3,3.1,1.9,4.6
		l7.8,18.1c1.1,3,2.3,5.7,3.3,8.7c1,3,2.1,6,2.9,9l1.3,4.5l1.1,4.6c0.8,3.1,1.4,6.2,2.1,9.3c0.6,3.1,1.1,6.2,1.6,9.4
		c0.4,3.2,1,6.3,1.3,9.4l0.5,4.7l0.4,4.8c0.3,3.2,0.4,6.3,0.6,9.5c0.3,6.4,0.5,12.7,0.3,19.1c-0.2,12.8-1,25.5-2.6,38.2
		c-0.3,2.9-0.7,5.8-1.1,8.6c-2.9-17.2-12.4-34.3-12.4-34.3s1.3,24.1-1,39.3c-2.9,19.5-17.2,45.6-18.5,47.8c-0.7,1.1-1.3,2.2-2,3.2
		l-2.2,3.2c-1.5,2.1-2.8,4.3-4.3,6.4l-4.5,6.3c-1.5,2.1-3.1,4.1-4.7,6.2c-1.5,2.1-3.2,4.1-4.7,6.1l-4.9,6.1c1.9-1.8,3.8-3.5,5.6-5.4
		c1.8-1.8,3.7-3.6,5.5-5.5c1.8-1.9,3.6-3.8,5.3-5.7l5.2-5.8c1.8-1.9,3.4-4,5-6l2.5-3c0.8-1,1.6-2.1,2.4-3.2c1.6-2.1,3.2-4.3,4.7-6.4
		l4.2-6.6l1-1.6l0.1-0.1l0.1-0.2l0.1-0.2l0.2-0.5l0.5-0.9c0.6-1.2,1.3-2.4,1.8-3.7l1.6-3.7c0.5-1.3,0.9-2.5,1.4-3.8
		c0.5-1.3,0.9-2.5,1.2-3.8c0.4-1.3,0.8-2.6,1.1-3.9l1-3.9l0.1-0.5l3,16.1l4.9,26l7-25.6c1.8-6.7,3.2-13,4.4-19.6
		c1.2-6.5,2.3-13.1,3.1-19.6c0.8-6.6,1.5-13.2,2-19.8c0.3-3.3,0.4-6.6,0.6-9.9c0.1-3.3,0.2-6.6,0.2-10
		C1057.8,512.3,1057.6,505.7,1057.2,499z"/>
	<path d="M955.9,548.3c0.8-2.6,1.6-5.1,2.3-7.7l1.1-3.9l1-3.9c0.7-2.6,1.2-5.2,1.7-7.8c0.5-2.6,0.9-5.3,1.3-7.9c0.3-2.7,0.8-5.3,1-8
		l0.4-4l0.2-4c0.2-2.7,0.2-5.4,0.2-8.1c0-2.7-0.1-5.5-0.3-8.2l-1.4-15.5c-0.1-1.3-0.3-2.5-0.3-3.8l-0.1-3.8c0-2.5-0.2-5.1-0.1-7.7
		l0.3-7.7c0-0.6,0-1.3,0.1-1.9l0.2-1.9l0.4-3.8l0.4-3.8l0.7-3.8c0.4-2.5,0.8-5,1.5-7.5c0.6-2.5,1.1-5,1.9-7.4
		c0.8-2.4,1.5-4.9,2.5-7.3l1.4-3.6l1.6-3.5l0.8-1.8c0.3-0.6,0.6-1.1,0.9-1.7c0.6-1.1,1.2-2.3,1.8-3.4c2.6-4.5,5.5-8.8,9.1-12.6
		c-2.1,1.6-3.9,3.5-5.7,5.4c-0.9,1-1.8,2-2.6,3l-2.4,3.1c-0.8,1.1-1.5,2.2-2.2,3.3c-0.4,0.6-0.8,1.1-1.1,1.7l-1,1.7l-2,3.4l-1.8,3.6
		c-1.2,2.4-2.2,4.8-3.2,7.3c-1.1,2.4-1.8,5-2.7,7.5c-0.4,1.3-0.9,2.5-1.2,3.8l-1,3.9l-1,3.9l-0.7,3.9l-0.7,3.9l-0.3,2
		c-0.1,0.7-0.1,1.3-0.2,2l-0.8,8c-0.2,2.7-0.2,5.3-0.3,8l-0.1,4c-0.1,1.3,0.1,2.7,0.1,4l0.6,15.7c0,2.5,0.1,5,0,7.5
		c-0.1,2.5-0.2,5.1-0.4,7.6l-0.3,3.8l-0.5,3.8c-0.3,2.5-0.7,5-1.1,7.5c-0.4,2.5-1,5-1.5,7.5c-0.6,2.5-1.1,5-1.8,7.4l-1,3.7l-1.1,3.7
		c-0.7,2.5-1.5,4.9-2.3,7.3c-1.6,4.8-3.3,9.7-5.3,14.4c-3.8,9.5-8.1,18.8-12.9,27.9c-1.1,2.1-2.2,4.1-3.3,6.1
		c2.8-13.7,0.6-29.2,0.6-29.2s-5.9,18.4-12,29.1c-7.8,13.7-26,29.2-27.6,30.4c-0.8,0.6-1.6,1.3-2.4,1.8l-2.5,1.8
		c-1.7,1.2-3.3,2.4-5.1,3.5l-5.2,3.4c-1.7,1.1-3.5,2.2-5.3,3.3c-1.7,1.1-3.5,2.1-5.3,3.2l-5.4,3.1c1.9-0.8,3.9-1.6,5.8-2.4
		c1.9-0.9,3.8-1.6,5.7-2.5c1.9-0.9,3.8-1.8,5.6-2.7l5.6-2.9c1.9-0.9,3.7-2,5.5-3l2.7-1.6c0.9-0.5,1.8-1.1,2.7-1.7
		c1.8-1.1,3.6-2.3,5.4-3.5l5-3.7l1.2-0.9l0.1-0.1l0.2-0.1l0.2-0.1l0.3-0.3l0.6-0.5c0.8-0.7,1.6-1.4,2.4-2.2l2.3-2.3
		c0.7-0.8,1.4-1.6,2.1-2.4c0.7-0.8,1.4-1.7,2-2.5c0.6-0.9,1.3-1.7,1.9-2.6l1.9-2.6l0.2-0.3l-2.4,12.9l-3.8,20.8l12.6-17.1
		c3.3-4.5,6.1-8.8,8.9-13.4c2.8-4.5,5.4-9.1,8-13.8c2.5-4.7,4.9-9.4,7.2-14.2c1.1-2.4,2.2-4.8,3.3-7.3c1-2.5,2.1-4.9,3-7.4
		C952.5,558.4,954.2,553.4,955.9,548.3z"/>
	<g>
		<path d="M1120.9,118.5c-0.1-2.7-0.3-5.5-0.6-8.2c-0.2-2.7-0.7-5.4-1.1-8.2c-0.5-2.7-1-5.4-1.6-8.1c-0.3-1.3-0.7-2.7-1-4
			c-0.3-1.3-0.7-2.7-1.1-4c-0.8-2.6-1.7-5.2-2.7-7.8c-1-2.6-2-5.1-3.4-7.8l-4.5-8.9l-2.2,10c-0.4,1.8-0.9,3.8-1.4,5.7
			c-0.5,1.9-1.1,3.9-1.6,5.8c-1.1,3.8-2.4,7.6-3.7,11.4c-1.3,3.8-2.8,7.5-4.3,11.2c-1.6,3.7-3.1,7.3-4.9,10.9l-0.6,1.4l-0.6,1.2
			l-1.4,2.7l-1.4,2.7l-1.5,2.6c-1,1.7-1.9,3.4-3,5.1l-3.2,5.1l-3.3,5.1c-0.7,1.2-1.5,2.3-2.3,3.5c-0.2-1.2-0.3-2.3-0.5-3.5
			c-0.9-5.8-1.9-11.5-3.2-17.3c-0.6-2.9-1.3-5.8-2-8.6l-1.1-4.3l-1.2-4.3c-0.9-2.9-1.8-5.7-2.9-8.6l-0.4-1.1l-0.2-0.6l-0.2-0.5
			l-0.9-2c-0.5-1.3-1.3-2.8-1.9-4.2c-1.3-2.8-2.8-5.4-4.3-8.1c-1.6-2.6-3.2-5.2-5-7.7c-3.5-5-7.4-9.7-11.6-14
			c-4.2-4.4-8.8-8.4-13.6-12.1c-2.4-1.8-4.9-3.6-7.5-5.2c-1.3-0.8-2.6-1.6-3.9-2.4l-2-1.1c-0.7-0.4-1.3-0.7-2.3-1.1l-17.1-8.1
			l8.9,16.9c0.9,1.6,1.8,3.5,2.7,5.3c0.9,1.8,1.7,3.7,2.6,5.5c1.7,3.7,3.2,7.5,4.7,11.3c0.8,1.9,1.5,3.8,2.2,5.7
			c0.7,1.9,1.3,3.8,2,5.8l1.8,5.8c0.5,1.9,1.2,3.9,1.7,5.8c0.5,2,1.1,3.9,1.5,5.9l0.7,2.9l0.2,0.7l0.1,0.7l0.3,1.5
			c0.4,2,0.6,3.7,0.9,5.8c0.3,2,0.5,4,0.6,6c0,0.1,0,0.2,0,0.3c-0.7-0.9-1.4-1.7-2.2-2.6c-6.2-7.2-13.4-13.5-21.2-18.9
			c-7.8-5.4-16.2-9.8-24.9-13.2c-8.7-3.5-17.7-6-26.9-7.7c-9.1-1.7-18.4-2.6-27.6-2.9c-9.2-0.3-18.4,0-27.5,0.9
			c-2.3,0.2-4.5,0.4-6.8,0.7l-1.7,0.2l-1.7,0.2l-3.3,0.4c-2.2,0.3-4.6,0.7-6.8,1.1c-2.2,0.4-4.5,0.8-6.7,1.3
			c-8.9,1.8-17.8,4-26.5,6.6c-17.4,5.3-34.3,11.8-50.6,19.6c-16.3,7.7-32.1,16.4-47.4,25.9c-7.6,4.8-15.1,9.7-22.5,14.8
			c-7.4,5.1-14.7,10.3-21.8,15.8c-14.2,10.9-28,22.4-40.9,34.8c6.9-5.7,14-11.1,21.2-16.4c7.2-5.3,14.5-10.5,21.9-15.4
			c14.8-10,29.9-19.4,45.4-28c7.8-4.3,15.6-8.5,23.5-12.5c8-3.9,16-7.7,24.1-11.1c16.3-6.9,32.9-13,49.9-17.6
			c8.5-2.3,17.1-4.2,25.7-5.7c2.2-0.4,4.3-0.7,6.5-1.1c2.2-0.3,4.3-0.6,6.4-0.9l3.3-0.4l1.6-0.2l1.6-0.2c2.2-0.2,4.4-0.4,6.5-0.6
			c8.7-0.6,17.4-0.8,26.1-0.4c8.7,0.4,17.3,1.4,25.7,3.1c16.8,3.4,33,9.6,46.8,19.3c6.9,4.8,13.2,10.5,18.7,16.8
			c2.7,3.2,5.2,6.5,7.5,10c1.1,1.7,2.2,3.5,3.1,5.3c0.5,0.9,0.9,1.8,1.4,2.7l0.6,1.3c0.2,0.4,0.4,1,0.5,1.2l11.9,32l0.8-34.1
			c0.1-2.2,0-4.3,0-6.5c0-2.1-0.1-4.3-0.2-6.4c-0.2-4.3-0.4-8.6-0.8-12.9c-0.2-2.2-0.4-4.3-0.7-6.5c-0.3-2.1-0.7-4.5-1-6.6l-0.3-1.5
			l-0.2-0.9l-0.2-0.8l-0.7-3.2c-0.5-2.1-1.1-4.2-1.6-6.3c-0.5-2.1-1.2-4.1-1.8-6.2l-2-6.1c-0.7-2-1.4-4.1-2.1-6.1
			c-0.7-2-1.5-4-2.3-6c-0.4-1-0.8-2-1.2-3c2.8,2.4,5.6,4.8,8.2,7.4c3.8,3.9,7.4,8,10.6,12.4c1.6,2.2,3.1,4.5,4.5,6.8
			c1.4,2.3,2.7,4.7,3.9,7.1c0.6,1.2,1.2,2.3,1.7,3.7l0.9,2l0.2,0.5l0.1,0.4l0.4,0.9c1,2.5,1.9,5.1,2.8,7.7l1.2,4l1.1,4
			c0.7,2.7,1.4,5.4,2,8.2c1.3,5.5,2.4,11.1,3.4,16.7l1.4,8.4c0.4,2.8,0.9,5.6,1.2,8.4l1.9,14.3l7.7-11.9l3.4-5.2l3.3-5.2
			c1.1-1.8,2.2-3.5,3.2-5.3l3.2-5.3l3.1-5.4c1-1.8,2-3.7,3-5.5l1.5-2.8l1.3-2.8l1.3-2.8l0.7-1.5l0.6-1.4c1.7-3.8,3.3-7.7,4.7-11.6
			c1.4-3.9,2.8-7.8,4-11.8c1.2-4,2.4-7.9,3.4-12c0.1-0.5,0.3-1.1,0.4-1.6c0.6,1.5,1.2,3,1.7,4.6c0.9,2.5,1.7,4.9,2.4,7.5
			c0.7,2.5,1.3,5.1,1.9,7.6c0.5,2.6,1.1,5.1,1.4,7.7c0.4,2.6,0.7,5.2,0.9,7.8c0.2,1.3,0.2,2.6,0.2,3.9c0,1.3,0.2,2.6,0.2,3.9l0,4
			l0,1l0,0.4l0,0.5l-0.1,2c-0.2,2.6-0.4,5.2-0.8,7.8c-0.4,2.6-0.9,5.2-1.5,7.8c-0.6,2.6-1.3,5.1-2.1,7.6c-0.8,2.5-1.7,5-2.7,7.5
			c-2,4.9-4.2,9.8-6.8,14.5c-2.6,4.7-5.4,9.2-8.6,13.5c3.6-4,6.7-8.4,9.6-12.9c2.9-4.5,5.6-9.2,7.9-14.2c4.6-9.8,7.9-20.3,9.1-31.3
			l0.2-2.1l0.1-0.5l0-0.6l0.1-1l0.2-4C1120.9,124.1,1121,121.3,1120.9,118.5z"/>
		<path d="M895.5,223.8c0.6-4.2,1.8-7.9,4.1-10.8c2.2-2.9,5.4-5,9.2-6.5c3.8-1.4,7.9-2.2,11.9-2.5c4-0.4,8-0.4,11.7-0.2
			c3.7,0.1,7.1,0.5,10.1,0.8c3,0.3,5.7,0.7,7.9,1c4.4,0.6,6.9,1.1,6.9,1.1c0,0-2.2-1.4-6.3-3.3c-4.1-1.9-10-4.4-17.7-6.2
			c-3.8-0.9-8-1.7-12.7-2c-4.6-0.3-9.7-0.2-15,1.2c-5.3,1.3-10.9,4.1-15.2,8.8c-2.1,2.3-3.8,5-5.1,7.9c-1.3,2.8-2,5.8-2.5,8.7
			c-0.3,1.5-0.4,2.9-0.5,4.3c-0.1,1.4-0.1,2.9-0.2,4.1c-0.1,2.4-0.1,5.2,0,7.8c0.2,5.2,0.7,10.2,1.5,15.1c0.8,4.9,1.9,9.5,3.2,13.9
			c1.3,4.3,2.8,8.3,4.4,11.9c1.6,3.6,3.3,6.8,5,9.5c1.7,2.7,3.3,5,4.8,6.7c1.4,1.8,2.7,3.1,3.6,3.9c0.9,0.9,1.4,1.2,1.4,1.2
			s-0.2-0.6-0.7-1.7c-0.4-1.1-1-2.8-1.7-4.9c-1.3-4.2-3-10.2-4.4-17.4c-1.4-7.2-2.7-15.6-3.4-24.7c-0.4-4.5-0.6-9.2-0.7-14
			c0-2.4-0.1-4.6-0.1-7.2c0-1.3,0-2.3,0.1-3.4C895.3,225.9,895.4,224.8,895.5,223.8z"/>
		<path d="M954.5,227.8c-2.5-1.3-6.3-3-11.2-4.1c-2.5-0.5-5.3-0.9-8.4-0.7c-3.1,0.2-6.7,0.9-10,3.3c-3.4,2.3-5.7,6.3-6.6,10.1
			c-0.2,0.9-0.4,1.9-0.5,2.9l-0.1,1.4l-0.1,0.7l0,0l0,0.4l0,0.1l0,0.1l0,0.3l0.1,2.4l0,1.2l0,0.6l0.1,0.7l0.5,2.8
			c0.2,0.9,0.3,1.9,0.6,2.7c0.5,1.7,1,3.4,1.7,4.9c1.3,3.2,2.9,6.1,4.7,8.7c0.9,1.3,1.8,2.6,2.7,3.8c1,1.1,1.9,2.3,2.9,3.3
			c1,1,1.9,2,2.9,3c1,0.9,1.9,1.8,2.9,2.6c1.9,1.6,3.7,2.9,5.3,4.1c1.6,1.1,3.1,2,4.4,2.7c1.2,0.7,2.2,1.2,2.9,1.5
			c0.7,0.3,1.1,0.5,1.1,0.5s-1-1.3-2.7-3.5c-0.9-1.1-1.9-2.5-3-4c-1.1-1.5-2.4-3.3-3.7-5.2c-0.6-1-1.3-1.9-2-3
			c-0.7-1-1.4-2.1-2.1-3.2c-0.7-1.1-1.3-2.3-2-3.4c-0.7-1.2-1.3-2.4-1.9-3.6c-0.7-1.2-1.2-2.5-1.8-3.8c-0.3-0.6-0.5-1.3-0.8-1.9
			c-0.2-0.7-0.5-1.3-0.7-2c-0.5-1.3-0.7-2.7-1.2-4c-0.2-0.7-0.3-1.3-0.4-1.9l-0.3-1.9l-0.1-0.5l0-0.6l-0.1-1.2l-0.1-2.4l0-0.3l0,0
			l0-0.4l0-0.9c0-0.6,0.1-1.2,0.2-1.8c0.4-2.2,1.2-4,2.6-5.3c1.4-1.3,3.5-2.3,5.7-2.8c2.2-0.6,4.6-0.8,6.9-0.9
			c4.5-0.2,8.4,0.1,11.2,0.3c1.4,0.1,2.5,0.2,3.2,0.3c0.8,0.1,1.2,0.1,1.2,0.1s-0.3-0.2-1-0.6C956.8,229.1,955.8,228.5,954.5,227.8z
			"/>
	</g>
	<path d="M741.9,160.9c0,0,3.9-2.7,11.1-7c3.6-2.1,7.9-4.7,13-7.5c5.1-2.8,10.8-5.9,17.2-9.1c6.4-3.2,13.4-6.6,20.9-9.8
		c7.5-3.3,15.5-6.6,23.9-9.6c8.4-3,17.2-6,26.4-8.4c9.1-2.4,18.6-4.5,28.1-6c9.6-1.3,19.4-2.1,29.1-1.5c1.2,0.1,2.4,0.2,3.6,0.2
		c1.2,0.1,2.4,0.3,3.6,0.4c1.2,0.2,2.4,0.3,3.6,0.5c1.2,0.2,2.3,0.5,3.5,0.7c1.1,0.2,2.2,0.4,3.4,0.7c1.2,0.3,2.3,0.6,3.5,0.9
		c2.3,0.5,4.5,1.3,6.7,1.9c8.8,2.7,16.8,6.7,24,11.2c3.6,2.2,6.9,4.6,10,7.1c3,2.5,5.9,5.1,8.4,7.7c5.1,5.2,9.1,10.5,12.3,15.5
		c3.2,4.9,5.5,9.5,7.3,13.3c1.7,3.8,2.8,6.9,3.5,9.1c0.7,2.1,0.9,3.3,0.9,3.3s-0.4-1.1-1.4-3.1c-0.9-2-2.5-4.9-4.6-8.4
		c-2.1-3.5-4.9-7.7-8.5-12.1c-3.6-4.4-7.9-9.1-13.1-13.7c-5.2-4.5-11.3-9-18.2-12.8c-6.9-3.8-14.6-7-22.8-9.4
		c-2.1-0.5-4.2-1.2-6.2-1.6c-1-0.2-2.1-0.5-3.1-0.7c-1.1-0.2-2.2-0.4-3.3-0.6c-1.1-0.2-2.2-0.4-3.3-0.5c-1.1-0.1-2.2-0.2-3.3-0.3
		c-1.1-0.1-2.2-0.3-3.3-0.3l-3.3-0.2c-8.9-0.3-18.2,0.3-27.3,1.7c-9.2,1.3-18.3,3.2-27.2,5.5c-8.9,2.3-17.7,4.7-26,7.5
		c-8.4,2.8-16.4,5.5-24,8.3c-7.6,2.8-14.7,5.6-21.3,8.3c-6.6,2.7-12.6,5.2-17.9,7.4c-5.3,2.3-9.9,4.3-13.7,6c-3.8,1.7-6.8,3-8.8,3.9
		C743,160.4,741.9,160.9,741.9,160.9z"/>
</g>
<radialGradient id="SVGID_1_" cx="940.334" cy="760.0353" r="334.8286" gradientTransform="matrix(1 0 0 9.091100e-02 0 690.9397)" gradientUnits="userSpaceOnUse">
	<stop  offset="0" style="stop-color:#C3C3C3"/>
	<stop  offset="1" style="stop-color:#F3F3F3;stop-opacity:0"/>
</radialGradient>
<path class="st0" d="M1313.2,760c0,21-166.9,38-372.9,38c-205.9,0-372.9-17-372.9-38c0-21,166.9-38,372.9-38
	C1146.3,722,1313.2,739,1313.2,760z"/>
</svg>
