<?xml version="1.0" encoding="utf-8"?>
<!-- Generator: Adobe Illustrator 24.0.2, SVG Export Plug-In . SVG Version: 6.00 Build 0)  -->
<svg version="1.1" id="Layer_1" xmlns="http://www.w3.org/2000/svg" xmlns:xlink="http://www.w3.org/1999/xlink" x="0px" y="0px"
	 viewBox="0 0 1900 700" style="enable-background:new 0 0 1900 700;" xml:space="preserve">
<style type="text/css">
	.st0{fill:#0D081E;}
	.st1{fill:#FFFFFF;}
	.st2{fill:#060015;}
</style>
<path class="st0" d="M0,700h1999.5c0,0-242.5-671.7-892.1-416.5C451.6,541.2,319,0,319,0H0V700z"/>
<path class="st1" d="M152.1,248.9c0.2-1.6,0.5-3.5-1.6-5c-0.2-0.2-0.8-0.4-1.3-0.6c-2.3-0.7-4,0.7-5.2,2.5c0.3-2.1,0.5-4.7,0-7.3
	c0,0,0,0,0.1,0l0,0c0,0,0.1,0,0.1,0.1h0.1c0,0,0.1,0.1,0.2,0.1c0,0,0.1,0,0.1,0.1c0.1,0,0.1,0.1,0.2,0.1c0.1,0,0.1,0,0.2,0.1
	c0.1,0,0.1,0.1,0.2,0.1c0.1,0,0.1,0.1,0.2,0.1s0.2,0.1,0.2,0.1c0.1,0,0.2,0,0.2,0.1c0.1,0,0.2,0,0.2,0.1c0.1,0,0.2,0,0.2,0.1
	c0.1,0,0.2,0,0.2,0.1c0.1,0,0.2,0,0.2,0c0.1,0,0.2,0,0.2,0c0.1,0,0.2,0,0.2,0c0.1,0,0.2,0,0.2,0s0.2,0,0.2,0s0.2,0,0.2,0
	s0.2-0.1,0.2-0.1s0.2-0.1,0.2-0.1c0.1,0,0.2-0.1,0.2-0.1c0.1,0,0.2-0.1,0.2-0.2c0.1-0.1,0.2-0.1,0.2-0.2s0.2-0.1,0.2-0.2
	s0.2-0.2,0.2-0.2c0.1-0.1,0.2-0.2,0.2-0.2c0.1-0.1,0.2-0.2,0.2-0.3c0.1-0.1,0.1-0.1,0.2-0.2l0,0c0.1-0.1,0.2-0.2,0.2-0.3
	c0,0-2.2,1.6-4.4-1.2c0,0,0.8,0.2,1.7-0.2l0,0c0,0,0.1,0,0.1-0.1c0,0,0.1,0,0.1-0.1c0.1,0,0.2-0.1,0.2-0.1c0.1,0,0.1-0.1,0.2-0.1
	c0.1,0,0.1-0.1,0.2-0.1c0.1-0.1,0.1-0.1,0.2-0.2c0.1,0,0.1-0.1,0.2-0.2c0.1-0.1,0.2-0.1,0.2-0.2c0,0,0.1-0.1,0.1-0.2
	c0.2-0.2,0.3-0.4,0.4-0.6c0,0,0-0.1,0.1-0.1c0-0.1,0.1-0.2,0.1-0.2c0.1-0.1,0.1-0.2,0.2-0.3c0-0.1,0.1-0.1,0.1-0.2
	c0.1-0.1,0.1-0.2,0.2-0.4l0,0c0-0.1,0-0.1,0.1-0.2c0,0-0.7,1.1-2.7,0.7c-2-0.3-4.4-1.9-9.4-5.9c-4.8-3.9-16.6-8.7-26.3-3.4
	c-0.2-0.6-0.7-1-1.3-1.2c-0.6-0.2-1.2,0-1.7,0.3c-0.8,0.7-1.4,1.7-1.7,2.5c0.1-5.1,0.3-9.8,0.9-14.2c0.1-0.4,0.2-0.9,0.2-1.3
	c0.6-0.1,3.2-0.6,4.1-2.2c0.3-0.6,0.4-1.2,0.2-1.8c-0.2-0.5-0.6-0.9-1.1-1c-0.5-0.2-1.1,0.1-1.5,0.5c-0.5,0.5-0.9,1.3-1.2,2.1
	c0.9-5.3,2.4-10.3,4.3-14.8c3.9-9,6.9-11.8,9.4-13.4c0.2-0.1,0.2-0.3,0.2-0.5c0-0.2-0.2-0.3-0.3-0.4c-0.1,0-0.1,0-0.2,0
	c-3.7,0.7-6.6,4.4-8,6.6c-1.6,2.5-3,5.3-4.4,8.6c0-0.3-0.1-0.7-0.1-0.9c-0.2-0.9-0.7-1.6-1.6-1.8c-0.6-0.2-1.2,0-1.6,0.4
	c-0.6,0.4-0.9,1.1-1,2c-0.2,2.1,1.7,4.4,2.5,5.3c-1.2,4.1-2.1,8.3-2.5,12.5c-0.1-0.3-0.2-0.7-0.2-1c-0.3-0.7-0.8-1.2-1.5-1.4
	c-0.7-0.2-1.3,0-1.8,0.5c-0.6,0.5-0.8,1.3-0.7,2.2c0.2,2.5,3.3,4.7,3.8,5c-0.3,4.1-0.4,8.2-0.4,12.2c-0.2-0.6-0.4-1.2-0.7-1.6
	c-0.2-0.4-0.7-0.7-1.1-0.8c-0.6-0.2-1.2,0.1-1.6,0.6c-0.5,0.6-0.6,1.3-0.3,2.1c0.5,1.7,2.5,2.8,3.5,3.2c0,0,0,0.1-0.1,0.1
	c-0.1,0.2-0.2,0.4-0.3,0.7c-0.2,0.2-0.2,0.5-0.4,0.7c-0.1,0.2-0.2,0.4-0.3,0.7c-0.1,0.2-0.2,0.6-0.3,0.8c-0.1,0.2-0.2,0.4-0.2,0.7
	c-0.1,0.2-0.2,0.6-0.3,0.8c-0.1,0.2-0.2,0.4-0.2,0.7c-0.1,0.3-0.2,0.6-0.2,0.9c-0.1,0.2-0.1,0.4-0.2,0.7c-0.1,0.3-0.2,0.7-0.2,1
	c0,0.2-0.1,0.4-0.1,0.7c-0.1,0.3-0.1,0.7-0.1,1c0,0.2-0.1,0.4-0.1,0.6c0,0.4,0,0.7,0,1.2c0,0.2,0,0.3,0,0.5c0,0.6,0.1,1.1,0.2,1.6
	c0.4,3.1,1.6,6.2,3.3,9c-0.2-0.2-0.4-0.2-0.7-0.3c-0.6-0.2-1.2,0.1-1.6,0.6c-0.5,0.6-0.6,1.4-0.3,2.2c0.7,2.2,4,3.3,4.2,3.3h0.1
	c0.2,2.4,0.5,4.8,0.7,7.2c-1,1.2-1.4,1.8-2.5,2.2c-1.5,0.6-3.8-1.2-5.3-2.7c-1.5-1.5-1.7-3.1-1.7-3.1s-0.2,0.2-0.4,0.6
	c-0.1-0.2-0.2-0.4-0.2-0.7c0-0.2-0.1-0.2-0.1-0.4c0-0.2-0.1-0.2-0.1-0.4c-0.2-1.1-0.5-1.9-1.6-3.4c-0.1-0.2-1-1.6-1.5-2.4
	c-0.1-0.2-0.2-0.4-0.2-0.6c-0.2-0.6-0.6-1.2-1.9-2.2c-1.1-0.8-1.9-1.3-2.6-1.5c-0.7-0.2-1.3-0.1-1.7,0.4c-0.2,0.2-0.2,0.4-0.2,0.6
	c0.1,0.5,0.5,0.9,1.3,1.3c0.7,0.4,1.5,1,2.1,1.6c0.1,0.1,0.2,0.2,0.3,0.5c-0.3-0.3-0.7-0.7-1.1-0.9c-0.8-0.7-1.9-1.4-2.7-1.6
	c-0.1,0-0.2,0-0.2-0.1c-0.7-0.1-1.5,0.2-1.8,0.6c-0.2,0.2-0.2,0.5-0.2,0.7c0.1,0.8,0.9,1,1.2,1.1c0.2,0.1,0.4,0.1,0.7,0.1h0.1
	c0.4,0.1,1,0.6,1.5,1.1c-0.5-0.2-1.2-0.4-1.5-0.5c-0.2,0-0.2-0.1-0.3-0.1c-0.4-0.1-1.5,0.2-2,0.7c-0.2,0.3-0.3,0.7-0.2,1.2
	c0.1,0.4,0.9,0.7,1.5,0.9h0.1c0.2,0,0.3,0.1,0.6,0.1c0.2,0.1,0.4,0.1,0.7,0.2c-0.6,0.2-1.2,0.6-1.5,0.7c-0.2,0.2-0.5,0.5-0.6,0.8
	c-0.1,0.2,0,0.6,0.2,0.8c0.1,0.2,0.3,0.3,0.6,0.4c0.4,0.1,1,0,1.5-0.1c0.7-0.2,1.4-0.2,2,0c0.1,0,0.2,0,0.2,0.1
	c0.4,0.2,0.4,0.2,0.5,0.7c0,0.2,0,0.2,0.1,0.5c0,0.1,0,0.2,0.1,0.2c0.2,0.8,0.4,2.2,1.5,3c0.2,0.2,0.6,0.3,0.9,0.4
	c0.8,0.2,1.6-0.1,2.1-0.2H94H94c0.2,0.1,0.8,0.4,1.6,1.3c0.7,0.8,4.5,4.4,7.6,5.3c-0.6,0.8-1,1.6-1.3,2.6c-0.7-0.7-1.2-1-1.3-1.1
	c-0.7-0.7-1.6-1.2-2.1-1.4c-1.5-0.4-3,1.6-4.3,3.5l0,0c-0.1,0.2-0.2,0.2-0.2,0.4c-0.1,0.2-0.2,0.2-0.2,0.4c0,0-0.3-0.2-0.8-0.6l0,0
	c-1.3-0.9-4.1-2.5-8.1-3.3c-5.5-1.2-7.2,0.1-9,0.1s-2.1-0.3-2.4-0.6c-0.2-0.2-0.5,1,0.9,1.6c0,0-0.5-0.1-0.8-0.1h-0.1
	c-0.1,0-0.2-0.1-0.3-0.1c-0.1,0-0.2-0.1-0.3-0.1h-0.2h-0.2c-0.4-0.1-0.8-0.2-1.2-0.4c-1.2-0.7-1.7-2.1-2.2-3.5l-0.1-0.2l-0.1-0.1
	c-0.3-0.9-0.7-2-1.4-2.7c0.2-1,0.2-2,0-2.8c-0.2-0.7-1-1.4-1.6-1.6c-0.2,0-0.2-0.1-0.4-0.1c-0.7,0-1.2,0.5-1.4,1.3
	c-0.4,0-0.7,0.2-0.8,0.5c-0.1,0.2-0.2,0.3-0.2,0.6c-0.2,0-0.5,0.1-0.7,0.2c-0.2,0.2-0.2,0.3-0.2,0.7c-0.2,0-0.3,0.1-0.4,0.2
	c-0.2,0.2-0.2,0.5-0.2,0.8c-0.2,0.1-0.3,0.2-0.4,0.3c-0.2,0.3-0.2,0.7,0,1.2c0.2,0.4,0.7,1,1.2,1.2c0,1.8,1.2,3.3,2.3,4.5
	c0.2,0.3,0.5,0.6,0.7,0.9c0.6,0.7,1,1.6,1.4,2.5c0.3,0.7,0.7,1.5,1.2,2.1c0.7,1.2,1.6,2,2.5,2.1c0.3,0.1,0.7,0.1,1.1,0
	c1-0.2,1.5-0.7,1.7-1.7c0.2-0.4,0.2-0.7,0.5-0.9c0,0.3,0.7-0.2,1.2-0.4c0.1,0,0.2,0,0.2-0.1c0,0.2-0.7,1,0,1.5c0,0,0.5-0.8,3-1.2
	c2.5-0.5,8.1-1.2,12.5,4.5c-0.2,0.2-0.4,0.4-0.6,0.6l0,0c-0.2,0.2-0.5,0.3-0.7,0.3c0,0,0,0,0.1,0.1l0,0c0,0,0,0,0.1,0
	c0,0,0.1,0.1,0.2,0.1l0,0c0.1,0,0.1,0,0.2,0c0,0,0,0,0.1,0c0,0,0,0,0.1,0c-0.1,0.1-0.2,0.2-0.3,0.2c-0.4,0.2-0.8,0.2-1.3,0.1
	c-0.4-0.1-0.9-0.3-1.4-0.7c-0.2-0.2-0.6-0.4-0.9-0.7c-0.7-0.5-1.5-1.1-2.3-1.3c-0.2-0.5-0.4-1.1-0.7-1.6c-0.2-0.2-0.6-0.7-1.2-0.8
	c-0.1,0-0.2-0.1-0.3,0c-0.3,0-0.7,0.2-0.8,0.6c-0.1-0.1-0.2-0.1-0.2-0.1c-0.5-0.2-1,0.1-1.2,0.4c-0.1,0.1-0.1,0.2-0.2,0.3
	c-0.5-0.1-0.9,0.2-1.1,0.6c-0.2,0.1-0.6,0.3-0.7,0.6c-0.1-0.1-0.2-0.1-0.3-0.2c-0.5-0.1-0.9,0.1-1.3,0.5c-0.5,0.6-0.7,1.4-0.5,2.1
	c0.3,1.2,1.2,2.1,2.2,2.5c0.2,0.1,0.2,0.1,0.4,0.1c0.2,0.1,0.5,0.1,0.7,0.1c0.7,1.5,2.9,2.1,4.4,2.6c0.3,0.1,0.6,0.2,0.8,0.2
	c1.6,0.6,3,1.2,4.6,2c0.7,0.3,1.5,0.7,2.2,0.9c0,0,0.1,0,0.1,0.1c0.3,0.2,0.7,0.2,1,0.3c1.2,0.3,2.4,0.2,3.1-0.4
	c0.5-0.4,0.7-0.9,0.8-1.6c0.1-0.7-0.1-1.5-0.2-2.1c0.4,0.6,1,1.2,1.6,1.8c0,0,2.8,3.3,8,4.4c-0.7,1.3-1.6,2.5-2.5,3.7
	c-2.1,2.6-4.9,4.7-6.9,6.2c-1.2,0.9-2.6,1.9-4.3,3c0.7-0.8,1.5-1.8,1.8-2.9c0.2-0.7,0.2-1.4-0.1-1.9c-0.2-0.5-0.7-0.9-1.3-1.1
	c-0.9-0.2-1.7,0.2-2.4,1.1c-1.3,1.9-0.6,5.4-0.4,6.3c-0.7,0.5-1.5,1.1-2.1,1.8c-0.5,0.6-1,1.3-1.5,2.1c-0.4,0.7-0.7,1.4-1.2,2.3
	c-0.3,0.9-0.7,1.8-0.8,2.9c-0.1-0.7-0.2-1.2-0.5-1.8c-0.2-0.5-0.7-0.8-1.2-1c-0.5-0.2-1.1,0-1.5,0.5c-0.4,0.5-0.7,1.2-0.5,1.9
	c0.3,1.9,2.7,3.3,3.3,3.6c0,2.8,0.8,5.3,2.3,7.1c0.5,0.6,1.9,2.1,3.6,2.5c0.7,0.2,1.2,0.2,1.8,0c1.8-0.6,3-2.3,3.1-4.3
	c0-1.7-0.7-2.9-1.8-3.2c-0.3-0.1-0.7-0.1-1.2,0c-0.7,0.2-1.6,0.9-1.8,1.7c-0.2,0.5-0.1,1,0.1,1.4c0.1,0.7,0.5,1.2,1.1,1.3
	c0.1,0,0.2,0,0.3,0c0.4,0.1,0.8-0.1,1.1-0.5c0.1-0.2,0.2-0.3,0.2-0.5c0,0.2-0.1,0.4-0.2,0.6c-0.4,1.1-1.3,1.5-2.3,1.2
	c-0.3-0.1-0.7-0.2-0.9-0.4c-3.1-2.2-3.2-6.2-2.7-9.3c0.2-0.9,0.4-1.7,0.7-2.5c0.1,0,0.2,0.1,0.2,0.1c1.1,0.2,3.5,0.7,4.8-0.2
	c0.5-0.4,0.7-1,0.7-1.6c-0.2-0.7-0.8-1.4-1.6-1.6c-0.3-0.1-0.7-0.1-1.1,0c-0.6,0.2-1.2,0.6-1.6,1c2-2.6,5-4.4,7.9-6.2
	c1.6-1,3.2-1.9,4.6-3c3.8-3,6.7-6.4,8.5-10.2c1.6-0.1,3.2-0.3,5-0.9c-0.7,1.9-1.3,3.9-1.4,5.8c-0.2,3.5,0.4,6.9,2.3,9.9
	c3.5,5.7,11.5,5.5,16.4,2.5c0.3-0.2,0.6-0.4,0.8-0.6c0.1-0.1,0.2-0.2,0.2-0.2c0.2-0.2,0.4-0.3,0.6-0.5c0.1-0.1,0.2-0.2,0.2-0.2
	c0.2-0.2,0.5-0.5,0.7-0.7l0.1-0.1c0.2-0.2,0.4-0.5,0.6-0.8c0.1-0.1,0.2-0.2,0.2-0.3c0.2-0.2,0.2-0.4,0.4-0.7
	c0.1-0.1,0.1-0.2,0.2-0.3c0.2-0.3,0.3-0.7,0.5-1l0,0c0.3-0.7,0.6-1.6,0.7-2.4c0.4-1.9,0.1-3.9-0.4-5.8c-0.3-1.5-0.7-3-1-4.4
	c-0.1-0.3-0.2-0.7-0.2-1.1c0-0.1,0-0.2,0-0.2c-0.1-0.4-0.1-0.8-0.2-1.2c-0.2-3.6,0.6-8.4,3.4-10.7c2.8-2.3,10.2-2.5,10.4,2.5
	c0.1,1.6-0.3,4.1-1.2,5.4c-0.7,1.1-1.7,2-3,1.8c-0.6-0.1-1.9-1.6-0.7-1.8c0.2,0,0.2-0.1,0.4-0.1c0,0,0.1,0,0.1-0.1
	c0.1-0.1,0.2-0.1,0.2-0.2c0,0,0.1,0,0.1-0.1c0.1-0.1,0.2-0.2,0.2-0.2l0,0c0.1-0.2,0.2-0.3,0.2-0.5c0-0.1,0-0.1,0-0.2
	c0.3-1.2-0.8-2-1.8-1.8c-0.5,0.1-1.1,0.3-1.6,0.7c-0.1,0.1-0.2,0.1-0.2,0.2c-0.1,0-0.1,0.1-0.2,0.1c-0.1,0.1-0.2,0.2-0.3,0.3
	l-0.1,0.1c-0.1,0.1-0.2,0.2-0.2,0.3c0,0,0,0.1-0.1,0.1c-0.1,0.2-0.2,0.2-0.2,0.4v0.1c-0.1,0.2-0.1,0.3-0.1,0.5
	c-0.2,2,0.7,3.2,2.1,4.3c3.1,2.5,6.7-0.9,7.9-3.9c0.2-0.3,0.2-0.6,0.3-0.9l0,0l0,0c1-3.2,0.3-6.9-2.1-9.2c-2.5-2.4-6.2-2.5-9.1-1.6
	c-1.5,0.4-2.7,1.2-3.8,2.3c0,0,0-0.1,0.1-0.1c-0.1,0.1-0.1,0.1-0.2,0.2c-0.2,0.2-0.5,0.6-0.7,0.9c0,0.1-0.1,0.1-0.2,0.2
	c-0.2,0.3-0.5,0.7-0.7,1.2c-0.1,0.1-0.1,0.2-0.2,0.2c-0.2,0.3-0.3,0.7-0.5,1.1c0,0.1-0.1,0.2-0.1,0.2c-0.2,0.4-0.3,0.9-0.5,1.3
	c0,0.1-0.1,0.2-0.1,0.2c-0.1,0.4-0.2,0.8-0.3,1.2c0,0.1-0.1,0.2-0.1,0.3c-0.1,0.5-0.2,0.9-0.2,1.4c0,0.1,0,0.1,0,0.2
	c-0.1,0.4-0.1,0.8-0.1,1.2c0,0.1,0,0.2,0,0.3c0,0.4,0,0.9,0,1.3c0.1,1.8,0.4,3.7,1,5.4c0.7,2.1,1.2,4.1,1.3,6.3c0,0.2,0,0.5,0,0.7
	c0,0.1,0,0.2-0.1,0.3c0,0.2-0.1,0.2-0.1,0.4c0,0.1-0.1,0.2-0.1,0.3s-0.1,0.2-0.1,0.3s-0.1,0.2-0.1,0.3c-0.1,0.1-0.1,0.2-0.2,0.3
	c-0.1,0.1-0.1,0.2-0.2,0.3c-0.1,0.2-0.2,0.2-0.2,0.4c0,0.1-0.1,0.2-0.1,0.2c-0.4,0.7-0.8,1.3-1.2,1.9c-2.8,3.6-8.3,4.3-12.1,2.1
	c-3.8-2.1-5-5.8-4.8-9.9l0,0c0-0.4,0.1-0.8,0.1-1.2c0-0.1,0-0.2,0-0.2c0.1-0.3,0.1-0.7,0.2-1c0-0.1,0-0.2,0.1-0.3
	c0.1-0.3,0.2-0.7,0.2-1c0-0.1,0-0.2,0.1-0.2c0.1-0.4,0.2-0.8,0.3-1.2c0.2-1,0.7-1.9,1-2.8c1.9-1.4,3.7-3.8,4.5-7.9
	c0.2,0.1,0.5,0.2,0.7,0.2c1,0.3,2.7,0.7,4.4,0.1c0.2-0.1,0.3-0.2,0.5-0.3l0,0l0,0c2-1.6,2.4-7.4,0.8-12.3c-0.5-1.5-1-2.9-1.6-4.1
	c5.6,1,13.1-0.1,18.1-7.9c0.6-0.2,4.3-1.7,5.8-5c0.6-1.3,0.8-2.1,0.7-2.6c-0.1-0.2-0.2-0.3-0.3-0.4c-0.3-0.2-0.9,0-1.4,0.2
	c-0.1-0.2-0.2-0.5-0.2-0.9C150.6,253.8,151.8,250.9,152.1,248.9z M110.7,262.8c-0.4,0.5-0.7,1.1-1.1,1.6c-0.1-1-0.2-1.9-0.3-2.9
	C109.8,261.8,110.2,262.3,110.7,262.8z M107.5,227.8c-0.1,0.1-0.2,0.2-0.2,0.2c-0.2,0.2-0.3,0.3-0.5,0.6l0,0c0-0.2,0-0.5,0-0.7
	C107,227.9,107.2,227.9,107.5,227.8z M105.6,257c0,0.2,0,0.4,0.1,0.6c-0.1-0.3-0.2-0.7-0.3-1C105.4,256.8,105.5,256.9,105.6,257z"/>
<path id="XMLID_11584_" class="st2" d="M-3.6,0h328.8c-7.2,27.7-32.4,69.4-36.5,81.2c-6.5,18.4-10.4,34.2-37.5,22.4
	C223.9,91.7,144,81.2,126.5,83.9s-39.5-1.3-70.5-19.7C44.9,57.5,5.7,54.4-3.7,53C-3.5,39.5-3.6,13.5-3.6,0z"/>
<path class="st1" d="M116.4,199.2l41.7-66.2c0,0,3.3-2.8,1.3,1c-2,3.8-37.1,59.9-37.1,59.9L116.4,199.2z"/>
<path class="st1" d="M144.9,153.1l41.7-66.2c0,0,3.3-2.8,1.3,1c-2,3.8-37.1,59.9-37.1,59.9L144.9,153.1z"/>
<g>
	<path class="st1" d="M1279,507c0,0,0.7-3.5,2.3-5.8c1.6-2.4,2.5-3.6,2.9-3.1c0.4,0.5,0.2,1.8,0.3,2.2c0.1,0.5,0.9,0.4,1.6-0.2
		c0.7-0.7,1.6-1.7,2.6-1.8c1-0.1,1.8,0.4,2,0.2c0.2-0.1,0.7-0.2,0.9,0c0.2,0.2-0.8,0.5-1.1,1.3c-0.3,0.8-0.3,1.5-0.3,1.5
		s1-1.6,1.9-0.6c0.9,1,1.2,1.7,2.6,3c1.3,1.3,8.3,9.4,9.5,11.4c1.2,2-0.8,0.7-1.5,0.1c-0.7-0.6-6.9-0.5-10.4-4.7
		c-1.3-1.6-4.9,0.9-6.3,0.3c-1.4-0.5-2.7-0.9-3.1-1c-0.4-0.1-2.8,3.8-3.3,5.7c-0.5,1.9-2.7-0.1-3-2.9c-0.4-2.8-0.1-3.3,0.2-3.3
		c0.4-0.1,2.2-0.6,3.2-1.3c1-0.7,0.4-1.2,0.2-1C1279.9,507,1279.2,507.6,1279,507z"/>
	<path class="st1" d="M1376.8,570.5c0,0,0.4-3,1.6-5.2c1.2-2.1,1.9-3.3,2.2-3c0.4,0.4,0.2,1.5,0.4,1.9c0.1,0.4,0.8,0.2,1.4-0.4
		c0.5-0.7,1.3-1.6,2.1-1.8c0.8-0.2,1.5,0.1,1.7,0c0.2-0.1,0.5-0.3,0.7-0.1c0.2,0.2-0.7,0.5-0.9,1.2c-0.2,0.7-0.2,1.2-0.2,1.2
		s0.8-1.5,1.6-0.7c0.9,0.7,1.1,1.3,2.3,2.2c1.2,1,7.5,7,8.6,8.5c1.1,1.6-0.6,0.6-1.2,0.2s-5.8,0.4-9-2.9c-1.2-1.2-4,1.3-5.2,1
		c-1.2-0.3-2.4-0.4-2.7-0.5c-0.3-0.1-2.2,3.5-2.4,5.2c-0.3,1.6-2.2,0.2-2.7-2.1c-0.4-2.3-0.2-2.8,0.1-2.9s1.8-0.8,2.6-1.5
		c0.8-0.7,0.3-1,0.1-0.9C1377.6,570.4,1377,571,1376.8,570.5z"/>
	<path class="st1" d="M1239.9,544c0,0,0.2-2,1.1-3.5c0.8-1.5,1.3-2.2,1.5-2c0.2,0.3,0.2,1,0.2,1.3c0.1,0.2,0.5,0.2,0.9-0.2
		c0.4-0.4,0.9-1.1,1.4-1.2s1,0.1,1.2,0c0.1-0.1,0.4-0.2,0.5-0.1s-0.4,0.4-0.6,0.8c-0.1,0.5-0.1,0.9-0.1,0.9s0.5-1,1.1-0.5
		s0.7,0.9,1.6,1.5c0.8,0.7,5,4.7,5.8,5.8c0.7,1-0.4,0.4-0.9,0.1s-3.9,0.2-6.1-1.9c-0.8-0.8-2.7,0.9-3.5,0.7
		c-0.8-0.2-1.6-0.3-1.8-0.3c-0.2,0-1.5,2.4-1.6,3.5c-0.2,1.1-1.5,0.2-1.8-1.4s-0.2-1.9,0.1-1.9c0.2-0.1,1.3-0.5,1.8-1
		c0.5-0.5,0.2-0.7,0.1-0.5C1240.4,543.8,1240,544.2,1239.9,544z"/>
	<path class="st1" d="M1252.1,575.3c0,0,3.7-3.4,5.4-3.6c1.7-0.2,2.9-0.1,2.7,0.9c-0.2,1-0.5,3.9,0.1,4.9c0.5,1,0.5,1.6,1.3,0.4
		s1.1-3,1.7-2.2c0.6,0.9,0.3,1.9,1,1.6c0.7-0.3,0.7-0.3,1-0.3c0.3,0.1,0.5-0.2,0.9-0.3c0.3-0.1-0.4,0.5-0.5,0.8s-0.4,1.9-0.7,2.7
		c-0.4,0.7-0.5,1.6-0.5,1.6s0.6,2.2,1.5,5.3c0.9,3.1,1.3,4.7,0,3.1c-1.3-1.6-0.8-1.8-1.9-2.6c-1.2-0.9-2-2.1-2.2-2.8
		c0,0-2.1,1.6-3,1.3c-0.9-0.2-1.2,1.3-1.9,2.2c-0.8,0.9-1.7,1.2-2.9-0.6c-1.2-1.8-0.4-3.3-0.1-3.6c0.4-0.2,1.8-0.2,2.5-0.6
		c0.7-0.4,1.4-1.6,0.5-1.5c-0.9,0.2-1.9-2.9-1.6-3.8c0.4-1,1.1-3,0.2-3C1254.6,575.1,1252.6,576.1,1252.1,575.3z"/>
	<path class="st1" d="M1371.3,470.1c0,0,1.7-1.3,2.5-1.3c0.7,0,1.3,0.1,1.2,0.5s-0.3,1.7-0.1,2.2c0.2,0.5,0.2,0.7,0.5,0.2
		c0.4-0.5,0.5-1.3,0.8-0.9c0.2,0.4,0.1,0.9,0.4,0.8c0.3-0.1,0.3-0.1,0.4-0.1s0.2-0.1,0.4-0.1c0.1,0-0.2,0.2-0.2,0.3
		c-0.1,0.1-0.2,0.9-0.4,1.2c-0.2,0.3-0.3,0.7-0.3,0.7s0.2,1,0.5,2.4c0.3,1.4,0.5,2.1-0.1,1.3s-0.3-0.8-0.8-1.3
		c-0.5-0.5-0.9-1-0.9-1.3c0,0-1,0.6-1.3,0.4s-0.5,0.5-0.9,0.9c-0.4,0.3-0.8,0.4-1.2-0.4c-0.4-0.9-0.1-1.5,0.1-1.6
		c0.2-0.1,0.8,0,1.1-0.1c0.3-0.1,0.7-0.6,0.3-0.6c-0.4,0-0.8-1.3-0.6-1.8s0.5-1.2,0.1-1.3C1372.4,470.2,1371.4,470.5,1371.3,470.1z"
		/>
	<path class="st1" d="M1305.1,458.5c0-0.2-0.2-6.6-1.2-8.7c-1-2.1-4.6-8-6.5-11.1c-1.8-3-4.1-6-4.4-5.6c-0.4,0.4,1.9,3.9,2,6.3
		c0.1,2.3,0.6,4.8,1,6.6c0.4,1.8,1.6,3.2,1.5,4.7c-0.1,1.5,0.1,4.4,1.1,8.9c1,4.4,1.6,7.3,1.7,9.5c0.1,2.2,0.1,3.1-1.5,2.6
		c-1.6-0.5-3.9-1.9-4.4-1.3c-0.5,0.5-0.8,5.6,0.5,7c1.3,1.5,4.4,1.9,5.7,1.7c1.3-0.2,0.7-3.8,1.3-3.9c0.7-0.1,3.3,0.3,6.5-1.9
		c3.2-2.3,3.6-4,3.9-4.3c0.4-0.4,0.7-0.8,0.4-0.9c-0.2,0-0.2,0.2-1.1-0.4c-0.8-0.7-1.9-0.7-2.4-0.7c-0.4,0.1-0.9-1,0.1-2.8
		s2.8-4.1,2.4-6.7s-1-7.5-1.5-9.7c-0.5-2.2-1.6-3.8-1.9-3.3c-0.4,0.5,0.6,2.2,0.2,4.9c-0.4,2.6-2.6,6.4-3,8.3
		C1305.4,459.2,1305.1,459.9,1305.1,458.5z"/>
	<path class="st1" d="M1287.5,562.3c0.3-0.2,1.2-0.9,1.8-0.9s0.9,0.2,1.2,0.5c0.3,0.2,0.5,0.3,0.7,0.3c0.2,0,0,0.2-0.3,0.4
		c-0.3,0.2-0.5,1.1-1,1.7c-0.5,0.6-1.8,3.5-3,4.3c-1.2,0.9-2.7,1.1-3.5,1.8c-0.8,0.7-1.5,2.6-1.9,2.7c-0.4,0.2-1.4-1.8-1.8-2.6
		c-0.4-0.7,0.7-1.5,1.4-1.5c0.7-0.1,1.5-1,1.1-1.3c-0.4-0.2-3-5.8-3.4-7.5c-0.4-1.7-1-8.1-1.8-10.1c-0.8-2-0.5-6.4-0.2-6.5
		c0.3-0.2,2.1,3.7,2.7,5c0.7,1.3,1,2.1,1.2,2.1c0.1,0.1,0.4-1,0.4-1.9c0-1-0.2-2.4,1.5,0.7c1.7,3.2,3.6,4.8,3.5,6.5
		c-0.1,1.7-0.1,3.2,0,4.4s0.3,2.4,0.3,2.4S1287.2,562.6,1287.5,562.3z"/>
	<path class="st1" d="M1446.9,563.4c0.2-0.2,0.9-0.7,1.4-0.7s0.7,0.2,0.9,0.4c0.2,0.2,0.4,0.2,0.5,0.2s0,0.2-0.2,0.3
		c-0.2,0.2-0.4,0.9-0.8,1.3c-0.4,0.4-1.3,2.6-2.2,3.3c-0.9,0.7-2.1,0.9-2.7,1.3c-0.6,0.5-1.2,1.9-1.5,2.1c-0.3,0.2-1-1.4-1.3-1.9
		c-0.2-0.5,0.5-1.1,1-1.2c0.5-0.1,1.2-0.8,0.9-1c-0.3-0.2-2.2-4.4-2.6-5.6c-0.4-1.3-0.7-6.1-1.3-7.7c-0.6-1.5-0.4-4.8-0.1-4.9
		c0.2-0.1,1.5,2.8,2.1,3.8c0.5,1,0.8,1.6,0.9,1.6s0.2-0.7,0.2-1.5s-0.1-1.8,1.2,0.5c1.3,2.4,2.7,3.6,2.7,4.9c-0.1,1.3-0.1,2.4,0,3.3
		c0.1,0.9,0.2,1.8,0.2,1.8S1446.7,563.6,1446.9,563.4z"/>
	<path class="st1" d="M1439.2,430.8c0.3-0.1,1.3-0.4,1.9-0.2s0.9,0.6,1.1,0.9c0.2,0.3,0.4,0.5,0.7,0.5c0.2,0.1-0.1,0.2-0.4,0.3
		c-0.3,0.1-0.7,0.9-1.3,1.3c-0.5,0.4-2.2,2.7-3.6,3.2c-1.3,0.4-2.9,0.1-3.7,0.4c-0.9,0.4-1.9,1.9-2.3,1.9c-0.4,0.1-1-2.3-1.3-3.1
		c-0.2-0.9,0.9-1.2,1.6-1c0.7,0.2,1.6-0.5,1.3-0.9c-0.4-0.4-1.9-6.7-2.1-8.4c-0.1-1.8,0.4-8.2,0-10.4c-0.4-2.2,0.6-6.3,0.9-6.4
		c0.3-0.1,1.3,4.3,1.8,5.8c0.5,1.5,0.7,2.4,0.8,2.5c0.1,0.1,0.5-0.8,0.7-1.8c0.2-1,0.2-2.4,1.3,1.3c1.1,3.7,2.7,6,2.3,7.5
		c-0.4,1.6-0.6,3-0.7,4.3c-0.1,1.2-0.1,2.4-0.1,2.4S1438.8,430.9,1439.2,430.8z"/>
	<path class="st1" d="M1292.5,420.6c-0.1-0.1-0.2-0.2-0.4-0.4c-0.1-0.2-0.3-0.5-0.7-0.7c-0.4-0.2-1.1-0.1-1.3-0.1
		c-0.2,0.1-0.7-0.1-0.7-0.1s0.1-0.8,0.2-1.6c0.1-0.8,0.4-1.7,0.7-2.7c0.4-1-0.6-2.7-1.2-5.2c-0.5-2.6-0.7-1.6-0.9-1
		s-0.4,1.2-0.5,1.1c-0.1-0.1-0.2-0.7-0.4-1.7c-0.2-1.1-0.7-4.1-0.9-4.1s-1.1,2.6-0.9,4.1c0.2,1.5-0.5,5.6-0.5,6.9s0.7,5.5,1,5.8
		c0.2,0.3-0.4,0.7-0.9,0.5c-0.5-0.2-1.2-0.1-1.1,0.5c0.1,0.5,0.4,2.2,0.7,2.2s1-0.9,1.6-1.1c0.6-0.1,1.6,0.2,2.5,0.1
		c0.9-0.1,2.1-1.5,2.6-1.7c0.4-0.2,0.7-0.7,0.9-0.7C1292.4,420.8,1292.6,420.7,1292.5,420.6z"/>
	<path class="st1" d="M1393.9,429.3c0,0,2.9-1.6,4.2-1.1c1.3,0.5,1.2,1.7,1.7,1.8c0.5,0.1,1.2,0.5,0.9,0.7c-0.4,0.2-0.9,0.2-1.2,0.7
		s-1.6,2.9-2.6,3.5c-1,0.7-1.6,0.8-1.3,1.4c0.4,0.6,2.1,3.6,3.8,3.9c1.8,0.3,3.7,0.7,4.4,2.7s1.3,7.3,2,10.8s1.4,13.7,1.2,17.1
		c-0.2,3.5-0.1,4.7-0.9,5.2c-0.8,0.5-3.5-4.3-3.9-7.6s-1.2-8.9-2.8-11.5c-1.6-2.5-8.4-9.4-9.9-10.8c-1.5-1.5-2-3.3-2-3.3
		s-2.1,1.1-3.3,1.6c-0.7,0.3-3,3.3-3.4,4.4c-0.4,1-0.7,1.6-1.3,1c-0.6-0.7-1.3-1.6-1.9-2.7c-0.5-1-1.5-3.2-0.8-3.6
		c0.6-0.4,1.6-0.7,2.8-1.4c1.1-0.6,2.1-1.8,3-3c0.8-1.2,1.3-2.7,1.3-2.9s-2-5.8-2.2-10.1c-0.2-4.4-1.5-9.7-1.9-10.9
		c-0.5-1.2-5.6-7.1-6.9-9.4c-1.4-2.3-3.2-4.9-0.6-4.7s9.5,3.8,12.1,6c2.7,2.1,5.2,3.6,5.2,6.4c0.1,2.8-0.7,6.6,0,9.2
		C1390,425.2,1392.2,429.5,1393.9,429.3z"/>
	<path class="st1" d="M1283.1,614.6c0,0,1.6-1.8,2.5-1.9c0.9,0,1,0.7,1.3,0.7s0.9,0,0.6,0.2c-0.2,0.2-0.5,0.4-0.6,0.7
		c-0.1,0.4-0.6,2.2-1.2,3s-0.9,1-0.6,1.2c0.3,0.2,1.8,1.6,2.9,1.4c1.2-0.3,2.4-0.6,3.1,0.5c0.7,1.1,1.8,4.3,2.7,6.2s2.7,8.1,3,10.3
		c0.3,2.2,0.5,3,0.1,3.5c-0.4,0.5-2.7-1.8-3.5-3.6s-1.9-5.2-3.3-6.4c-1.3-1.1-6.6-3.5-7.7-3.9c-1.1-0.5-1.7-1.5-1.7-1.5
		s-1.2,1.3-1.9,1.9c-0.4,0.4-1.5,3-1.6,3.7c-0.1,0.8-0.2,1.2-0.7,1c-0.5-0.2-1-0.7-1.5-1.2c-0.5-0.5-1.3-1.6-1-2.1
		c0.3-0.4,0.9-0.9,1.5-1.6c0.6-0.7,1-1.8,1.5-2.7c0.4-1,0.4-2.1,0.4-2.2s-2-3-2.7-5.7c-0.7-2.7-2.2-5.6-2.6-6.3
		c-0.4-0.6-4.4-2.9-5.6-3.9c-1.2-1-2.6-2.2-1-2.8c1.6-0.6,6.4-0.3,8.4,0.3c1.9,0.5,3.7,0.8,4.1,2.6c0.4,1.8,0.4,4.3,1.2,5.8
		C1280.1,613.2,1282.1,615.2,1283.1,614.6z"/>
	<path class="st1" d="M1331.5,590.9c0,0-0.1-2.6-2.9-5.2c-2.9-2.7-7.7-9.5-8.1-11.2c-0.4-1.7-1.9-4.6-2-5.3
		c-0.2-0.7-0.9,1.2-0.1,3.7c0.8,2.5,1.8,5.2,2,6.7c0.2,1.6,1.6,7.1,4.9,9.5c3.3,2.4,4.8,3.8,4.7,4.4c-0.2,0.6-0.9,1.4-1.6,1.1
		c-0.7-0.3-2.7-1.6-2.9-1c-0.2,0.6,0.7,6.4,3,7.8c2.4,1.4,5.1,0.4,5.5-0.1c0.4-0.4-1.7-1.2-1.3-2.2c0.4-1.1,1.4-0.4,2.1-1.1
		c0.7-0.7,2.4-0.1,2.8,0c0.4,0.1-0.2-0.6-0.2-0.6s3.6,0.9,5,1.3s5.1-0.1,6.1,0.5c1,0.6,9.7,0.6,10.1-0.4c0.2-0.6-1.3-0.3-2.7-0.3
		s-5.8-0.7-7.5-1.8s-4-2.6-5.1-2.9c-1.1-0.4-4.4,0.3-5.6,0.4c-1.3,0-2-0.1-2-0.1s-0.7-1.5-1.4-2.1
		C1333.4,591.3,1331.5,590.9,1331.5,590.9z"/>
	<path class="st1" d="M1321.1,441.9c0,0-0.1-1.4-1.6-2.9c-1.6-1.5-4.3-5.3-4.5-6.2c-0.2-1-1-2.6-1.2-2.9c-0.1-0.4-0.5,0.7-0.1,2.1
		c0.4,1.4,1,2.9,1.1,3.8c0.1,0.9,0.9,3.9,2.7,5.3c1.8,1.3,2.7,2.1,2.6,2.4c-0.1,0.4-0.5,0.8-0.9,0.6s-1.5-0.9-1.6-0.5
		s0.4,3.5,1.7,4.3c1.3,0.8,2.9,0.2,3,0c0.2-0.2-0.9-0.7-0.7-1.3c0.2-0.6,0.8-0.2,1.2-0.6c0.4-0.4,1.3-0.1,1.5,0s-0.1-0.3-0.1-0.3
		s1.9,0.5,2.8,0.7c0.8,0.2,2.8,0,3.4,0.3c0.5,0.3,5.4,0.3,5.6-0.2c0.1-0.4-0.7-0.2-1.5-0.2c-0.8,0-3.2-0.4-4.1-1
		c-0.9-0.7-2.2-1.4-2.9-1.6c-0.6-0.2-2.4,0.2-3.2,0.2s-1.1-0.1-1.1-0.1s-0.4-0.9-0.8-1.2C1322.2,442.2,1321.1,441.9,1321.1,441.9z"
		/>
	<path class="st1" d="M1289.3,477.9c-0.4,0.1-1.7,0.1-2.2-0.1c-0.5-0.2-1.2-0.5-1.5-0.5c-0.3-0.1-1.2,0.4-1.6,0.4
		c-0.4,0.1-0.5,0.1-0.5,0.1s-0.2-0.4-0.4-0.5c-0.2-0.1-0.8-0.1-0.8-0.1s-0.1-0.7-1-1.3c-0.9-0.6-2.4-2.2-2.6-2.7
		c-0.2-0.5-0.7-1.2-0.7-1.4c-0.1-0.2-0.2,0.4,0.1,1.1c0.3,0.7,0.6,1.4,0.7,1.8c0.1,0.4,0.7,1.9,1.6,2.4c1,0.5,1.5,0.8,1.5,1
		s-0.2,0.4-0.4,0.4c-0.2-0.1-0.8-0.3-0.9-0.1c-0.1,0.2,0.4,1.8,1.1,2c0.7,0.2,1.5-0.2,1.6-0.3c0.1-0.1-0.5-0.2-0.4-0.5
		c0.1-0.3,0.4-0.2,0.5-0.4c0.2-0.2,0.7-0.2,0.8-0.2s-0.1-0.2-0.1-0.2s1,0.1,1.5,0.1c0.4,0.1,1.5-0.3,1.8-0.2s2.8-0.4,2.9-0.7
		C1290.1,477.7,1289.7,477.9,1289.3,477.9z"/>
	<path class="st1" d="M1449.7,470.7c-1.2-0.3-4.7-1.7-5.9-3c-1.2-1.3-3-2.9-3.9-3.3c-0.8-0.5-3.6-0.6-4.6-0.9
		c-1-0.2-1.6-0.5-1.6-0.5s-0.4-1.3-0.9-2c-0.5-0.6-2.1-1.3-2.1-1.3s0.2-2.1-1.9-4.8c-2.1-2.7-5.3-9.2-5.5-10.7
		c-0.2-1.5-1.1-4.1-1.2-4.7c-0.1-0.7-0.8,0.8-0.4,3c0.4,2.2,0.9,4.6,1,5.9c0.1,1.3,0.7,6.1,3.1,8.7c2.4,2.6,3.6,4,3.3,4.4
		c-0.2,0.5-0.9,1-1.5,0.5c-0.6-0.4-2.1-1.8-2.2-1.4c-0.2,0.4-0.1,5.3,1.8,6.9c1.8,1.6,4.1,1.3,4.4,1c0.4-0.2-1.3-1.3-0.8-2.1
		s1.2-0.1,1.8-0.5s1.9,0.4,2.2,0.5c0.4,0.1-0.1-0.5-0.1-0.5s2.8,1.4,3.9,2c1.2,0.6,4.1,1,4.9,1.6c0.8,0.7,7.8,2.4,8.3,1.7
		C1452.1,471.1,1450.7,471,1449.7,470.7z"/>
	<path class="st1" d="M1381.4,501.9c0,0-3.3-4.2-3.9-8c-0.6-3.8-1.8-7.9-3.6-9.5c-1.8-1.7-6.4-6.7-9.4-8.4c-3-1.7-3.2-0.4-1.8,1.2
		c2.9,3.5,3.3,6.3,3.9,9.4c0.5,3,1.1,11.2,3.7,15c2.6,3.8,4.6,6,4.6,7.5c0.1,1.5-0.8,2.1-0.8,2.1s-3,2-3.9,2.1s-1,1.3-0.3,4.3
		c0.7,3,1.9,4.4,4.1,3.9c2.1-0.5,1.9,0.2,2.3-2.1c0.4-2.2-0.2-3.6,0.8-4.3c1-0.7,1.7-1.5,2.5-1c0.9,0.5,7,8.7,10,9.4
		c3,0.7,2.7,0,4.4,1.5c1.8,1.5,5.1,8,6.2,7.4s-1.3-5.6-2.9-9.5s-4-9.5-5.3-10.3c-1.3-0.9-6.1-2.4-6.7-4.5c0,0,0.5-1.1,1.3-1.5
		c0.8-0.4,1.5-0.2,2.2-0.8s1.6-0.4,1.6-0.4s-0.5-0.8-1-0.9c-0.5-0.1-1.2-3-3.3-2.7c-2.1,0.2-2.8,0.5-3.4,0.5
		C1382.4,502.4,1381.4,501.9,1381.4,501.9z"/>
	<path class="st1" d="M1219.1,484.7c0,0-2-2.6-2.4-5c-0.4-2.4-1.1-4.9-2.2-6c-1.1-1-4-4.2-5.8-5.2c-1.9-1-2-0.2-1.2,0.8
		c1.8,2.1,2.1,3.9,2.4,5.8c0.4,1.9,0.7,7,2.3,9.4c1.6,2.3,2.9,3.7,2.9,4.7c0.1,1-0.5,1.3-0.5,1.3s-1.9,1.2-2.4,1.3
		c-0.5,0.1-0.7,0.8-0.2,2.7c0.5,1.9,1.2,2.8,2.6,2.5c1.3-0.3,1.2,0.1,1.5-1.3s-0.1-2.2,0.5-2.7c0.6-0.4,1-0.9,1.6-0.6
		c0.5,0.3,4.4,5.5,6.3,5.9s1.7,0,2.8,1c1.1,1,3.2,5,3.9,4.6c0.7-0.4-0.8-3.5-1.8-6c-1-2.5-2.5-5.9-3.3-6.4c-0.8-0.5-3.8-1.5-4.1-2.8
		c0,0,0.3-0.7,0.8-0.9c0.5-0.2,1-0.1,1.4-0.5c0.5-0.4,1-0.2,1-0.2s-0.3-0.5-0.6-0.5c-0.3-0.1-0.7-1.9-2.1-1.7
		c-1.3,0.1-1.8,0.3-2.1,0.3C1219.7,485.1,1219.1,484.7,1219.1,484.7z"/>
	<path class="st1" d="M1348.4,469c0,0-0.9-2.1-0.6-5.5s0.6-6.4-0.1-8.6s-2.7-7.6-3.4-11.9c-0.7-4.3-1.4-8.1-1.9-8.3
		c-0.5-0.2-3,8.7-2.6,14.6c0.4,5.9,1,6.9,1.2,8.6s-0.5,3.1-0.4,6.7c0.1,3.6,1,7.5,1,8.3c0.1,0.7-0.5,1.6-1.2,2.2
		c-0.6,0.7-2.2,1.3-2.9,1.7c-0.7,0.3-1.4,0.3-1.3,0.9c0.1,0.6,0.2,2.2,0.9,3s1.5,1,2.1,1.1c0.5,0.1,1-2.4,1.6-2.6
		c0.6-0.1,3.5-1.1,4-1c0.5,0.1,1.8,1.6,3.8,1c2-0.6,2.6-0.4,3.8,0.2c1.2,0.5,3.8,2.5,4,2.4c0.3-0.1-0.3-1.9-0.9-2.7
		c-0.9-1.2-1.1-1.3-1.6-2.2c-0.5-0.9-1.9-2.4-2.6-2.3c0,0,0.7-1.9,1.5-2.6c0.9-0.7,1.6-1.8,2.1-2c0.4-0.1,1.2-0.1,1.3-0.3
		c0.1-0.2-1.5-0.7-1.5-0.7s-0.4-1.6-2.4-1.8C1350.4,467.3,1349,468.8,1348.4,469z"/>
	<path class="st1" d="M1421.8,599.5c0,0-0.8-1.9-0.5-4.9c0.2-3,0.5-5.7-0.1-7.5c-0.6-1.9-2.4-6.7-3-10.5s-1.2-7.2-1.6-7.3
		c-0.4-0.2-2.6,7.7-2.2,12.9c0.4,5.2,0.9,6.1,1.1,7.6c0.2,1.5-0.4,2.7-0.3,6c0.1,3.2,0.8,6.7,0.9,7.3c0.1,0.6-0.5,1.5-1,2
		c-0.5,0.5-1.9,1.2-2.6,1.5c-0.7,0.3-1.2,0.2-1.2,0.8c0.1,0.5,0.2,2,0.7,2.7c0.5,0.7,1.3,0.9,1.8,1c0.4,0.1,0.9-2.2,1.5-2.3
		c0.5-0.1,3-0.9,3.5-0.9c0.5,0.1,1.6,1.5,3.4,0.9c1.8-0.5,2.3-0.4,3.4,0.2c1,0.5,3.3,2.2,3.6,2.1c0.2-0.1-0.2-1.6-0.8-2.4
		c-0.7-1-1-1.2-1.5-2c-0.5-0.9-1.8-2.1-2.2-2.1c0,0,0.6-1.6,1.3-2.2s1.5-1.6,1.8-1.8c0.4-0.1,1-0.1,1.2-0.3c0.1-0.2-1.3-0.5-1.3-0.5
		s-0.4-1.4-2.2-1.6C1423.5,597.9,1422.3,599.2,1421.8,599.5z"/>
	<path class="st1" d="M1257.8,476.1c0,0-0.5-0.9-0.5-2.6s0-3.1-0.4-4s-1.6-3.3-2.1-5.3c-0.5-2-1-3.7-1.2-3.8c-0.2-0.1-1,4.4-0.5,7.1
		s0.8,3.2,1,3.9s-0.1,1.5,0.1,3.2c0.2,1.7,0.8,3.5,0.9,3.8c0.1,0.3-0.2,0.9-0.4,1.2c-0.2,0.4-1,0.9-1.3,1c-0.4,0.2-0.7,0.3-0.6,0.5
		c0.1,0.2,0.2,1,0.5,1.3c0.3,0.3,0.8,0.4,1,0.3c0.2,0,0.4-1.3,0.7-1.4s1.6-0.9,1.8-0.8c0.2,0,0.9,0.6,1.9,0.1
		c0.9-0.5,1.2-0.4,1.8-0.2s1.9,0.9,2,0.8c0.1-0.1-0.2-0.9-0.5-1.2c-0.4-0.5-0.6-0.5-0.9-0.9s-1-1-1.3-0.9c0,0,0.2-1,0.6-1.3
		c0.4-0.4,0.7-1,0.9-1.2c0.2-0.1,0.5-0.2,0.6-0.2c0.1-0.1-0.7-0.2-0.7-0.2s-0.2-0.7-1.2-0.6C1258.8,475,1258.1,475.9,1257.8,476.1z"
		/>
	<path class="st1" d="M1387.6,611c-0.3-0.2-0.4-0.2-0.5-0.4c-0.2-0.2-0.7-0.4-0.8-0.3c0,0,0.1-0.5,0.2-0.9c0.2-0.3,0.3-0.7,0.4-0.8
		c0.1-0.1,0.3-0.2,0.3-0.2s-0.4,0-0.4,0s-0.2-0.4-0.7-0.1c-0.5,0.2-0.8,0.8-1,0.9c0,0-0.4-0.4-0.5-1.3s-0.2-1.8-0.5-2.2
		c-0.3-0.5-1.2-1.6-1.6-2.7c-0.4-1-0.9-1.9-1-1.9s-0.2,2.6,0.2,4.1c0.5,1.5,0.7,1.6,0.9,2.1c0.1,0.4,0.1,0.9,0.3,1.8
		c0.2,0.9,0.7,1.8,0.8,2c0.1,0.2-0.1,0.5-0.2,0.7c-0.1,0.2-0.5,0.6-0.7,0.8c-0.2,0.2-0.4,0.2-0.3,0.4c0.1,0.1,0.2,0.5,0.4,0.7
		c0.2,0.1,0.5,0.1,0.6,0s0.1-0.8,0.3-0.9s0.9-0.7,1-0.7c0.1-0.1,0.5,0.2,1-0.2c0.5-0.4,0.7-0.4,1-0.4s1.1,0.2,1.2,0.1
		C1388.1,611.6,1387.8,611.2,1387.6,611z"/>
	<path class="st1" d="M1322.9,526.3c-0.7-0.4-0.9-0.4-1.3-0.9c-0.5-0.4-1.5-0.9-1.9-0.6c0,0,0.1-1.3,0.5-2c0.4-0.7,0.7-1.6,0.9-1.8
		c0.2-0.2,0.7-0.4,0.7-0.6c0.1-0.2-1,0.1-1,0.1s-0.5-0.8-1.8-0.3c-1.3,0.5-1.9,1.9-2.2,2.2c0,0-0.9-1-1.2-3.1
		c-0.4-2.1-0.6-4.1-1.3-5.1c-0.7-1-2.7-3.7-3.8-6.1c-1.1-2.4-2.1-4.4-2.4-4.4s-0.5,6.2,0.7,9.6c1.2,3.4,1.7,3.8,2.1,4.8
		c0.4,1,0.2,2,0.8,4.1c0.6,2.1,1.8,4.3,1.9,4.6c0.1,0.4-0.1,1.2-0.4,1.8c-0.2,0.6-1.1,1.5-1.5,1.9s-0.8,0.6-0.7,1
		c0.1,0.3,0.5,1.3,1,1.6c0.5,0.3,1.1,0.1,1.4,0c0.3-0.1,0.2-1.8,0.6-2.1c0.4-0.3,1.9-1.8,2.2-1.8c0.3-0.1,1.3,0.4,2.4-0.6
		c1.1-1,1.5-1.1,2.3-1.1c0.8-0.1,2.6,0.3,2.8,0.2C1324,527.6,1323.4,526.6,1322.9,526.3z"/>
	<path class="st1" d="M1361.4,539c0,0-0.6-1.2-1.4-0.9c-0.8,0.3-1.3,0.7-1.8,0.6c-0.5-0.1-2.4-0.6-3-3.4c-0.6-2.8,0.2-7.1-1.3-8
		c-1.6-1-6-2.2-11-1.5c-5,0.7-5.5,0.5-3.8,2.2c1.6,1.7,4.1,2.2,5,2.2c0.9,0,2.7,0.3,3.5,1.2c0.7,0.9,1.2,3,2.3,6
		c1.2,3,2.6,6.3,2.4,7.3c-0.1,1-1,2.2-2,2.8c-1,0.5-1.9,0.8-1.7,1.3c0.2,0.5,1.3,1.2,1.8,1.7s1.1,1.3,1.3,0.8
		c0.2-0.5,0.9-2.4,2.1-2.9c1.2-0.5,1.8-0.3,3.7-1.9s3.1-4.1,3.3-4.6c0.2-0.4,1,0.3,1.4,1c0.4,0.7,0.9,2.5,2,3.7
		c1.1,1.2,1.5,3.3,2.2,3.6c0.8,0.4,0.5-4.8,0.5-7.3c-0.1-2.6-0.2-3.8-0.8-5c-0.6-1.3-1.2-1.5-1.8-1
		C1363.9,537.5,1362,539,1361.4,539z"/>
	<path class="st1" d="M1279.8,436.2c0,0-0.1-0.2-0.3-0.2c-0.2,0.1-0.3,0.2-0.4,0.1c-0.1,0-0.5-0.1-0.7-0.8c-0.1-0.6,0.1-1.6-0.3-1.8
		c-0.4-0.2-1.3-0.5-2.4-0.3c-1.1,0.2-1.2,0.1-0.9,0.5c0.4,0.4,0.9,0.5,1.1,0.5s0.6,0.1,0.8,0.2c0.2,0.2,0.2,0.7,0.5,1.3
		c0.2,0.7,0.5,1.4,0.5,1.6c0,0.2-0.2,0.5-0.4,0.6c-0.2,0.1-0.4,0.2-0.4,0.3c0.1,0.1,0.3,0.2,0.4,0.4c0.1,0.1,0.2,0.3,0.3,0.2
		c0.1-0.1,0.2-0.5,0.5-0.7c0.2-0.1,0.4-0.1,0.9-0.4s0.7-0.9,0.7-1c0.1-0.1,0.2,0.1,0.3,0.2c0.1,0.1,0.2,0.5,0.4,0.9
		c0.2,0.2,0.3,0.7,0.5,0.8c0.2,0.1,0.1-1.1,0.1-1.6s-0.1-0.9-0.2-1.2c-0.1-0.3-0.3-0.4-0.4-0.2
		C1280.4,435.8,1279.9,436.2,1279.8,436.2z"/>
	<path class="st1" d="M1444.2,498c0,0-0.2-0.4-0.4-0.3c-0.2,0.1-0.4,0.2-0.5,0.2c-0.1,0-0.8-0.2-1-1.1c-0.2-0.9,0.1-2.3-0.4-2.6
		c-0.5-0.3-1.9-0.7-3.6-0.5c-1.6,0.2-1.8,0.2-1.2,0.7c0.5,0.5,1.3,0.7,1.6,0.7s0.9,0.1,1.1,0.4c0.2,0.3,0.4,1,0.7,1.9
		c0.4,1,0.8,2.1,0.8,2.4c0,0.3-0.3,0.7-0.7,0.9c-0.3,0.2-0.6,0.2-0.5,0.4c0.1,0.2,0.4,0.4,0.5,0.5c0.1,0.2,0.4,0.4,0.4,0.2
		c0.1-0.2,0.3-0.8,0.7-0.9c0.4-0.2,0.6-0.1,1.2-0.6c0.6-0.5,1-1.3,1.1-1.5c0.1-0.1,0.3,0.1,0.4,0.3c0.1,0.2,0.3,0.8,0.7,1.2
		c0.4,0.4,0.5,1.1,0.7,1.2c0.2,0.1,0.2-1.6,0.1-2.4c0-0.9-0.1-1.2-0.2-1.6c-0.2-0.4-0.4-0.5-0.5-0.3
		C1445,497.4,1444.4,497.9,1444.2,498z"/>
</g>
</svg>
