<svg width="955" height="844" viewBox="0 0 955 844" fill="none" xmlns="http://www.w3.org/2000/svg">
<g id="motif-home">
<mask id="mask0" mask-type="alpha" maskUnits="userSpaceOnUse" x="0" y="0" width="955" height="844">
<rect id="Rectangle" width="955" height="844" fill="#EDEDED"/>
</mask>
<g mask="url(#mask0)">
<g id="Group 8">
<path id="Vector" d="M222.472 1143.86C470.493 1195.72 713.593 1036.69 765.449 788.671C817.305 540.65 658.282 297.55 410.26 245.694C162.239 193.837 -80.8607 352.861 -132.717 600.883C-184.574 848.904 -25.5502 1092 222.472 1143.86Z" fill="#1378C6"/>
<g id="Group">
<path id="Vector_2" d="M344.833 195.089C343.337 194.507 342.671 193.829 341.487 193.042C338.25 190.479 335.067 187.657 331.829 185.093C327.721 181.539 323.924 177.78 319.816 174.226C319.612 173.914 319.149 173.548 318.891 173.494C315.137 170.822 311.437 167.892 307.942 165.275C303.521 161.925 297.72 162.598 293.907 166.653C288.63 172.557 283.148 178.149 277.871 184.054C275.103 186.979 272.593 189.958 269.825 192.883C268.781 194.013 267.478 195.088 266.175 196.163C264.56 197.443 262.794 198.152 260.674 197.978C258.296 197.75 256.704 196.339 256.362 194.111C256.265 193.283 256.373 192.766 256.794 192.045C257.16 191.583 257.526 191.12 258.151 190.712C271.624 176.548 285.151 162.127 298.624 147.963C299.302 147.296 299.722 146.576 300.347 146.167C301.962 144.888 303.824 145.007 305.211 146.106C305.674 146.472 306.136 146.838 306.545 147.463C320.45 160.882 334.097 174.247 347.948 187.924C349.282 189.281 349.732 190.993 349.667 192.596C349.655 193.941 348.976 194.608 348.04 195.221C347.211 195.317 345.812 195.564 344.833 195.089Z" fill="#1378C6"/>
<path id="Vector_3" d="M334.233 194.221C329.362 189.159 324.124 184.56 319.198 179.757C316.94 177.668 314.628 175.836 312.315 174.005C310.207 172.486 308.099 170.967 305.732 169.395C302.387 167.347 298.447 168.141 295.68 171.066C295.001 171.733 294.581 172.454 293.956 172.862C290.822 176.25 287.947 179.691 284.812 183.079C280.321 187.8 275.83 192.522 271.285 197.501C270.607 198.168 270.445 198.942 270.025 199.663C269.389 201.417 269.581 203.074 269.774 204.732C270.501 210.275 271.229 215.817 271.957 221.36C272.739 226.645 273.263 231.875 274.044 237.16C274.634 240.787 275.763 241.832 279.54 241.813C287.665 241.625 295.532 241.383 303.604 241.453C311.987 241.319 320.112 241.132 328.496 240.998C330.928 240.967 332.909 239.225 332.879 236.793C332.944 235.189 333.214 233.898 333.28 232.295C333.79 227.28 334.353 222.007 334.604 216.939C335.167 211.666 335.419 206.597 335.982 201.325C336.888 198.28 336.233 196.256 334.233 194.221ZM321.197 229.499C321.143 229.757 321.143 229.757 321.089 230.015C320.861 232.394 319.762 233.781 317.33 233.812C316.243 233.854 315.415 233.95 314.328 233.992C310.809 234.065 307.548 234.192 304.028 234.265C300.509 234.338 296.732 234.356 293.213 234.429C292.696 234.321 292.126 234.472 291.609 234.364C289.177 234.394 287.694 232.467 287.759 230.863C287.813 230.605 287.609 230.293 287.717 229.776C287.794 226.828 287.56 224.083 287.637 221.135C287.618 217.357 288.578 214.054 290.313 210.913C291.886 208.546 293.459 206.18 295.494 204.18C300.814 199.362 306.765 199.259 312.261 203.912C315.241 206.422 317.595 209.34 319.272 212.925C320.443 215.056 321.044 217.338 321.075 219.77C321.201 223.031 321.328 226.292 321.197 229.499Z" fill="#1378C6"/>
</g>
<g id="Group_2">
<path id="Vector_4" d="M184.896 70.5477C184.853 69.4608 185.069 68.4278 185.231 67.6531C185.567 64.7584 185.074 61.96 183.806 58.9997C181.625 53.9616 178.454 49.7946 173.979 46.7028C173.054 45.9703 172.537 45.8623 171.558 45.3881C171.3 45.3341 170.321 44.8599 170.063 44.8059C167.222 44.212 165.919 45.2872 166.412 48.0856C166.701 50.5718 167.248 53.1119 168.366 55.5018C171.749 65.1037 172.958 74.7901 172.197 84.8732C172.24 85.9602 171.97 87.2514 171.754 88.2844C171.7 88.5426 171.592 89.0591 171.538 89.3173C171.364 91.4373 172.698 92.7942 174.721 92.1392C176.174 91.6344 177.369 91.0757 178.618 90.2587C180.804 88.8289 182.677 87.6034 184.659 85.8615C186.952 83.9152 188.676 82.1193 190.969 80.1731C191.648 79.5063 192.434 78.3231 192.392 77.2361C192.619 74.8579 192.019 72.576 190.277 70.5946C190.072 70.2824 189.61 69.9162 189.406 69.6039C188.222 68.8175 187.189 68.6015 185.94 69.4185C185.574 69.881 185.262 70.0853 184.896 70.5477Z" fill="#1378C6"/>
<path id="Vector_5" d="M139.328 104.145C140.565 104.674 141.502 104.061 142.385 103.706C143.267 103.352 143.892 102.943 144.775 102.589C145.657 102.234 146.798 101.934 147.573 102.096C148.606 102.312 148.96 103.194 149.315 104.077C150.571 108.383 153.28 112.184 155.677 116.189C156.086 116.813 156.494 117.438 156.957 117.804C164.526 128.011 173.055 134.916 185.439 138.852C197.822 142.789 212.721 137.279 216.251 135.861C217.392 135.561 218.329 134.948 219.47 134.647C222.118 133.584 223.818 134.478 224.893 135.781C229.915 141.413 232.859 147.959 233.413 155.621C233.54 158.882 233.721 161.885 233.073 164.984C232.533 167.566 231.735 170.095 229.903 172.407C229.171 173.332 228.751 174.053 228.223 175.29C227.845 177.098 228.199 177.98 229.953 178.617C233.826 179.426 240.017 175.6 242.712 169.155C242.766 168.897 242.82 168.639 243.078 168.693C243.132 168.435 243.391 168.489 243.649 168.543C246.952 169.503 251.204 168.505 253.1 164.589C254.157 162.115 254.439 159.478 253.687 156.626C252.323 152.837 250.647 149.252 248.659 145.871C246.003 141.812 243.036 137.957 239.702 134.565C236.831 131.539 233.96 128.513 230.83 125.433C229.551 123.818 227.959 122.407 226.68 120.792C225.346 119.435 224.067 117.819 223.045 116.258C222.228 115.009 221.357 114.019 220.282 112.716C220.907 112.307 221.531 111.899 221.843 111.694C222.78 111.082 223.458 110.415 224.191 109.49C225.968 107.436 225.938 105.004 224.508 102.818C223.691 101.569 222.562 100.524 221.432 99.4797C221.486 99.2214 221.799 99.0172 222.165 98.5547C223.522 97.2212 224.674 95.5755 225.311 93.8218C226.055 91.5516 225.97 89.3777 224.487 87.4503C224.078 86.8258 223.67 86.2013 223.003 85.5229C223.423 84.8021 223.843 84.0814 224.263 83.3607C225.89 80.736 227.001 78.0033 227.39 74.8504C227.564 72.7305 227.167 70.7608 226.2 68.9414C225.029 66.8097 223.383 65.6571 221.005 65.4294C219.66 65.4176 219.714 65.1594 219.714 65.1594C220.08 64.6969 220.188 64.1804 220.554 63.7179C223.237 58.6188 223.801 53.346 221.728 47.7915C220.664 45.1433 219.547 42.7534 217.546 40.718C216.213 39.3611 214.825 38.2624 212.759 37.8305C211.468 37.5605 210.586 37.915 210.208 39.7227C209.83 41.5304 208.684 48.2987 207.454 52.893C206.116 58.0039 204.465 63.319 201.89 67.9016C199.207 73.0008 195.263 80.2621 190.976 85.2955C187.842 88.6832 184.762 91.8126 181.015 94.2636C173.629 98.6491 169.432 99.3887 167.828 99.3229C166.741 99.3652 165.763 98.891 165.204 97.696C164.645 96.5011 164.032 95.5644 163.161 94.5737C159.731 90.3527 156.116 89.5967 151.228 92.3482C146.653 94.8955 143.002 98.1752 139.91 102.65C139.802 103.166 139.436 103.629 139.328 104.145ZM153.247 98.161C152.893 97.2783 153.313 96.5576 154.196 96.203C155.078 95.8485 156.057 96.3228 156.412 97.2055C156.766 98.0882 156.346 98.8089 155.722 99.2174C154.635 99.2597 153.602 99.0437 153.247 98.161Z" fill="#1378C6"/>
</g>
<g id="Group_3">
<path id="Vector_6" d="M104.885 262.436C104.777 262.953 104.669 263.469 104.615 263.728C103.901 268.43 103.134 273.39 103.249 277.997C103.129 279.858 103.526 281.828 103.664 283.744C103.953 286.23 104.242 288.716 104.219 291.406C104.261 292.493 104.099 293.268 103.883 294.301C103.775 294.817 103.667 295.334 103.301 295.796C102.881 296.517 102.052 296.613 101.331 296.193C100.869 295.827 100.148 295.407 99.9976 294.836C99.3308 294.158 98.7181 293.221 98.3096 292.597C96.7296 289.841 95.0956 287.343 94.0861 284.436C93.5813 282.983 92.8183 281.476 92.0553 279.969C88.1981 271.346 84.9113 262.573 82.4532 253.703C79.8448 244.263 78.3235 234.781 77.6308 225.203C77.5885 224.116 77.6003 222.771 77.2997 221.63C76.579 221.21 76.0625 221.102 75.3418 220.681C69.4139 218.094 63.5401 215.249 58.0325 211.941C55.4078 210.314 52.8371 208.429 50.5786 206.34C49.7076 205.349 48.8906 204.1 48.5901 202.959C48.2356 202.076 48.3976 201.302 49.0761 200.635C49.7005 200.226 50.0668 199.764 50.8955 199.668C52.2947 199.421 53.9521 199.229 55.3513 198.982C58.8704 198.909 62.2816 199.353 65.6387 200.055C71.8905 201.093 77.8418 200.989 84.0631 199.595C88.0024 198.801 91.5333 197.383 95.1181 195.707C101.093 192.913 106.197 189.129 111.354 185.086C113.648 183.14 115.942 181.193 118.44 179.559C119.688 178.742 120.937 177.925 122.132 177.367C123.64 176.604 124.877 177.132 125.952 178.435C126.361 179.059 126.715 179.942 126.553 180.717C126.391 181.491 126.229 182.266 125.809 182.987C124.332 186.182 122.339 189.269 120.142 192.044C116.792 196.465 113.388 201.144 109.833 205.252C109.101 206.177 108.939 206.952 109.239 208.093C111.524 219.082 114.066 230.126 117.233 240.76C118.49 245.066 120.262 249.479 121.776 253.839C124.504 261.417 127.232 268.995 129.078 276.928C129.529 278.64 129.667 280.555 129.86 282.213C129.956 283.041 129.74 284.074 129.524 285.107C129.254 286.399 128.059 286.957 127.08 286.483C126.101 286.009 124.864 285.481 124.197 284.802C122.605 283.391 120.809 281.668 119.272 279.999C114.917 275.045 110.928 269.629 106.885 264.472C105.906 263.997 105.552 263.115 104.885 262.436Z" fill="#1378C6"/>
<path id="Vector_7" d="M67.9337 287.054C69.8259 289.606 71.1476 292.308 71.8989 295.16C72.4999 297.442 73.155 299.466 72.9273 301.844C72.7113 302.877 72.9578 304.276 71.8709 304.319C71.0421 304.415 70.6336 303.79 70.4834 303.22C68.7531 299.893 66.0862 297.179 63.6774 294.52C63.0107 293.841 62.344 293.163 61.6772 292.484C59.4916 293.914 57.3059 295.344 55.1203 296.773C54.9043 297.806 55.571 298.485 55.9255 299.368C58.2568 304.976 59.2429 310.573 59.088 316.47C58.9683 318.332 58.5903 320.14 58.4166 322.26C58.2007 323.292 58.0387 324.067 57.3602 324.734C56.6818 325.401 55.6488 325.185 55.4985 324.614C55.09 323.99 54.9398 323.419 54.8435 322.591C54.543 321.45 54.5007 320.363 54.2002 319.222C53.6109 315.595 52.7634 311.913 51.0331 308.587C50.1199 306.509 48.6361 304.582 47.4106 302.708C47.1524 302.654 47.0022 302.084 46.9482 302.342C46.6359 302.546 46.3777 302.492 46.0654 302.697C42.4266 304.631 38.8958 306.049 35.1067 307.413C34.224 307.768 33.3952 307.864 32.3083 307.906C30.1344 307.991 28.6929 307.15 28.0379 305.127C27.3828 303.103 27.2983 300.929 27.472 298.809C27.4955 296.119 27.7772 293.482 28.0588 290.846C28.1903 287.639 28.634 284.228 28.7654 281.021C28.8851 279.159 28.8006 276.985 28.662 275.07C28.4812 272.067 27.4717 269.161 26.204 266.2C24.8822 263.498 22.666 262.496 19.8676 262.989C19.0389 263.085 18.1562 263.44 17.2735 263.794C14.9916 264.395 12.7096 264.996 10.4277 265.597C9.54502 265.952 6.69263 266.703 6.33812 265.82C5.98362 264.937 8.27726 262.991 9.21397 262.379C12.4443 259.82 15.8789 257.573 19.3135 255.326C24.9337 251.65 30.8662 247.769 35.9277 242.897C39.6322 239.359 43.0785 235.768 46.3206 231.863C48.464 229.347 50.9196 226.626 53.3212 224.163C53.6875 223.7 54.3659 223.034 54.9904 222.625C55.6149 222.217 56.3473 221.292 57.0681 221.712C57.7888 222.132 57.6808 222.649 57.5728 223.165C57.3568 224.198 57.1409 225.231 56.9249 226.264C55.3825 231.063 53.6359 235.549 51.5771 240.24C51.0489 241.477 50.2624 242.66 49.9925 243.951C49.5182 244.93 49.3023 245.963 49.3445 247.05C49.0746 248.341 49.6333 249.536 51.0748 250.377C51.5373 250.743 52.0538 250.851 52.5163 251.217C57.3571 253.847 62.198 256.476 66.9309 259.622C70.7388 262.035 74.1805 264.911 77.256 268.249C77.6645 268.874 78.127 269.24 78.7937 269.918C80.1272 271.275 80.2657 273.191 79.8878 274.999C79.5638 276.548 78.7774 277.731 77.9909 278.915C76.364 281.539 74.0704 283.486 72.035 285.486C69.3446 285.462 68.6121 286.387 67.9337 287.054Z" fill="#1378C6"/>
<path id="Vector_8" d="M174.039 188.22C175.319 189.835 176.544 191.708 177.77 193.582C181.963 199.31 185.843 205.242 189.778 210.916C192.842 215.6 195.852 220.542 198.861 225.484C201.054 229.176 203.193 233.127 204.503 237.175C204.857 238.057 205.158 239.198 205.254 240.027C205.35 240.856 205.447 241.685 205.285 242.459C205.165 244.321 203.916 245.138 202.108 244.76C201.075 244.544 200.355 244.124 199.376 243.65C197.73 242.497 196.342 241.398 194.955 240.3C192.03 237.532 189.159 234.506 186.233 231.738C184.437 230.015 182.695 228.033 180.899 226.31C180.028 225.319 178.845 224.533 177.92 223.8C177.458 223.434 176.737 223.014 175.908 223.11C175.854 223.369 175.746 223.885 175.692 224.143C175.789 224.972 175.885 225.801 175.981 226.629C177.622 234.25 178.693 242.021 179.193 249.942C179.331 251.857 179.416 254.031 179.242 256.151C179.285 257.238 179.069 258.271 178.853 259.304C178.529 260.853 177.388 261.154 176 260.055C175.334 259.377 174.721 258.44 174.312 257.816C172.528 254.747 171.056 251.475 169.638 247.944C166.748 241.14 164.17 234.133 161.28 227.329C159.658 223.486 158.24 219.955 156.618 216.112C156.263 215.229 155.909 214.347 155.554 213.464C154.587 211.645 152.352 206.865 150.568 203.796C149.997 203.947 149.427 204.097 148.598 204.193C143.722 205.599 138.9 206.748 133.777 206.755C131.862 206.893 130.054 206.515 128.192 206.395C125.814 206.168 123.652 204.907 121.49 203.646C121.027 203.28 120.769 203.226 120.565 202.914C119.898 202.236 120.06 201.461 120.889 201.365C122.03 201.064 122.912 200.71 123.999 200.667C126.798 200.174 129.65 199.423 132.448 198.93C134.989 198.383 137.378 197.265 139.876 195.631C149.448 189.816 157.685 182.644 164.848 174.169C167.778 170.469 170.503 166.457 172.713 162.337C174.027 159.916 175.342 157.496 177.173 155.183C177.852 154.517 178.272 153.796 179.208 153.183C179.833 152.775 180.608 152.937 180.704 153.765C180.854 154.336 181.209 155.219 181.101 155.735C181.035 157.338 180.915 159.2 180.85 160.804C180.082 165.764 179.002 170.929 177.46 175.728C176.392 179.547 175.065 183.313 173.534 186.766C174.201 187.445 174.147 187.703 174.039 188.22Z" fill="#1378C6"/>
<path id="Vector_9" d="M19.7614 215.799C17.2752 216.088 15.3478 217.571 13.6247 219.367C11.7935 221.68 10.4249 224.358 9.77695 227.457C8.87079 230.502 9.25582 233.817 10.2653 236.723C11.1246 239.059 12.8666 241.041 15.1368 241.785C19.1607 243.165 22.7338 242.834 26.2764 240.071C29.5067 237.512 31.2956 234.113 31.1265 229.765C30.9457 226.762 30.7649 223.76 29.4431 221.057C27.5626 217.16 23.959 215.059 19.7614 215.799ZM13.7468 229.096C13.6506 228.267 14.0168 227.805 14.6413 227.396C15.3197 226.729 16.1485 226.633 17.4397 226.903C16.395 228.032 15.4043 228.903 14.1013 229.979C13.8971 229.666 13.6929 229.354 13.7468 229.096ZM25.4029 227.49C25.6494 228.889 25.3255 230.439 25.0555 231.73C24.9475 232.246 24.5273 232.967 24.4193 233.484C23.5789 234.925 22.3839 235.484 20.8345 235.16C19.5432 234.89 18.252 234.62 16.8646 233.521C18.4797 232.242 19.7287 231.425 21.3439 230.145C22.6468 229.07 24.0037 227.737 25.3606 226.403C25.5109 226.974 25.4569 227.232 25.4029 227.49ZM20.2615 223.72C19.5408 223.3 19.6488 222.783 20.015 222.321C20.8554 220.879 21.9001 219.75 24.2783 219.978C22.6631 221.257 21.6184 222.386 20.2615 223.72Z" fill="#1378C6"/>
<path id="Vector_10" d="M80.7689 156.05C79.5739 156.609 78.6372 157.222 77.6465 158.093C75.7191 159.576 73.996 161.372 72.7893 163.276C70.1717 166.772 69.0496 170.85 69.2186 175.198C69.3032 177.372 69.9582 179.395 71.4419 181.323C75.3344 185.91 81.4782 187.464 86.9364 184.562C87.2487 184.358 87.8192 184.208 88.1314 184.004C90.317 182.574 92.6107 180.628 93.6671 178.153C94.8315 175.162 95.7377 172.117 95.8691 168.911C95.9888 167.049 95.8503 165.133 95.4535 163.163C93.5425 156.834 86.6896 153.515 80.7689 156.05ZM74.3998 168.465C74.0453 167.582 74.7238 166.915 75.4023 166.248C76.6512 165.431 78.1044 164.927 79.8041 165.821C79.8041 165.821 79.1796 166.23 78.6091 166.38C76.9517 166.572 75.7568 167.131 74.7121 168.26C74.6581 168.519 74.2918 168.981 74.3998 168.465ZM88.0021 169.152C87.6242 170.96 86.988 172.714 86.0935 174.414C85.6733 175.134 85.0488 175.543 84.6286 176.263C83.6379 177.134 82.551 177.177 81.2598 176.907C79.5061 176.271 78.1186 175.172 77.0973 173.611C78.9168 172.643 81.1447 172.301 82.9101 171.592C84.6755 170.883 86.495 169.915 88.0561 168.894C87.7979 168.84 87.7439 169.098 88.0021 169.152ZM89.2557 161.868C87.7485 162.631 86.2953 163.135 84.7881 163.898C84.4336 163.016 85.0581 162.607 85.6826 162.199C86.9855 161.123 88.0725 161.081 89.2557 161.868C89.2557 161.868 89.3097 161.609 89.2557 161.868Z" fill="#1378C6"/>
<path id="Vector_11" d="M150.743 153.97C147.902 153.376 145.212 153.352 142.768 154.728C142.143 155.136 141.261 155.491 140.582 156.158C137.298 158.975 134.939 162.525 133.816 166.603C132.964 169.389 132.887 172.338 133.692 174.932C134.594 178.355 136.852 180.444 140.209 181.146C145.062 182.43 149.626 181.228 153.33 177.69C155.053 175.894 156.777 174.098 157.316 171.516C158.385 167.696 158.366 163.919 157.26 160.184C155.992 157.223 154.046 154.93 150.743 153.97ZM137.648 166.325C138.488 164.884 139.683 164.325 141.395 163.874C141.437 164.961 138.885 166.854 137.582 167.929C137.324 167.875 137.594 166.584 137.648 166.325ZM150.079 164.882C150.217 166.797 149.785 168.863 148.891 170.563C147.576 172.983 146.381 173.542 143.745 173.26C142.454 172.99 141.733 172.57 140.345 171.471C141.906 170.45 143.726 169.483 145.341 168.203C146.902 167.182 148.259 165.849 149.874 164.569C149.928 164.311 150.079 164.882 150.079 164.882ZM149.717 158.876C148.318 159.123 147.123 159.681 146.39 160.606C146.078 160.811 146.024 161.069 145.766 161.015L145.508 160.961L145.303 160.649C145.303 160.649 145.357 160.391 145.411 160.132C145.94 158.895 147.135 158.336 148.33 157.778C149.47 157.477 150.557 157.435 151.741 158.221C151.062 158.888 150.287 158.726 149.717 158.876Z" fill="#1378C6"/>
</g>
<g id="Group_4">
<path id="Vector_12" d="M724.582 419.494C724.636 419.236 724.636 419.236 724.948 419.032C725.002 418.774 725.314 418.569 725.422 418.053C726.155 417.128 726.629 416.149 727.361 415.224C727.674 415.02 727.728 414.761 728.04 414.557C718.569 414.733 706 414.262 699.64 413.74C697.004 413.459 694.572 413.489 692.193 413.262C691.935 413.208 691.107 413.304 691.203 414.133C691.029 416.253 691.222 417.91 691.306 420.084C691.456 420.654 691.715 420.708 692.231 420.816C693.006 420.978 704.681 423.15 716.151 425.009C717.79 421.039 721.525 419.933 724.582 419.494Z" fill="#1378C6"/>
<g id="Group_5">
<g id="Group_6">
<path id="Vector_13" d="M857.427 476.379C856.652 476.217 856.189 475.851 855.781 475.227C854.76 473.665 853.738 472.104 852.663 470.801C849.846 467.517 846.339 466.245 841.991 466.414C841.162 466.51 840.333 466.606 839.246 466.648C837.709 464.979 836.225 463.052 833.955 462.308C831.684 461.563 829.619 461.132 827.348 460.387C826.081 457.427 824.501 454.671 823.233 451.71C821.911 449.008 820.169 447.027 817.803 445.454C817.082 445.034 816.361 444.614 815.953 443.989C815.802 443.419 815.652 442.848 815.76 442.332C815.622 440.416 815.225 438.446 815.086 436.531C814.293 432.591 812.929 428.802 810.004 426.034C808.67 424.677 807.229 423.837 806.207 422.276C805.444 420.769 805.306 418.853 804.855 417.142C803.653 412.578 800.944 408.777 796.824 406.568C795.845 406.094 795.49 405.211 794.823 404.532C792.48 400.269 789.243 397.705 784.703 396.217C783.207 395.635 781.766 394.794 780.636 393.75C779.507 392.705 778.378 391.66 776.937 390.82C774.624 388.989 771.633 387.824 768.534 387.176C765.177 386.475 762.012 387.43 760.794 390.679C760.74 390.937 760.578 391.712 760.266 391.916C759.695 392.067 759.383 392.271 758.867 392.163C754.873 393.215 751.084 394.579 747.854 397.138C743.429 400.255 739.874 404.364 736.782 408.839C734.897 411.409 732.796 415.013 730.341 417.734C729.296 418.863 728.768 420.1 727.981 421.284C727.615 421.746 727.195 422.467 726.829 422.929C722.793 422.894 719.574 424.108 719.173 428.606C716.729 429.982 714.285 431.357 712.153 432.529C709.71 433.905 707.524 435.334 705.338 436.764C703.153 438.194 701.075 439.107 698.835 440.795C698.523 440.999 698.469 441.258 698.619 441.828C699.382 443.335 699.887 444.789 700.908 446.35C701.113 446.662 701.629 446.77 701.941 446.566C704.019 445.652 706.409 444.535 708.487 443.622C710.876 442.504 713.525 441.441 715.861 440.581C718.25 439.464 720.845 438.659 723.493 437.595C725.805 439.426 728.592 440.278 731.595 440.098C731.853 440.152 732.369 440.26 732.886 440.368C734.952 440.8 735.564 441.736 735.186 443.544C734.797 446.697 734.719 449.645 734.9 452.648C735.219 457.566 736.884 462.496 738.602 467.168C739.816 470.387 741.396 473.143 743.493 476.007C746.923 480.228 750.719 483.987 755.248 486.82C755.71 487.187 756.227 487.295 756.689 487.661C755.806 488.015 754.924 488.37 754.299 488.778C746.559 492.281 738.26 494.589 729.961 496.897C727.367 497.702 725.085 498.303 722.803 498.904C722.491 499.108 721.92 499.259 722.017 500.087C722.672 502.111 723.381 503.876 724.348 505.696C724.552 506.008 725.069 506.116 725.585 506.224C726.672 506.182 752.428 501.594 764.246 499.213C766.216 498.817 766.678 499.183 767.387 500.948C768.247 503.284 769.73 505.212 771.947 506.214C772.926 506.688 773.334 507.313 773.376 508.4C773.461 510.574 773.491 513.006 773.576 515.18C773.564 516.525 773.24 518.074 772.4 519.516C769.547 520.267 766.857 520.244 764.113 520.478C761.422 520.455 758.732 520.432 755.987 520.666C755.729 520.612 755.417 520.817 755.309 521.333C754.985 522.883 755.081 523.711 754.757 525.261C754.595 526.035 755.37 526.197 755.628 526.251C757.899 526.996 760.169 527.74 762.493 528.226C770.186 530.104 773.081 530.439 779.032 530.336C781.206 530.252 783.079 529.026 784.232 527.38C785.019 526.197 785.859 524.756 786.387 523.518C787.023 521.765 787.714 519.753 788.35 517.999C788.512 517.224 788.878 516.762 789.04 515.987C790.439 515.741 791.58 515.44 793.033 514.935C793.496 515.302 793.958 515.668 794.421 516.034C796.679 518.123 799.616 519.546 802.715 520.194C806.072 520.896 809.537 521.081 812.401 518.985C813.639 519.513 814.618 519.987 815.651 520.203C818.9 521.422 822.365 521.607 825.133 518.682C825.133 518.682 825.187 518.424 825.445 518.478C826.748 517.402 828.147 517.156 829.697 517.48C831.246 517.804 832.483 518.332 833.925 519.172C836.033 520.691 838.087 522.469 840.141 524.246C842.604 526.647 845.553 526.725 848.459 525.715C851.936 524.555 854.025 522.297 854.727 518.94C855.807 513.775 856.575 508.814 857.396 503.596C857.612 502.563 857.828 501.53 857.786 500.443C858.615 500.346 858.981 499.884 859.552 499.734C862.146 498.928 863.611 497.078 863.376 494.334C863.334 493.247 863.754 492.526 864.174 491.806C866.287 486.857 863.162 477.309 857.427 476.379ZM850.034 505.291C849.043 506.162 847.548 505.579 846.731 504.33C845.914 503.082 845.926 501.736 846.916 500.865C847.907 499.994 849.198 500.264 850.015 501.513C851.091 502.816 850.971 504.678 850.034 505.291ZM850.999 495.52C849.858 495.82 849.083 495.658 848.212 494.668C847.546 493.989 847.191 493.106 846.578 492.17C846.02 490.975 845.461 489.78 844.59 488.789C842.902 486.549 840.578 486.063 838.242 486.923C835.648 487.728 834.741 490.773 836.483 492.754C836.946 493.121 837.667 493.541 838.183 493.649C838.7 493.757 839.528 493.661 840.411 493.306C840.399 494.651 839.925 495.63 838.934 496.501C836.587 498.706 833.068 498.778 830.605 496.377C826.238 492.769 824.747 485.719 827.689 480.673C832.581 471.454 845.475 470.376 851.818 478.711C854.377 481.941 855.687 485.988 855.34 490.228C855.37 492.66 853.539 494.973 850.999 495.52Z" fill="#1378C6"/>
</g>
</g>
</g>
<g id="Group_7">
<path id="Vector_14" d="M821.204 791.435C820.429 791.273 819.654 791.111 818.88 790.949C817.33 790.625 815.835 790.043 813.973 789.923C811.336 789.641 808.808 788.843 806.021 787.991C803.235 787.139 800.394 786.545 797.553 785.951C795.746 785.573 794.196 785.249 792.389 784.871C789.548 784.277 786.707 783.683 783.867 783.089C783.092 782.927 782.317 782.765 781.596 782.345C780.359 781.817 780.059 780.676 780.533 779.697C781.061 778.46 781.902 777.018 782.946 775.889C783.991 774.76 785.132 774.459 786.369 774.987C788.123 775.624 789.93 776.002 791.684 776.638C797.053 778.03 802.422 779.422 807.737 781.072C809.803 781.504 812.074 782.248 814.139 782.68C816.98 783.274 819.767 784.126 822.511 783.892C823.34 783.795 823.802 784.162 824.157 785.044C824.458 786.185 824.446 787.531 823.972 788.509C823.551 789.23 823.335 790.263 822.657 790.93C822.603 791.188 821.978 791.597 821.204 791.435Z" fill="#1378C6"/>
<path id="Vector_15" d="M830.735 825.771C830.477 825.717 830.219 825.663 829.96 825.609C828.411 825.285 827.12 825.015 825.624 824.433C822.838 823.581 820.051 822.728 817.523 821.93C814.736 821.078 812.003 819.968 809.529 818.911C807.829 818.017 806.075 817.381 804.117 816.432C803.397 816.012 802.88 815.904 802.213 815.226C801.547 814.547 800.88 813.869 801.096 812.836C801.366 811.545 801.582 810.511 801.852 809.22C802.068 808.187 802.95 807.833 803.929 808.307C804.446 808.415 805.167 808.835 805.683 808.943C812.494 811.176 819.358 813.15 826.061 815.899C826.836 816.061 827.61 816.223 828.073 816.589C830.289 817.592 832.559 818.336 834.991 818.305C835.25 818.359 835.508 818.413 836.024 818.521C837.52 819.104 838.283 820.611 836.98 821.686C835.257 823.482 833.125 824.653 831.047 825.567C831.252 825.879 830.993 825.825 830.735 825.771Z" fill="#1378C6"/>
<path id="Vector_16" d="M826.035 777.35C825.981 777.609 826.185 777.921 826.077 778.437C826.065 779.782 825.441 780.191 824.096 780.179C823.579 780.071 823.009 780.222 822.492 780.114C814.949 778.806 807.406 777.498 799.863 776.191C796.506 775.489 793.461 774.583 790.158 773.623C789.383 773.461 788.662 773.04 788.2 772.674C787.275 771.942 786.974 770.801 787.965 769.93C788.644 769.263 789.268 768.855 789.688 768.134C790.313 767.725 790.991 767.059 791.616 766.65C792.348 765.725 793.177 765.629 794.156 766.103C794.931 766.265 795.651 766.685 796.168 766.793C797.663 767.375 799.417 768.012 800.966 768.336C804.84 769.145 808.401 770.16 812.221 771.228C814.029 771.606 815.836 771.984 817.644 772.362C819.452 772.74 821.001 773.064 822.497 773.646C823.218 774.066 823.938 774.486 824.659 774.906C825.842 775.693 825.842 775.693 826.035 777.35Z" fill="#1378C6"/>
<path id="Vector_17" d="M840.018 817.47C839.502 817.362 839.502 817.362 838.985 817.254C832.121 815.28 825.256 813.305 818.758 810.869C815.767 809.704 812.98 808.852 809.935 807.946C808.182 807.31 806.686 806.728 805.245 805.887C803.803 805.047 803.653 804.476 803.977 802.927C804.193 801.894 804.409 800.861 804.883 799.882C805.357 798.903 805.928 798.753 806.961 798.969C807.219 799.023 807.219 799.023 807.477 799.077C810.618 800.811 814.03 801.255 817.225 802.732C818.462 803.26 819.699 803.788 820.936 804.316C824.336 806.105 827.789 807.636 831.609 808.704C833.621 809.394 835.741 809.568 837.807 810C839.356 810.324 840.647 810.594 842.197 810.918C842.713 811.026 843.434 811.446 843.842 812.07C844.305 812.437 844.455 813.007 844.293 813.782C843.711 815.277 843.237 816.256 841.676 817.278C840.901 817.116 840.589 817.32 840.018 817.47Z" fill="#1378C6"/>
<path id="Vector_18" d="M820.034 830.541C813.092 831.516 806.528 830.682 799.76 829.537C797.952 829.159 797.027 828.426 796.889 826.511C796.654 823.766 797.194 821.184 798.455 819.022C798.983 817.785 800.124 817.484 801.673 817.808C802.448 817.97 803.223 818.132 803.685 818.498C804.922 819.026 806.16 819.555 807.397 820.083C812.238 822.712 817.499 824.621 822.556 826.217C823.535 826.691 824.88 826.703 825.913 826.919C826.429 827.027 826.946 827.135 827.408 827.501C828.129 827.921 828.117 829.267 827.235 829.621C826.922 829.825 826.352 829.976 826.094 829.922C823.92 830.006 821.95 830.403 820.034 830.541Z" fill="#1378C6"/>
<path id="Vector_19" d="M844.705 778.289C844.856 778.86 844.64 779.893 844.166 780.872C843.518 783.971 842.558 787.274 841.91 790.373C840.938 795.021 839.191 799.508 837.444 803.994C837.283 804.769 836.862 805.489 836.184 806.156C835.397 807.339 833.944 807.844 832.707 807.316C831.728 806.842 830.653 805.539 831.289 803.785C831.871 802.29 832.195 800.74 832.519 799.191C833.653 793.768 834.787 788.344 836.179 782.975C836.611 780.909 837.301 778.898 837.991 776.886C838.099 776.369 838.207 775.853 838.519 775.648C839.726 773.744 841.954 773.402 843.438 775.329C844.212 775.491 844.513 776.632 844.705 778.289Z" fill="#1378C6"/>
<path id="Vector_20" d="M804.136 790.561C804.082 790.819 804.028 791.078 803.974 791.336C801.891 798.717 799.551 806.044 797.523 813.167C796.67 815.954 796.335 818.848 795.741 821.689C795.525 822.722 795.255 824.013 794.781 824.992C794.306 825.971 793.166 826.271 792.241 825.539C791.316 824.807 790.703 823.87 789.778 823.137C789.111 822.459 789.015 821.63 789.177 820.855C789.231 820.597 789.231 820.597 789.285 820.339C791.841 811.979 794.14 803.565 796.642 795.463C796.912 794.172 797.494 792.677 797.764 791.385C797.872 790.869 797.926 790.611 798.034 790.094C798.67 788.34 799.607 787.728 801.619 788.418C802.136 788.526 803.114 789 803.373 789.054C804.093 789.474 804.244 790.045 804.136 790.561Z" fill="#1378C6"/>
<path id="Vector_21" d="M808.592 760.227C811.702 759.53 814.801 760.178 818.158 760.879C820.483 761.365 822.753 762.11 825.077 762.595C826.885 762.973 828.164 764.589 828.927 766.096C829.744 767.345 829.42 768.894 828.171 769.711C827.234 770.324 826.46 770.162 825.685 770C823.619 769.568 821.607 768.878 819.541 768.446C815.409 767.582 810.965 766.922 806.671 766.833C804.551 766.659 802.227 766.174 800.161 765.742C799.645 765.634 799.128 765.526 798.666 765.159C797.945 764.739 797.849 763.91 798.473 763.502C799.464 762.631 800.401 762.018 801.542 761.718C803.619 760.804 806.105 760.516 808.592 760.227Z" fill="#1378C6"/>
<path id="Vector_22" d="M823.392 801.595C823.446 801.337 823.608 800.562 823.716 800.046C825.138 797.109 825.474 794.214 826.122 791.115C827.244 787.037 828.108 782.905 828.972 778.773C829.134 777.999 829.35 776.966 829.512 776.191C829.944 774.125 830.322 772.317 831.012 770.305C831.174 769.531 831.594 768.81 832.273 768.143C833.684 766.551 836.47 767.404 836.867 769.373C836.963 770.202 837.06 771.031 836.639 771.752C835.517 775.829 834.395 779.907 833.069 783.673C831.472 788.73 830.338 794.153 829.259 799.318C828.935 800.867 828.665 802.158 827.362 803.234C826.683 803.9 825.801 804.255 824.822 803.781C824.305 803.673 823.638 802.994 823.392 801.595Z" fill="#1378C6"/>
<path id="Vector_23" d="M777.833 792.609C777.845 791.264 777.857 789.918 778.181 788.369C778.138 787.282 778.612 786.303 779.087 785.324C779.819 784.399 780.702 784.045 781.735 784.261C783.488 784.897 784.984 785.479 786.738 786.115C787.512 786.277 787.921 786.902 787.759 787.676C787.909 788.247 787.747 789.022 787.639 789.538C787.477 790.313 787.315 791.087 787.153 791.862C785.611 796.661 784.069 801.459 782.58 806C782.418 806.775 782.256 807.549 782.094 808.324C781.986 808.84 781.932 809.099 781.824 809.615C781.716 810.132 781.092 810.54 780.575 810.432C780.059 810.324 779.801 810.27 779.596 809.958C779.392 809.646 779.188 809.333 779.296 808.817C778.052 803.166 777.96 795.87 777.833 792.609Z" fill="#1378C6"/>
<path id="Vector_24" d="M792.473 787.045C792.473 787.045 792.989 787.153 793.247 787.207C795.313 787.639 795.722 788.263 795.032 790.275C793.586 795.902 791.935 801.217 790.489 806.845C789.475 810.406 788.977 814.075 787.963 817.637C787.855 818.153 787.435 818.874 787.069 819.337C786.649 820.057 785.562 820.1 784.895 819.421C783.507 818.322 782.798 816.557 782.606 814.9C782.456 814.329 782.822 813.867 782.876 813.608C783.944 809.789 785.27 806.023 786.285 802.462C786.446 801.687 786.608 800.912 786.716 800.396C787.731 796.834 788.691 793.531 789.447 789.916C789.555 789.399 789.663 788.883 790.029 788.42C790.761 787.495 791.386 787.087 792.473 787.045Z" fill="#1378C6"/>
<path id="Vector_25" d="M848.678 791.519C849.009 795.092 848.878 798.299 848.122 801.914C847.906 802.947 847.69 803.98 847.474 805.013C847.312 805.788 847.096 806.821 846.934 807.595C846.718 808.628 845.781 809.241 844.898 809.596C843.187 810.046 841.692 809.464 840.562 808.419C840.1 808.053 839.95 807.483 840.058 806.966C839.961 806.138 840.123 805.363 840.489 804.9C841.612 800.822 842.938 797.057 844.06 792.979C844.384 791.429 844.708 789.88 845.032 788.331C845.14 787.814 845.248 787.298 845.614 786.835C846.034 786.114 846.863 786.018 847.326 786.384C848.046 786.805 848.455 787.429 848.551 788.258C848.335 789.291 848.377 790.378 848.678 791.519Z" fill="#1378C6"/>
<path id="Vector_26" d="M823.073 796.676C823.061 798.022 822.275 799.205 821.284 800.076C820.972 800.28 820.401 800.43 819.885 800.322C817.098 799.47 813.999 798.822 811.212 797.97C809.975 797.442 808.738 796.914 807.813 796.181C806.426 795.083 806.287 793.167 807.644 791.833C808.322 791.167 808.839 791.275 809.614 791.437C811.68 791.869 813.692 792.559 815.758 792.991C817.511 793.627 819.265 794.263 821.073 794.641C821.331 794.695 821.589 794.749 822.106 794.857C822.622 794.965 823.031 795.589 823.073 796.676Z" fill="#1378C6"/>
</g>
<g id="Group_8">
<path id="Vector_27" d="M869.47 851.928C872.345 848.487 875.834 845.982 880.29 845.296C882.205 845.158 883.605 844.911 885.617 845.601C888.037 846.916 889.317 848.531 889.767 850.243C891.228 854.86 885.326 861.173 881.429 863.054C879.921 863.817 878.21 864.268 876.294 864.406C873.808 864.695 871.484 864.209 869.43 862.432C867.634 860.709 866.979 858.685 867.26 856.049C867.789 854.811 868.371 853.316 869.47 851.928Z" fill="#1378C6"/>
</g>
<g id="Group_9">
<path id="Vector_28" d="M-43.2493 291.57C-43.7658 291.462 -44.078 291.666 -44.5945 291.558C-52.0952 291.337 -59.6922 290.288 -67.2353 288.98C-70.1299 288.645 -72.8203 288.621 -75.823 288.802C-77.4804 288.995 -78.9336 289.499 -80.1825 290.316C-83.0466 292.413 -86.439 295.746 -89.1106 299.5C-89.681 299.651 -90.1975 299.543 -90.4558 299.489C-91.801 299.477 -92.8879 299.519 -94.2871 299.766C-96.2568 300.162 -97.0972 301.604 -96.7005 303.574C-96.4 304.715 -95.583 305.963 -94.658 306.696C-93.0663 308.107 -91.3665 309.001 -89.3006 309.433C-88.7841 309.541 -88.3216 309.907 -87.5469 310.069C-90.6387 314.544 -93.6765 318.761 -97.8436 321.932C-103.992 326.846 -108.495 332.912 -111.868 340.023C-114.822 346.414 -117.829 353.062 -120.578 359.765C-122.583 364.197 -124.792 368.317 -127.776 372.276C-131.072 376.438 -138.612 386.721 -142.436 392.12C-144.634 394.895 -146.831 397.67 -148.824 400.758C-150.397 403.124 -152.078 406.007 -152.726 409.106C-153.59 413.238 -152.376 416.456 -149.451 419.224C-148.989 419.59 -148.784 419.903 -148.322 420.269C-142.255 424.772 -136.867 429.941 -131.113 434.648C-127.467 437.836 -123.713 440.508 -119.701 443.233C-116.356 445.28 -112.956 447.069 -109.029 447.621C-108.512 447.729 -107.425 447.687 -107.113 447.482C-107.059 447.224 -107.93 446.233 -108.134 445.921C-111.06 443.153 -114.243 440.332 -117.222 437.822C-122.256 433.535 -127.289 429.248 -132.581 424.908C-135.097 422.764 -137.356 420.675 -139.819 418.273C-141.561 416.292 -143.098 414.623 -144.84 412.641C-145.453 411.705 -146.27 410.456 -146.571 409.315C-146.925 408.432 -146.709 407.399 -145.256 406.894C-145.052 407.206 -145.106 407.465 -144.901 407.777C-143.429 411.05 -141.075 413.968 -138.354 416.423C-136.095 418.513 -133.783 420.344 -131.212 422.229C-124.887 426.786 -118.197 430.88 -111.452 434.716C-106.665 437.603 -102.136 440.437 -98.0818 444.25C-95.8233 446.339 -93.5649 448.428 -91.2524 450.259C-88.069 453.081 -84.8315 455.645 -80.8616 457.284C-79.3662 457.866 -77.6125 458.502 -76.009 458.568C-72.5439 458.753 -69.938 456.603 -69.1821 452.987C-69.1281 452.729 -69.3324 452.417 -69.5906 452.363C-70.1071 452.255 -70.5696 451.889 -71.3443 451.727C-72.8398 451.144 -74.5935 450.508 -76.0349 449.668C-88.0292 442.578 -93.6284 431.974 -92.8867 418.113C-92.7436 413.561 -91.3092 409.279 -88.5836 405.267C-80.2026 393.542 -71.3943 386.22 -65.6661 382.027C-64.4171 381.21 -63.2762 380.91 -62.2432 381.126C-61.2102 381.342 -60.1773 381.558 -59.1983 382.032C-56.7239 383.088 -54.3574 384.661 -52.3032 386.438C-49.1197 389.26 -46.1945 392.028 -43.2693 394.796C-40.5484 397.251 -37.8814 399.965 -35.4187 402.367C-34.9562 402.733 -34.752 403.045 -34.0313 403.466C-33.827 403.778 -33.5148 403.574 -33.2025 403.369C-31.1671 401.369 -29.39 399.315 -28.2256 396.324C-28.1716 396.066 -28.1176 395.807 -28.6341 395.699C-29.0966 395.333 -29.3548 395.279 -29.8713 395.171C-31.8292 394.223 -34.0454 393.22 -35.9494 392.014C-44.4362 386.196 -49.2842 378.444 -51.3221 368.854C-48.1386 371.676 -42.5347 375.813 -41.814 376.233C-38.9311 377.914 -36.1021 379.853 -33.2192 381.534C-31.2612 382.482 -29.045 383.485 -26.7748 384.229C-25.2254 384.553 -23.676 384.877 -22.0185 384.684C-18.7576 384.557 -16.41 382.353 -15.6541 378.738C-15.6001 378.479 -15.8043 378.167 -16.0626 378.113C-16.8373 377.951 -17.612 377.789 -18.3328 377.369C-22.8731 375.88 -27.1013 374.188 -31.1134 371.462C-35.3838 368.683 -39.234 365.182 -42.4057 361.015C-42.8142 360.391 -49.2 350.97 -51.9632 347.427C-51.9937 344.995 -52.0783 342.821 -52.9375 340.485C-53.7968 338.149 -54.3978 335.867 -54.9988 333.586C-56.9099 327.256 -57.025 322.65 -55.8066 319.401C-54.5342 315.894 -48.5243 309.064 -45.6602 306.968C-44.6695 306.097 -43.937 305.172 -43.5168 304.451C-42.5144 302.235 -41.7702 299.965 -41.026 297.695C-40.81 296.662 -40.7983 295.316 -40.8406 294.229C-40.2584 292.734 -41.3876 291.689 -43.2493 291.57ZM-65.5636 299.033C-67.491 300.517 -68.848 301.85 -70.7754 303.334C-71.8929 300.944 -70.9984 299.244 -69.5875 297.653C-69.2753 297.448 -68.3926 297.094 -67.9301 297.46C-67.1553 297.622 -66.4886 298.3 -65.5636 299.033Z" fill="#1378C6"/>
</g>
<g id="Group 16">
<g id="Group_10">
<path id="Vector_29" d="M765.608 248.482C765.433 247.918 765.068 247.538 764.702 247.157C759.65 238.842 750.149 238.086 740.852 245.544C736.489 248.999 735.65 253.46 737.049 257.967C738.457 262.101 740.816 265.322 744.492 268.011C744.857 268.391 745.413 268.589 745.778 268.97C745.771 269.343 745.39 269.708 745.199 269.891C740.173 278.37 745.163 289.669 755.395 291.187C756.323 291.393 757.625 291.606 758.744 291.63C763.038 291.532 766.982 290.307 769.853 286.821C770.805 285.908 771.383 284.987 771.97 283.693C772.937 282.034 773.349 280.176 773.197 278.494C773.022 277.93 773.22 277.375 773.236 276.629C773.799 276.454 773.989 276.271 774.553 276.096C783.392 272.734 786.981 261.612 780.611 253.83C779.698 252.878 778.785 251.927 777.871 250.975C775.855 249.254 773.632 248.461 771.021 248.407C769.902 248.384 768.592 248.544 767.283 248.703C766.544 248.315 766.171 248.307 765.608 248.482Z" fill="#1378C6"/>
<path id="Vector_30" d="M797.552 273.773C799.242 273.248 800.932 272.723 802.63 271.825C805.645 270.395 807.953 267.084 807.999 264.846C808.045 262.607 807.505 261.663 806.036 260.513C805.305 259.752 804.194 259.356 803.083 258.959C797.891 257.359 793.574 258.576 789.402 261.849C788.64 262.579 788.061 263.5 787.673 264.238C787.086 265.533 787.055 267.025 787.398 268.524C788.447 271.905 790.647 273.816 794.377 273.893C795.679 274.107 796.615 273.94 797.552 273.773Z" fill="#1378C6"/>
<path id="Vector_31" d="M795.167 253.758C797.23 253.241 799.119 252.161 801.022 250.334C801.403 249.969 801.784 249.604 801.982 249.048C803.322 247.396 803.178 245.341 802.098 243.453C800.302 240.057 797.341 238.876 793.793 238.989C790.992 239.118 788.365 239.81 785.913 241.065C782.708 242.678 781.131 246.751 782.554 250.139C783.261 252.019 784.547 252.979 786.405 253.391C789.183 254.381 791.977 254.625 795.167 253.758Z" fill="#1378C6"/>
<path id="Vector_32" d="M778.54 281.776C776.834 283.047 775.684 284.516 775.455 286.564C774.853 288.604 775.561 290.484 777.213 291.825C778.491 293.157 780.158 293.752 781.833 293.973C784.063 294.392 786.309 294.065 788.563 293.366C790.634 292.476 793.086 291.22 794.807 289.203C796.528 287.186 796.057 282.885 794.032 281.537C791.46 279.618 788.681 278.627 786.245 279.137C783.626 279.456 780.246 280.505 778.54 281.776Z" fill="#1378C6"/>
<path id="Vector_33" d="M774.772 229.452C772.708 229.969 770.82 231.05 769.114 232.321C768.353 233.051 767.401 233.965 767.005 235.076C766.038 236.735 766.539 239.544 768.564 240.893C769.485 241.471 770.223 241.86 771.152 242.066C772.454 242.279 773.573 242.302 774.692 242.325C776.747 242.181 778.818 241.291 780.516 240.393C781.46 239.853 782.031 239.305 782.412 238.94C784.308 237.486 784.728 235.256 784.401 233.01C784.249 231.328 783.153 230.185 781.669 229.781C780.002 229.187 778.137 229.149 776.454 229.3C775.898 229.102 775.335 229.277 774.772 229.452Z" fill="#1378C6"/>
</g>
<g id="Group_11">
<path id="Vector_34" d="M653.497 237.952C658.583 235.632 662.755 232.359 666.205 227.952C666.594 227.214 667.165 226.666 667.553 225.928C669.112 231.744 672.179 236.846 676.388 240.851C677.666 242.184 679.135 243.334 680.977 244.492C688.71 249.503 698.37 251.569 706.806 249.691C706.6 250.62 706.212 251.358 706.196 252.104C705.579 254.89 705.334 257.684 705.273 260.668C704.331 279.121 702.643 297.559 699.281 315.776C696.742 330.278 691.424 343.789 683.884 356.508C679.634 363.51 675.019 370.132 669.665 376.366C668.904 377.096 667.952 378.01 668.119 378.946C668.112 379.319 668.485 379.327 668.858 379.334C669.977 379.358 671.096 379.381 672.405 379.221C685.88 377.261 697.202 371.151 704.354 359.17C707.645 353.454 710.197 347.349 711.637 340.848C712.461 337.133 713.657 333.426 714.48 329.712C715.226 329.727 715.972 329.742 716.718 329.758C717.305 328.464 717.518 327.162 717.914 326.051C719.911 319.748 724.48 315.364 729.231 311.171C731.889 308.987 734.912 307.183 738.109 305.943C742.624 304.171 747.093 304.636 751.911 306.229C747.921 309.692 742.195 315.917 740.602 320.736C740.198 322.22 739.969 324.268 742.39 324.505C745.006 333.329 743.399 338.893 742.614 340.743C741.037 344.815 739.095 348.507 736.414 351.81C736.033 352.175 735.264 353.279 735.439 353.843C737.137 352.945 738.462 352.039 739.969 351.324C740.875 352.649 740.098 354.125 739.702 355.237C738.536 357.452 737.561 359.484 736.396 361.699C732.915 367.598 728.514 372.918 722.651 376.715C722.27 377.081 721.706 377.256 721.699 377.629C722.239 378.573 723.556 378.04 723.152 379.525C721.645 380.24 719.947 381.138 718.066 381.845C716.178 382.926 714.107 383.816 712.219 384.896C709.013 386.509 705.99 388.313 702.595 390.108C696.93 393.35 690.756 394.155 684.604 393.841C674.723 393.45 665.071 391.011 656.591 385.985C651.613 383.083 647.016 379.816 642.807 375.81C637.312 370.845 631.429 366.618 625.172 362.384C618.36 357.951 612.119 352.97 606.449 347.442C603.344 344.206 600.612 340.977 598.641 337.018C597.743 335.32 597.584 334.01 599.099 332.922C601.947 330.555 605.906 328.585 609.75 332.21C610.845 333.352 612.314 334.502 613.41 335.644C614.545 334.921 614.758 333.619 615.155 332.508C616.13 330.476 616.739 328.063 617.897 326.221C620.791 321.616 624.233 317.582 628.041 313.929C630.135 311.919 632.404 310.474 635.229 309.226C639.561 307.263 643.847 307.538 647.904 309.861C651.04 311.606 653.795 313.715 655.789 316.555C656.694 317.88 657.6 319.205 658.505 320.53C659.069 320.355 658.902 319.419 658.536 319.038C656.604 313.213 652.594 308.652 647.433 305.56C641.351 301.889 635.383 301.765 629.528 305.19C625.751 307.351 622.522 310.083 620.024 313.576C617.344 316.879 615.029 320.563 612.531 324.057C612.142 324.795 611.381 325.526 610.802 326.447C605.61 324.847 601.118 325.5 596.405 327.828C595.652 328.186 594.708 328.726 593.954 329.084C592.439 330.172 591.137 329.959 589.66 329.182C587.08 327.636 579.21 320.196 577.947 318.117C576.859 316.602 577.834 314.569 578.984 313.1C580.316 311.822 582.014 310.924 583.157 309.828C584.481 308.922 585.791 308.763 587.275 309.167C588.204 309.373 589.315 309.769 590.046 310.53C591.888 311.688 593.563 311.909 595.626 311.392C597.689 310.875 599.562 310.541 601.633 309.65C603.894 308.578 606.163 307.132 608.067 305.305C615.293 298.737 621.424 291.027 627.372 283.127C628.331 281.841 628.926 280.174 629.147 278.499C629.78 274.967 630.595 271.625 631.228 268.093C631.418 267.91 631.434 267.164 631.053 267.529C629.926 267.879 629.173 268.237 627.482 268.762C630.202 263.593 632.532 259.163 635.609 254.749C635.99 254.383 636.371 254.018 636.751 253.653C637.132 253.287 637.886 252.93 637.528 252.176C637.354 251.613 636.798 251.415 636.25 250.843C638.748 247.35 642.334 245.372 645.182 243.005C645.015 242.068 644.84 241.505 644.665 240.941C647.855 240.075 650.672 239.2 653.497 237.952Z" fill="#1378C6"/>
<path id="Vector_35" d="M670.6 168.893C672.457 169.305 674.124 169.899 675.601 170.676C680.586 173.205 685.572 175.734 690.367 178.445C692.209 179.603 693.884 179.824 696.138 179.125C701.589 177.185 706.796 178.039 711.774 180.941C715.831 183.264 718.746 186.683 721.089 190.65C721.812 191.784 722.353 192.728 723.075 193.863C724.202 193.513 724.956 193.156 725.892 192.988C727.583 192.463 729.067 192.867 730.353 193.827C732.363 195.921 733.451 197.436 734.15 199.69C735.01 203.253 735.496 206.808 736.355 210.371C736.697 211.871 736.111 213.165 735.151 214.451C734.382 215.555 733.24 216.651 732.105 217.374C725.869 221.163 718.941 222.326 711.488 221.799C709.814 221.578 708.147 220.983 707.439 219.103C707.089 217.976 708.612 216.515 709.382 215.411C710.341 214.125 711.674 212.846 712.633 211.56C714.552 208.987 716.472 206.415 718.391 203.842C718.772 203.477 719.541 202.373 718.62 201.794C717.889 201.033 715.81 202.296 714.47 203.948C711.98 207.068 707.951 212.396 705.651 215.334C705.072 216.255 704.494 217.176 704.105 217.914C703.511 219.581 703.838 221.827 705.489 223.167C707.696 224.706 711.967 225.727 717.578 225.097C719.26 224.945 720.166 226.27 719.572 227.937C719.175 229.048 718.977 229.604 718.581 230.715C716.829 234.224 715.116 235.868 712.443 238.799C711.872 239.347 711.483 240.085 710.912 240.633C702.811 244.384 692.191 243.604 684.458 238.593C677.829 234.351 672.364 227.893 671.027 220.402C671.986 219.116 672.953 217.456 673.913 216.17C676.03 213.042 676.054 211.923 673.314 209.067C669.113 204.688 658.732 192.345 659.427 185.829C660.091 180.804 662.856 173.398 664.196 171.746C666.1 169.92 667.996 168.466 670.6 168.893ZM693.074 191.936C694.177 192.705 695.098 193.284 696.019 193.863C697.679 194.83 698.623 194.29 698.852 192.242C699.263 190.385 699.112 188.702 698.587 187.012C694.849 187.308 693.714 188.031 693.074 191.936Z" fill="#1378C6"/>
</g>
</g>
<g id="Group 17">
<path id="Vector_36" d="M479.629 116.824C481.583 137.79 501.435 141.587 515.191 149.298C527.659 156.409 538.531 166.829 540.255 171.363C541.153 166.538 548.998 154.466 560.683 144.941C572.752 135.055 591.534 125.379 589.026 104.21C584.819 65.8153 543.688 62.0966 532.71 96.6544C516.12 66.2699 476.18 78.0803 479.629 116.824Z" fill="#1378C6"/>
<path id="Vector_37" d="M597.827 156.747C587.245 160.894 588.397 171.755 586.647 179.913C584.921 187.324 581.331 194.677 579.227 196.291C581.849 196 589.249 198.099 596.013 202.604C602.958 207.302 610.916 215.391 621.318 211.052C640.426 202.88 636.065 181.279 616.481 180.85C629.209 167.811 617.104 149.14 597.827 156.747Z" fill="#1378C6"/>
<g id="Group_12">
<path id="Vector_38" d="M465.739 238.08C464.644 237.299 464.067 237.841 463.647 239.321C462.965 243.219 462.498 246.19 462.008 249.908C461.745 252.326 461.663 254.937 461.401 257.355C461.366 258.473 461.342 259.219 461.307 260.338C461.406 263.141 461.877 265.955 462.914 268.601C463.962 270.874 465.011 273.146 467.009 274.889C469.008 276.631 471.979 277.098 474.421 276.615C477.043 276.324 479.531 274.349 479.951 272.869C480.19 271.197 479.287 270.235 478.192 269.454C477.097 268.673 476.001 267.892 474.906 267.111C472.896 265.742 471.824 264.215 472.279 261.616C472.746 258.644 473.067 254.362 476.378 244.013C476.594 243.087 476.629 241.968 474.969 241.356C472.923 241.105 468.303 239.654 465.739 238.08Z" fill="#1378C6"/>
<path id="Vector_39" d="M430.186 258.801C433.193 258.149 433.828 255.742 432.984 252.916C432.466 251.593 431.947 250.27 431.429 248.948C430.718 247.805 430.188 246.856 429.67 245.533C427.91 242.118 426.332 238.895 425.523 234.95C425.039 232.509 425.063 231.763 426.444 229.38C427.622 227.551 428.787 226.094 430.687 225.034C431.252 224.865 432.202 224.335 432.045 223.397C432.057 223.024 431.13 222.808 430.757 222.796C421.458 221.757 416.406 222.159 414.156 222.461C412.472 222.595 412.425 224.087 412.763 225.217C413.282 226.54 414.935 233.311 415.78 236.137C416.094 238.014 416.589 240.082 417.276 241.971C417.771 244.039 418.266 246.108 419.134 248.188C419.978 251.014 421.907 254.995 423.363 256.16C424.616 257.879 426.987 259.634 430.186 258.801Z" fill="#1378C6"/>
<g id="Group_13">
<path id="Vector_40" d="M523.643 230.753C518.947 225.753 518.075 217.886 520.342 211.052C522.383 205.516 525.903 200.401 531.194 198.327C533.42 198.771 536.019 199.226 538.437 199.488C540.482 199.739 542.9 200.002 544.957 199.88C547.195 199.95 549.456 199.274 551.705 198.972C553.581 198.657 555.469 197.97 557.346 197.656C557.911 197.487 558.657 197.51 559.21 197.714C560.137 197.93 560.125 198.303 559.729 199.037C558.744 200.686 557.578 202.143 556.401 203.972C556.016 204.333 556.004 204.706 556.546 205.283C559.279 207.422 561.615 210.295 563.386 213.337C564.265 215.045 564.411 216.356 563.991 217.836C563.571 219.316 564.282 220.458 564.62 221.588C565.126 223.284 566.705 226.507 566.477 227.806C566.25 229.105 565.83 230.585 564.857 231.861C563.703 232.945 562.537 234.401 561.383 235.485C559.664 236.738 557.607 236.86 555.37 236.789C554.251 236.754 552.952 236.527 551.856 235.746C544.515 231.782 537.103 230.056 528.887 230.171C527.023 230.113 525.339 230.246 523.643 230.753ZM556.882 218.359C558.385 218.033 559.19 216.192 559.429 214.519C558.141 213.919 556.469 213.68 555.688 214.775C554.715 216.051 555.414 217.566 556.882 218.359Z" fill="#1378C6"/>
<path id="Vector_41" d="M335.398 91.5749C336.948 89.7571 340.415 92.2924 342.436 93.2892C344.447 94.6589 346.649 95.8479 348.659 97.2176C351.764 99.3682 355.05 101.711 358.156 103.862C361.622 106.397 364.524 109.101 367.413 112.178C369.761 114.679 371.532 117.721 373.111 120.943C373.821 122.085 374.159 123.216 374.678 124.539C375.027 125.296 375.377 126.054 375.714 127.184C376.233 128.507 376.751 129.83 377.45 131.345C377.968 132.668 378.499 133.618 379.017 134.94C379.897 136.648 380.403 138.344 381.283 140.051C381.982 141.566 382.873 142.901 383.584 144.043C384.836 145.762 385.716 147.47 387.161 149.008C388.786 150.739 390.423 152.097 392.049 153.828C395.311 156.917 399.366 158.537 403.422 160.158C405.263 160.962 411.002 162.449 412.121 162.484C414.166 162.735 416.031 162.794 418.268 162.864C421.625 162.969 425.173 162.894 428.722 162.819C431.705 162.913 434.881 162.826 437.864 162.92C442.532 162.88 446.779 164.32 451.219 165.579C455.84 167.031 460.076 168.843 464.684 170.668C466.526 171.472 468.547 172.469 470.196 173.454C472.399 174.643 474.421 175.64 476.623 176.829C478.645 177.826 480.474 179.003 482.496 180C484.698 181.189 486.708 182.559 488.73 183.555C491.667 185.141 494.615 186.353 497.371 187.746C499.946 188.947 502.521 190.148 504.916 191.157C510.824 193.209 516.54 195.441 522.664 196.567C523.591 196.783 524.144 196.987 525.071 197.202C520.694 199.865 517.39 204.054 515.553 209.035C512.889 216.604 515.218 225.636 520.444 231.586C520.444 231.586 520.444 231.586 520.252 231.767C518.171 232.635 516.464 233.515 514.733 235.14C512.437 236.934 511.056 239.317 510.047 241.712C509.447 243 509.219 244.299 508.992 245.598C508.753 247.271 508.513 248.943 508.647 250.627C508.961 252.503 509.456 254.572 510.336 256.279C511.035 257.794 511.734 259.31 512.433 260.825C513.313 262.532 514.192 264.24 514.891 265.755C515.602 266.897 515.94 268.027 516.65 269.17C517.53 270.877 518.421 272.212 519.493 273.738C520.204 274.881 520.722 276.203 521.613 277.538C522.312 279.053 523.384 280.58 524.083 282.095C524.782 283.61 525.47 285.498 525.603 287.182C525.749 288.493 525.533 289.42 524.944 290.334C523.971 291.61 520.784 292.07 519.508 291.097C517.498 289.727 515.884 287.623 515.016 285.543C513.799 282.705 512.774 279.687 511.749 276.668C510.193 272.7 506.04 268.276 504.234 266.353C502.608 264.622 500.61 262.88 499.177 260.968C495.588 256.376 491.167 248.585 490.275 247.25C489.023 245.531 487.578 243.992 485.941 242.634C484.123 241.084 481.909 240.268 479.695 239.452C476.735 238.612 473.787 237.4 470.85 235.814C468.094 234.421 465.542 232.475 463.171 230.72C458.621 227.031 453.29 224.437 447.562 222.578C439.801 220.094 431.44 218.898 426.23 218.361C421.394 217.836 406.261 218.294 404.012 218.596C400.825 219.056 398.179 220.093 395.341 221.31C393.826 222.009 392.492 222.9 391.157 223.792C389.438 225.044 388.272 226.501 387.468 228.342C387.072 229.076 386.856 230.003 386.64 230.929C386.197 233.155 387.065 235.235 387.74 237.496C388.247 239.192 388.946 240.707 388.707 242.379C388.479 243.679 388.083 244.413 386.941 245.124C385.041 246.184 383.176 246.125 381.347 244.948C378.603 243.182 377.001 240.705 376.156 237.879C375.288 235.798 375.166 233.742 375.982 231.527C378.309 222.828 381.264 217.882 382.465 215.306C384.05 212.37 385.816 209.626 388.666 208.035C390.373 207.156 392.261 206.468 393.98 205.216C395.123 204.505 396.445 203.987 397.407 203.084C399.522 201.097 400.35 198.51 400.817 195.539C401.284 192.567 401.377 189.583 401.652 186.792C401.914 184.374 401.985 182.137 402.801 179.923C403.209 178.816 403.798 177.901 404.386 176.986C403.303 175.832 402.219 174.678 400.943 173.705C398.03 171.374 394.936 168.85 392.023 166.519C389.291 164.38 386.558 162.241 384.21 159.741C382.043 157.433 379.695 154.933 377.913 152.264C376.48 150.352 375.239 148.26 373.998 146.168C373.468 145.218 371.901 141.623 371.552 140.865C371.033 139.542 370.322 138.4 369.804 137.077C368.587 134.239 367.562 131.221 366.164 128.191C365.127 125.545 363.717 122.888 362.308 120.23C361.067 118.138 359.645 115.854 358.032 113.75C356.249 111.081 353.697 109.134 350.941 107.741C348.005 106.156 345.249 104.763 342.493 103.37C340.291 102.181 338.1 100.619 336.294 98.6955C333.923 96.9412 333.859 93.0197 335.398 91.5749Z" fill="#1378C6"/>
</g>
</g>
</g>
<g id="Group_14">
<path id="Vector_42" d="M913.748 726.899C910.079 726.401 906.452 726.99 902.921 728.408C897.883 730.589 894.016 734.902 891.849 740.109C889.629 745.575 889.269 751.16 890.88 756.348C894.646 757.674 897.625 760.184 900.184 763.414C901.872 765.654 902.989 768.044 903.536 770.584C904.137 772.866 905.159 774.427 907.483 774.913C908.257 775.075 909.182 775.807 909.957 775.969C914.023 778.437 916.521 776.803 919.289 773.878C919.967 773.211 920.388 772.49 920.754 772.028C921.907 770.382 923.21 769.307 925.179 768.91C926.837 768.717 927.881 767.588 928.464 766.093C929.25 764.909 929.778 763.672 930.306 762.435C930.727 761.714 931.147 760.993 931.567 760.273C933.375 760.651 935.236 760.77 936.786 761.094C938.077 761.364 939.422 761.376 940.876 760.871C942.016 760.571 942.545 759.334 941.674 758.343C940.803 757.352 939.932 756.361 939.007 755.629C937.157 754.164 935.253 752.957 933.145 751.439C933.523 749.631 934.513 748.76 935.708 748.201C936.591 747.847 937.786 747.288 938.615 747.192C940.897 746.591 942.866 746.194 945.148 745.593C946.289 745.292 947.226 744.679 948.162 744.067C949.465 742.992 949.381 740.818 947.993 739.719C947.273 739.299 946.552 738.878 945.831 738.458C941.141 736.399 936.138 734.545 930.973 733.465C928.39 732.925 925.862 732.127 923.388 731.07C920.913 730.014 918.493 728.699 916.33 727.439C914.985 727.427 914.523 727.061 913.748 726.899ZM923.639 755.65C924.402 757.157 924.595 758.815 923.7 760.515C922.806 762.214 922.439 762.677 919.275 763.632C919.977 760.275 920.571 757.435 921.219 754.336C922.36 754.035 923.285 754.768 923.639 755.65Z" fill="#1378C6"/>
<path id="Vector_43" d="M876.557 784.888C877.043 782.564 877.271 780.186 877.186 778.012C876.963 773.922 876.428 770.037 875.322 766.302C874.571 763.45 873.507 760.801 872.756 757.949C871.35 753.073 870.202 748.251 869.312 743.483C868.915 741.513 868.83 739.339 869.004 737.219C869.244 733.496 870.816 731.129 874.552 730.024C876.005 729.519 877.146 729.218 878.599 728.714C881.247 727.65 883.012 726.941 883.606 724.1C883.66 723.842 883.714 723.584 883.973 723.638C884.489 723.746 885.51 725.307 884.928 726.803C884.292 728.556 883.043 729.373 881.536 730.136C880.341 730.695 878.888 731.2 877.693 731.759C874.162 733.177 872.589 735.543 872.92 739.116C873.39 744.605 874.279 749.373 875.686 754.249C876.46 754.411 877.289 754.315 878.064 754.477C881.475 754.92 883.595 755.094 886.952 755.796C886.555 753.826 886.159 751.857 886.278 749.995C886.205 746.476 886.865 742.032 888.45 738.32C891.091 732.134 895.69 726.896 901.665 724.103C902.547 723.748 903.688 723.448 904.571 723.093C902.559 722.403 900.805 721.767 898.793 721.076C896.523 720.332 894.307 719.33 892.091 718.327C888.175 716.431 885.616 713.2 884.564 709.207C883.963 706.925 883.62 704.697 883.019 702.415C880.056 692.093 873.659 684.017 869.1 678.751C858.089 665.668 844.557 656.909 827.513 653.345C816.925 651.131 806.38 650.005 795.78 649.136C794.177 649.07 792.627 648.746 791.078 648.422C788.495 647.883 786.387 646.364 785.324 643.716C784.711 642.779 784.41 641.638 784.11 640.497C779.879 627.214 781.18 614.548 789.302 602.77C796.326 592.379 806.156 586.618 819.091 586.627C820.437 586.639 821.782 586.651 823.235 586.146C824.118 585.792 825.259 585.491 825.937 584.824C827.606 583.287 827.522 581.113 825.93 579.702C824.08 578.237 822.068 577.547 819.894 577.631C811.307 577.453 802.965 578.674 795.376 582.747C782.069 589.668 773.85 600.617 771.289 615.445C770.035 622.73 770.127 630.027 770.735 637.431C771.193 644.265 772.113 651.465 772.571 658.299C772.752 661.302 772.933 664.305 773.114 667.307C773.198 669.481 773.024 671.601 773.163 673.517C773.074 677.811 773.189 682.417 773.358 686.765C773.492 695.148 773.572 703.79 773.447 712.119C773.478 714.551 773.563 716.725 773.593 719.157C773.581 720.503 773.57 721.848 773.816 723.247C774.147 726.82 776.772 728.447 780.249 727.287C781.702 726.782 782.693 725.911 783.479 724.728C784.265 723.545 784.848 722.05 785.43 720.554C786.282 717.767 786.306 715.077 786.383 712.128C786.341 711.041 786.352 709.696 786.568 708.663C787 706.597 788.303 705.522 790.315 706.212C791.348 706.428 792.069 706.848 792.79 707.269C797.943 709.694 803.216 710.257 808.758 709.529C811.503 709.295 814.355 708.543 816.391 706.543C822.023 701.521 824.147 695.227 822.506 687.607C821.165 681.127 817.951 675.873 812.864 671.845C812.402 671.479 810.96 670.638 811.38 669.917C811.747 669.455 815.146 671.244 816.533 672.342C821.825 676.683 824.985 682.195 826.272 688.933C827.558 695.671 826.262 701.869 821.405 707.052C820.36 708.182 817.388 710.795 817.022 711.257C823.929 714.318 828.296 717.927 831.059 721.469C830.488 721.619 830.176 721.824 829.864 722.028C825.817 723.338 821.673 723.819 817.529 724.301C812.245 725.082 807.272 725.66 801.88 726.958C796.541 727.998 789.888 731.459 785.667 734.889C783.998 736.427 782.329 737.964 780.864 739.814C779.033 742.127 778.439 744.967 779.394 748.132C780.049 750.156 781.437 751.254 783.611 751.17C784.698 751.128 785.58 750.773 786.721 750.473C789.316 749.667 791.501 748.238 793.741 746.55C795.614 745.324 797.283 743.786 799.361 742.873C812.614 736.21 824.925 736.628 840.588 744.216C845.741 746.641 850.27 749.474 855.315 752.416C855.778 752.782 856.444 753.46 856.649 753.773C857.261 754.709 857.616 755.592 857.916 756.733C861.419 764.473 863.727 772.772 865.518 780.963C865.765 782.362 866.216 784.074 866.774 785.269C867.838 787.917 870 789.177 872.744 788.943C874.348 789.008 876.017 787.471 876.557 784.888Z" fill="#1378C6"/>
</g>
</g>
</g>
</g>
</svg>
