<?xml version="1.0" encoding="utf-8"?>
<!-- Generator: Adobe Illustrator 24.0.2, SVG Export Plug-In . SVG Version: 6.00 Build 0)  -->
<svg version="1.1" id="Layer_1" xmlns="http://www.w3.org/2000/svg" xmlns:xlink="http://www.w3.org/1999/xlink" x="0px" y="0px"
	 viewBox="0 0 400 400" style="enable-background:new 0 0 400 400;" xml:space="preserve">
<style type="text/css">
	.st0{fill:#060015;}
	.st1{fill:#FFFFFF;}
</style>
<path id="XMLID_11584_" class="st0" d="M0.1,401.1H400c-8.7-33.2-39.4-82.9-44.4-97.1c-7.9-22-12.6-40.9-45.6-26.8
	c-33.1,14.2-130.4,26.8-151.6,23.6c-21.2-3.1-48,1.6-85.7,23.6c-13.5,7.9-61.2,11.5-72.6,13.2C0.2,353.9,0.1,385,0.1,401.1z"/>
<g id="XMLID_133_">
	<path id="XMLID_131_" class="st1" d="M331.2,148.3c-0.2,0.5-0.3,0.9-0.5,1.4C330.8,149.3,331.1,148.8,331.2,148.3
		C331.3,148.3,331.3,148.3,331.2,148.3C331.2,148.3,331.2,148.3,331.2,148.3z"/>
	<path id="XMLID_130_" class="st1" d="M351.6,87.6l0-0.8C351.5,87.1,351.5,87.4,351.6,87.6z"/>
	<path id="XMLID_232_" class="st1" d="M354.5,27c0,0-0.1-4.4-0.2-7.4s-0.4-4.2-0.9-4.8c-0.5-0.7-0.2-3.5-0.5-4.2
		c-0.3-0.7-3.5-2.3-5.6-2c-2.2,0.3-3.4,3.1-3.7,3.8c-0.3,0.7-1,0.4-2.9,1.9c-2,1.4-8.9,8.6-8.9,8.6s-10.5,0.6-17.5,4.5
		s-7.9,7.5-7.9,7.5s-0.7,0.5-3.1,0.9c-2.4,0.4-5.8,1.6-9.6,6.4c-3.9,4.8-6,7.7-6,7.7s-0.2-0.2-5.5,1c-5.4,1.2-12.1,5.4-12.1,5.4
		s0.5,2,4,4.4c2.3,1.6,3.9,3.1,4.7,4c-1.7,0.8-3.3,1.7-4.6,2.5c-1.1,0.3-2.4,0.7-3.8,1.1c-1.7,0.3-3.1,0.5-3.7,0.7
		c-1,0.2,0.9,0,3.6,0.4c0,0-0.1,0-0.1,0.1c-1.6,0.3-3.5,0.7-5.7,1.4c1-0.1,2.6-0.5,4.7-0.8c-1.1,0.7-2,1.4-2.6,2
		c-0.9,0.4-1.7,0.9-2,1.1c-0.3,0.1,0.3,0.1,1.2,0.1c-0.2,0.3-0.3,0.7-0.4,0.9c0.5-0.5,1-0.8,1.5-1.2c0.6-0.1,1.1-0.1,1.6-0.2
		c-1.8,1.4-3.4,2.9-4.6,4.3c-1.7,1.2-3.7,2.5-6.2,3.8c1.1-0.4,3-1.3,5.2-2.7c-0.1,0.1-0.2,0.3-0.3,0.4c-0.9,0.6-1.9,1.2-2.9,1.9
		c0.6-0.3,1.4-0.8,2.5-1.3c-1.3,1.5-2.3,2.8-2.8,3.6c1.4-1.6,2.6-2.9,3.7-4.1c0.2-0.1,0.4-0.2,0.6-0.4c-0.1,0.1-0.2,0.2-0.3,0.3
		c-0.1,0-0.2,0.1-0.3,0.1c0.1,0,0.1,0,0.2,0c-0.5,0.6-1,1.2-1.5,1.8c-0.2,0.1-0.4,0.2-0.6,0.2c0.1,0,0.3-0.1,0.5-0.1
		c-0.6,0.8-1.1,1.5-1.5,2c-1.1,0.8-2.2,1.5-2.2,1.5s0,0.2,0.1,0.3c-0.5,0.4-1.1,0.8-1.7,1.3c0.5-0.3,1.1-0.7,1.8-1.2
		c0.1,0,0.1,0,0.2,0c0,0,0.1,0,0.1,0.1c-0.7,0.7-1.4,1.5-1.9,2.2c-0.6,0.3-1.2,0.6-1.9,0.8c0.4-0.1,1-0.3,1.6-0.5
		c-0.3,0.4-0.6,0.9-0.9,1.3c-0.5,0.3-1,0.5-1.5,0.7c0.3-0.1,0.8-0.2,1.3-0.5c-0.1,0.1-0.2,0.3-0.3,0.4c-1.3,1.1-2.9,2.3-4.8,3.4
		c0.9-0.3,2.4-1.1,4.2-2.4c-0.3,0.5-0.6,0.9-0.8,1.3c-1.2,0.8-2.6,1.6-4.3,2.5c0.8-0.3,2.2-1,3.9-1.9c-0.6,0.9-1,1.7-1.3,2.3
		c-0.4,0.6-0.8,1.1-1,1.5c0.3-0.4,0.7-0.8,1-1.2c0.1,0,0.2,0,0.4,0c-0.7,0.8-1.3,1.6-1.8,2.4c-1.3,1-2.7,2.2-4.5,3.4
		c0.8-0.4,2.2-1.3,3.9-2.5c-0.4,0.7-0.8,1.4-1.1,2c-0.4,0.3-0.9,0.7-1.3,1.1c0.3-0.2,0.7-0.4,1.2-0.7c-0.3,0.7-0.5,1.2-0.7,1.6
		c-0.6,0.3-1.2,0.5-1.9,0.7c0.6,0,1.4-0.2,2.5-0.7c0,0,0,0,0,0c-1.2,0.5-2.3,1-3.3,1.6c-0.9,0.2-1.8,0.4-2.8,0.6
		c-0.6-0.1-1.1-0.3-1.8-0.4c-0.1,0-0.2,0.1-0.3,0.1c-1.5,0.6-2.7,1.5-3.6,2.3c-1.1,0.4-2.4,0.9-4,1.3c0.7-0.1,1.9-0.3,3.4-0.8
		c-0.3,0.3-0.5,0.6-0.8,0.9c-2.4,0.7-3.6,1.6-5.1,2.6c-0.1,0-0.2,0.1-0.3,0.1c0.1,0,0.1,0,0.2,0c-2,1.4-4.4,2.9-10.7,4.3
		c-11.4,2.4-14.1,0.5-23,3.4s-32.8,9.9-38.4,12.4c-0.4,0.2-0.8,0.4-1.3,0.6c-6.7,2.9-12.5,7.8-16.1,14.2c-0.4,0.7-0.8,1.4-1.1,2.1
		c-2.1,4-3.7,8.4-4.7,13.3c-1,0.7-2.2,1.5-3.4,2.2c0.5-0.2,1.2-0.5,2-1l-0.6,0.3c0.5-0.2,1.1-0.6,1.9-1.1c0,0.1,0,0.2-0.1,0.3
		c-0.6,0.4-1.3,0.8-2,1.3c0.5-0.2,1.1-0.6,2-1.1c0,0.1-0.1,0.3-0.1,0.4c0,0,0,0,0,0c-0.1,0.1-0.2,0.2-0.3,0.3
		c-0.6,0.4-1.2,0.8-1.9,1.2c0.4-0.1,0.8-0.4,1.4-0.7c-0.1,0.1-0.2,0.2-0.3,0.3c-0.6,0.4-1.3,0.9-2.1,1.5c-0.1,0.1-0.1,0.1-0.2,0.1
		c-1.2,0.7-2.6,1.5-4.3,2.4c0.4-0.1,0.9-0.4,1.5-0.7l-0.4,0.2c0.2-0.1,0.4-0.1,0.6-0.3c-0.9,0.6-1.8,1.3-2.9,2
		c0.5-0.3,1.2-0.7,2-1.2l-0.6,0.4c0.2-0.1,0.5-0.3,0.8-0.5c0.4-0.1,1-0.4,1.7-0.7c-0.3,0.2-0.7,0.4-1,0.7c-0.3,0.2-0.6,0.3-0.9,0.5
		c0.1-0.1,0.3-0.1,0.4-0.2c-0.4,0.3-0.7,0.5-1.1,0.8c0.4-0.2,0.9-0.5,1.5-0.9c-0.1,0.1-0.2,0.1-0.3,0.2c-0.4,0.3-0.8,0.7-1.3,1.1
		c-0.4,0.4-0.9,0.9-1.4,1.8c0.3-0.6,0.8-1,1.3-1.5c0.5-0.4,1.2-0.9,2.1-1.5c0.1-0.1,0.3-0.1,0.4-0.2c-0.1,0.1-0.3,0.2-0.4,0.3
		c-0.1,0-0.1,0.1-0.1,0.1c0,0,0.1,0,0.1,0c-0.7,0.5-1.4,1-2.1,1.5c0.4-0.2,0.9-0.5,1.6-0.9c-0.5,0.4-1.1,0.9-1.6,1.4
		c0.6-0.6,1.5-1.3,2.7-2.1c-0.2,0.2-0.4,0.4-0.5,0.6c-0.1,0.1-0.2,0.1-0.3,0.2c0.1,0,0.2-0.1,0.2-0.1c-0.1,0.1-0.2,0.3-0.3,0.4
		c-0.1,0.1-0.2,0.2-0.3,0.3c-0.5,0.4-1,0.9-1.5,1.6c0.3-0.4,0.8-0.8,1.4-1.2c0,0.1-0.1,0.1-0.1,0.2c0.1-0.1,0.1-0.2,0.2-0.3
		c0.3-0.2,0.6-0.5,0.9-0.7c-0.5,0.7-0.8,1.4-1,1.8c-1.3,1.3-2.8,2.8-4.6,4.4c0.5-0.4,1.2-0.9,2-1.7l-0.6,0.5c0.7-0.6,1.9-1.6,3.4-3
		v0c0,0,0,0,0,0c0.2-0.2,0.4-0.4,0.6-0.6c0,0.1,0,0.1,0,0.1c-0.1,0.1-0.2,0.3-0.4,0.4c-0.8,0.7-1.7,1.5-2.8,2.4
		c-1.1,1-2.3,2.1-3.6,3.4c-0.3,0.2-0.7,0.5-1,0.7c0.2-0.1,0.5-0.3,0.8-0.4c-0.6,0.6-1.2,1.2-1.8,1.9c-0.4,0.3-0.4,0.4,0.1,0.2
		c0.2-0.1,0.3-0.2,0.5-0.2c-1,1.1-2.3,2.3-3.7,3.9c0.3-0.3,0.8-0.8,1.4-1.4l-0.4,0.4c0.7-0.6,2.1-1.9,3.7-3.4l-0.2,0.3
		c-1,1-2.1,2.1-3.4,3.6c0.4-0.4,1.1-1,2-1.8c-0.3,0.4-0.6,0.9-0.9,1.5c-0.3,0.4-0.6,0.7-1,1.1c0.2-0.2,0.5-0.4,0.7-0.7
		c-0.2,0.3-0.3,0.6-0.4,0.9c-0.2,0.4-0.3,0.8-0.5,1.2c-0.6,0.6-1.2,1.3-1.9,2.1c0.3-0.3,0.7-0.7,1.3-1.2l-0.3,0.3
		c0.2-0.2,0.5-0.4,0.8-0.6c-0.1,0.2-0.2,0.5-0.2,0.6l-0.4,0.4c0.1-0.1,0.2-0.1,0.3-0.3c-0.3,0.3-0.5,0.6-0.8,1
		c-1.2,1.4-2.6,3-4.2,5.2l1.5-1.7l-0.4,0.5c0.3-0.3,0.8-0.9,1.4-1.5c-1,1.5-2.6,3.3-4.9,5.8c0.3-0.3,0.8-0.7,1.3-1.2l-0.3,0.4
		c0.7-0.6,1.9-1.7,3.3-3.2l-0.2,0.3c-0.8,1-1.8,2.1-3.1,3.4c0.6-0.5,1.5-1.4,2.6-2.6l-0.3,0.6c-1.6,1.5-2.6,2.3-2.1,2.1
		c0.1-0.1,0.3-0.1,0.5-0.2c-0.2,0.3-0.5,0.5-0.7,0.8c0.3-0.2,0.7-0.6,1.1-1c0.2-0.1,0.4-0.2,0.6-0.3c-0.1,0.2-0.2,0.4-0.2,0.6
		c-0.5,0.4-1,0.9-1.6,1.4c0.3-0.2,0.7-0.4,1.2-0.8l-0.3,0.3c0.2-0.1,0.4-0.2,0.6-0.4c0,0.1-0.1,0.3-0.1,0.4c0.1-0.1,0.1-0.3,0.2-0.4
		c0.1-0.1,0.2-0.1,0.2-0.2c-0.2,0.2-0.3,0.5-0.5,0.7c-0.1,0.1-0.2,0.2-0.3,0.3c0.1-0.1,0.2-0.1,0.3-0.2c-1,1.6-2.3,3.4-3.8,5.4
		c0.4-0.4,0.9-1.1,1.6-2l-0.4,0.6c0.1-0.1,0.2-0.3,0.4-0.4c-0.4,0.9-0.8,1.9-1.3,3.1c-0.5,0.6-0.9,1.2-1.5,1.9
		c0.3-0.3,0.6-0.6,0.9-1c-0.4,0.7-0.9,1.4-1.3,2.3l1.1-1.6l-0.3,0.5c0.1-0.1,0.2-0.3,0.3-0.4c-0.7,1.1-1.5,2.3-2.4,3.6
		c-0.1,0.1-0.1,0.1-0.1,0.1c-0.1,0.2-0.2,0.3-0.3,0.5c-1.6,2.3-3.5,5-5.7,8.4l2-2.7l-0.6,0.6c1-1.3,2.9-5.4,5.3-7.3c0,0,0,0,0,0
		l-0.3,0.8c-1.4,2-3.1,4.5-5.1,7.3c0.8-1.1,2.3-3,4.2-5.6l-0.7,1.4c-1.1,1.6-2.3,3.4-3.7,5.5c0.7-0.8,1.7-2.2,2.9-3.9
		c-0.4,0.9-0.8,1.7-1,2.4c-0.2,0.3-0.4,0.5-0.6,0.8c-0.1,0.1-0.2,0.2-0.3,0.4c-2.3,2.8-3.6,4.8-3.9,5.4c-2.4,3-5.6,6.7-10.1,11.7
		c0.6-0.6,1.5-1.5,2.6-2.7l-0.7,0.8c0.8-0.8,2-2,3.5-3.7c-0.8,1-1.7,2.1-2.7,3.3c-1.7,2-3.8,4.3-6.5,6.5c0.6-0.4,1.4-1,2.4-1.9
		l-0.7,0.6c1.2-0.9,3.3-2.9,5.9-5.7l-0.3,0.4c-0.5,0.6-1,1.2-1.6,1.8c-1.2,1.3-2.6,2.7-4.2,4.1c1-0.7,2.7-2.2,4.8-4.4l-0.3,0.5
		c-0.7,0.7-1.5,1.5-2.3,2.2c0.5-0.3,1.1-0.9,1.9-1.6l-0.5,0.5c0.1-0.1,0.3-0.2,0.4-0.3c0,0-0.1,0.1-0.1,0.1
		c-0.1,0.1-0.3,0.2-0.4,0.3c0.1-0.1,0.2-0.1,0.3-0.2c-0.8,0.9-1.7,1.9-2.7,2.8c-1.2,0.6-2.5,1.2-3.9,1.7c0.5-0.1,1.3-0.4,2.3-0.8
		l-0.6,0.3c0.4-0.1,0.9-0.3,1.5-0.6c-0.2,0.2-0.4,0.4-0.6,0.6c0.3-0.2,0.6-0.4,0.9-0.6c0.4-0.2,0.9-0.4,1.5-0.6l-0.2,0.3
		c-1,0.5-2.1,1-3.3,1.5c0.7-0.2,1.8-0.6,3.1-1.2l-0.2,0.2c-0.1,0.1-0.3,0.3-0.4,0.4c-0.9,0.5-1.9,0.9-3.1,1.4
		c0.6-0.2,1.5-0.5,2.6-0.9c-0.6,0.6-1.3,1.3-2,2c-0.1,0.1-0.1,0.1-0.2,0.2c-0.7,0.5-1.5,0.9-2.4,1.4c0,0-0.1,0-0.1,0L81,241
		c0,0-0.1,0-0.1,0.1c-0.9,0.3-1.8,0.5-2.7,0.6l-0.4,0.1c-1.3,0.7-2.9,1.4-4.9,2.3c-1.2,0.3-2.6,0.7-4,1c0.6-0.1,1.4-0.2,2.5-0.4
		l-0.7,0.2c0.2,0,0.5-0.1,0.7-0.1c-1.1,0.4-2.4,0.9-3.7,1.3c-0.3-0.1-0.6-0.1-0.9-0.1c0.2,0,0.5,0.1,0.8,0.2c-0.5,0.2-1,0.3-1.6,0.5
		c-0.2,0-0.2,0-0.1,0c-0.7,0.2-1.4,0.4-2.1,0.6c0.6-0.1,1.4-0.3,2.3-0.5c0,0,0,0,0,0l-0.3,0.1c0.1,0,0.2-0.1,0.3-0.1c0,0,0,0,0.1,0
		c0.1,0.1,0.3,0.1,0.5,0.2c-0.4,0.1-0.9,0.3-1.3,0.4c0.4-0.1,0.9-0.2,1.4-0.3c0.2,0.1,0.4,0.2,0.7,0.3c-0.9,0.3-1.8,0.6-2.9,0.8
		c0.7-0.1,1.8-0.4,3.2-0.7c0.1,0,0.2,0.1,0.2,0.1c-0.1,0-0.2,0-0.3,0.1c0.1,0,0.2,0,0.3,0c-1,0.5-1.7,1-2.3,1.3l2.4-1.3
		c0.2,0.1,0.4,0.1,0.6,0.2c-0.7,0.3-1.5,0.6-2.4,0.9c0.4-0.1,0.9-0.2,1.6-0.4l-0.4,0.2c0.2,0,0.4-0.1,0.6-0.1
		c-1.1,0.8-2,1.4-2.6,1.9c0.8-0.5,1.5-0.9,2.1-1.4c0.2,0,0.4-0.1,0.7-0.2c0,0,0.1,0,0.1,0.1c-0.2,0.1-0.4,0.3-0.6,0.4c0,0,0,0,0,0
		c0,0,0,0,0,0c-0.2,0.1-0.4,0.2-0.6,0.3c0.1-0.1,0.3-0.1,0.4-0.1c-0.1,0.1-0.1,0.1-0.2,0.1c-0.1,0-0.2,0.1-0.3,0.1
		c0.1,0,0.2,0,0.2,0c-0.4,0.3-0.8,0.6-1.1,0.9l0.7-0.5c-1.1,0.7-1.9,1.3-2.5,1.8c1.4-0.9,2.7-1.7,3.9-2.4c0.2-0.1,0.4-0.1,0.6-0.2
		c0.1,0,0,0,0.1,0c0,0-0.1,0-0.1,0v0l0-1.3c0.1,0,0.1,0,0.2,0c-0.1,0-0.1,0.8-0.2,0.9c-0.2,0-0.3,0.3-0.5,0.3c0.1,0,0.3,0.2,0.4,0.3
		c-0.5,0.1-0.9,0.4-1.2,0.6c0.2-0.1,0.3-0.1,0.4-0.1c-0.7,0.2-1.2,0.6-1.4,0.8c0.6-0.3,1.3-0.5,1.9-0.7c-0.2,0.2-0.3,0.4-0.5,0.5
		c0.2-0.2,0.4-0.3,0.6-0.5c0.2,0,0.4-0.1,0.6-0.1c-0.1,0.1-0.1,0.1-0.2,0.2c0,0,0,0,0,0l0,0c0,0,0,0,0,0l0,0l0,0
		c-0.1,0-0.1,0.1-0.1,0.1c-0.2,0-0.3,0.1-0.5,0.1c0.1,0,0.3,0,0.4,0c-0.2,0.1-0.3,0.3-0.4,0.4c-0.7,0.2-1.1,0.4-0.5,0.6
		c0.1,0,0.2,0.1,0.3,0.1c-0.4,0.2-0.7,0.3-0.9,0.5c0.3-0.1,0.7-0.3,1-0.4c0,0,0,0,0,0c0,0,0,0,0-0.1c0,0,0,0,0.1,0
		c0.1,0.1,0.3,0.2,0.4,0.3c-0.3,0.4-0.6,0.8-0.7,1.1c0.3-0.3,0.6-0.7,0.8-1c0.1,0.1,0.1-1.1,0.2-1c0,0-0.1-1.1-0.1-1.1c0,0,0,0,0,0
		c0,0,0,1.2,0.1,1.2c-0.1,0.1-0.1,0.8-0.2,0.8c-0.1,0-0.2,0.2-0.3,0.2c0.1,0,0.2,0.2,0.3,0.3c-0.1,0.1-0.1,0.2-0.1,0.3
		c0.1-0.1,0.1-0.1,0.2-0.1c0.2,0.1,0.5,0.2,0.7,0.3c-0.2,0.2-0.3,0.4-0.4,0.5c-0.6-0.1-1.1-0.2-1.4-0.2c0.5,0.1,0.9,0.2,1.3,0.3
		c0,0,0,0,0,0c0,0,0,0,0,0c0.8,0.2,1.5,0.5,2.2,0.7c-0.3,0-0.5,0-0.7,0c0.4,0.1,0.8,0.1,1.1,0.2c0.2,0.1,0.3,0.1,0.4,0.2l0.3,0.2
		c-2-0.7-3.7-1.1-4.6-1.1l0.5,0.1c-0.7-0.1-1.3-0.2-1.7-0.1c1.1,0.1,2.1,0.4,2.9,0.7c0.3,0.1,0.6,0.2,0.9,0.3
		c-0.5-0.1-0.9-0.1-1.3-0.1c0.7,0.1,1.3,0.3,1.9,0.4c0.3,0.1,0.6,0.3,0.9,0.4c1.4,0.7,2.4,1.3,3.3,1.9l0.5,0c1,0.2,2,0.3,2.9,0.4
		c0.4,0.1,0.7,0.2,1.1,0.3c0.4,0.1,0.8,0.3,1.1,0.4l-0.1,0l0.1,0c0,0,0,0,0,0c-0.4,0.1-0.7,0.2-0.9,0.3c0.4-0.1,0.8-0.1,1.2-0.1
		c-0.7,0.2-1.3,0.4-1.6,0.6c0.7-0.2,1.4-0.4,2.1-0.4c0.2,0.1,0.3,0.1,0.4,0.2c-1,0.2-1.8,0.5-2.3,0.7l0.4-0.1
		c-0.3,0.1-0.5,0.2-0.7,0.3c-0.3,0.1-0.4,0.1-0.5,0.2c-0.1,0-0.1,0.1-0.2,0.1c0.1,0,0.1,0,0.2-0.1c0,0,0.1,0,0.1,0
		c0.4,0.1,1,0.3,1.8,0.5c0,0-0.1,0-0.1,0c0.1,0,0.1,0,0.2,0c1,0.3,2.2,0.6,3.4,0.7c-0.1,0-0.3,0-0.4,0c0.4,0,0.7,0,1,0
		c0.2,0,0.3,0,0.5,0c1.2,0,2.3,0,3.3-0.1c0.1,0,0.1,0.1,0.1,0.2c-2,0.2-3.7,0.3-4.6,0.5l0.6,0l-2.2,0.1c2.4,0.2,4.3,0.1,6,0.1
		c-0.6,0.4-1,0.7-0.7,0.7c0.3-0.1,1-0.2,1.9-0.4c0,0-0.1,0-0.1,0l0.3-0.1c0.4-0.1,0.8-0.2,1.2-0.3c0.2,0,0.4,0,0.5,0
		c0,0-0.1,0.2-0.1,0.2c0.1,0,0.1,0.2,0.2,0.2c0,0,0.1,0,0.1,0c-0.8,0-1.5,0.4-2,0.6l0.5-0.2c-0.7,0.3-1.3,0.4-1.7,0.6
		c1.7-0.4,3.1-0.9,4.3-1.2c-0.3,0.1-0.7,0.2-0.9,0.3l0.8-0.2c-1.1,0.3-2,0.5-2.7,0.7c1.6-0.3,3-0.6,4.3-0.9l-0.8,1.1
		c0,0,1.1-0.4,4.3-1.4c1-0.3,1.9-0.6,2.8-0.9c-0.2,0.2-0.4,0.4-0.5,0.5c0.3-0.2,0.6-0.4,0.8-0.6c0.3-0.1,0.6-0.2,0.9-0.3
		c0,0,0,0,0,0c-0.7,0.4-1.2,0.8-1.5,1c0.3-0.2,0.6-0.4,0.9-0.5c-0.3,0.3-0.5,0.5-0.7,0.7l0.3-0.2c-0.4,0.4-0.8,0.7-1,1
		c1-0.8,1.9-1.4,2.7-1.9c0.1,0,0.1,0,0.2,0c-0.9,0.5-1.5,0.9-1.9,1.3l0.4-0.3c-0.7,0.4-1.1,0.8-1.4,1.1c1.7-1.1,3.3-1.8,4.7-2.3
		c-0.1,0.1-0.2,0.2-0.3,0.3c-1,0.5-1.9,0.9-2.4,1.1c0.7-0.2,1.2-0.4,1.8-0.5c-0.3,0.2-0.6,0.5-0.8,0.6c0.5-0.3,1.1-0.6,1.6-0.9
		c0.6-0.3,1.1-0.5,1.6-0.7c-0.2,0.2-0.4,0.3-0.5,0.5c-1.3,0.7-2.5,1.3-3.2,1.6l0.5-0.1c-0.7,0.3-1.4,0.4-1.8,0.6
		c1.3-0.2,2.3-0.5,3.3-0.8c0.8-0.3,1.5-0.6,2.2-0.9c-0.1,0.4-0.2,0.8-0.2,1c0.1-0.3,0.6-0.9,1.2-1.5c0.9-0.4,1.6-0.7,2.3-1l0.3-0.3
		c0.1-0.1,0.2-0.2,0.4-0.4c-0.1,0.1-0.2,0.3-0.3,0.4l0.4-0.4c-0.6,0.5-1,1-1.3,1.3c1.5-1.2,2.7-2.2,3.7-3.1c0,0.2,0,0.3,0.1,0.4
		c-0.5,0.5-0.9,1-1.2,1.3c0.5-0.4,0.9-0.8,1.3-1.2c0,0,0,0,0,0c0.1,0.1,0.3,0,0.6-0.2c-0.6,0.7-1.1,1.2-1.4,1.6l0.4-0.4l-1.4,1.4
		c1.1-0.8,1.9-1.5,2.6-2.2l1.6-1.5c-0.1,0.3-0.2,0.5-0.3,0.7c0.2-0.4,0.4-0.7,0.7-1c0.1-0.1,0.2-0.1,0.3-0.2c0.1,0,0.2-0.1,0.2-0.1
		c-0.1,0.1-0.1,0.2-0.2,0.3c0,0-0.1,0-0.1-0.1c0,0,0.1,0.1,0.1,0.1c-0.1,0.2-0.2,0.4-0.3,0.6c-0.5,0.6-0.9,1.1-1.2,1.5
		c0.3-0.3,0.6-0.6,0.9-0.9c0,0,0,0.1,0,0.1l0.1-0.1c0,0,0,0,0,0c-0.2,0.4-0.4,0.8-0.5,1.1c0.5-0.8,1-1.4,1.4-2c0,0,0.1,0,0.1,0
		c0.1,0,0.1,0,0.2,0c-0.7,0.9-1.3,1.7-1.7,2.2l0.3-0.3c-0.2,0.3-0.4,0.5-0.7,0.7c-0.3-0.1-0.5-0.1-0.8-0.3c0.2,0.1,0.5,0.2,0.7,0.3
		c-0.2,0.2-0.3,0.4-0.5,0.5c0.2-0.1,0.4-0.3,0.6-0.4c0.4,0.1,0.7,0.1,1,0.1c0.5,0,0.9-0.2,1.2-0.3c0.6-0.3,1-0.6,1.4-1
		c0.3-0.3,0.6-0.6,0.9-0.9c-0.2,0.3-0.3,0.6-0.5,0.9c0.3-0.4,0.6-0.9,0.9-1.3c0.2-0.2,0.3-0.3,0.4-0.4c0-0.1,0.1-0.1,0.1-0.1
		c-0.2,0.3-0.3,0.6-0.4,0.8c0.3-0.4,0.5-0.7,0.7-1.1c0,0.1-0.1,0.2-0.1,0.3l0.2-0.4c-0.3,0.6-0.5,1.1-0.6,1.5c0.4-0.7,0.8-1.4,1.1-2
		c0.1-0.1,0.2-0.2,0.3-0.3c-0.4,0.9-0.8,1.6-1.1,2.1l0.3-0.4c-0.3,0.6-0.7,1.1-0.9,1.4c0.8-0.9,1.3-1.7,1.8-2.5
		c1-0.6,4.2-2.8,6.5-6.4c-0.2,0.7-0.4,1.3-0.5,1.7c0.3-0.8,0.6-1.5,0.8-2.2c0.2-0.2,0.3-0.4,0.5-0.6c0,0.1,0,0.2,0,0.2
		c-0.2,0.8-0.4,1.4-0.6,1.9c0,0.1-0.1,0.1-0.1,0.2c0.1-0.1,0.1-0.1,0.1-0.1c0,0.2-0.1,0.4-0.1,0.5l0.2-0.6c-0.1,0.5-0.3,0.9-0.4,1.2
		c-0.2,0.2-0.3,0.3-0.5,0.4c0.2-0.1,0.3-0.2,0.5-0.3c-0.1,0.3-0.1,0.5-0.2,0.8c0.1-0.3,0.2-0.6,0.3-0.9c0.5-0.4,0.9-0.8,1.2-1.2
		c0.4-0.6,0.7-1.1,1-1.6c0.2-0.3,0.3-0.6,0.5-0.9l-0.2,0.8c0.4-0.9,0.8-1.7,1-2.5c0,0,0,0,0-0.1c0.1-0.1,0.1-0.2,0.1-0.3
		c0.1,0.3,0.2,0.6,0.2,0.8c-0.1-0.4-0.1-0.7-0.1-1c0.2-0.4,0.3-0.7,0.5-1.1c0.1,0.4,0.1,0.7,0.1,0.9l0-1.1l0.1,0c0,0,0,0,0,0v-0.1
		c0-0.1,0.1-0.3,0.1-0.4c0-0.1,0.1-0.1,0.1-0.2c0.1,0.7,0.2,1.2,0.2,1.6l0-0.4c0.1,0.7,0.1,1.2,0.2,1.6c0-0.6,0-1.1,0-1.6
		c0,0.1,0.1,0.2,0.1,0.3c0-0.2-0.1-0.5-0.1-0.7c0-0.6,0-1.2,0-1.7c0.1,0.1,0.1,0.2,0.1,0.3c0,0.1,0,0.1,0,0.2c0-0.1,0-0.1,0.1-0.2
		c0,0.1,0.1,0.1,0.1,0.1c0-0.1-0.1-0.1-0.1-0.2c0-0.1,0-0.1,0.1-0.2c0,0.1,0.1,0.1,0.1,0.2c0-0.1-0.1-0.1-0.1-0.2
		c0.1-0.2,0.1-0.3,0.1-0.5c0.1,0.2,0.2,0.3,0.3,0.4c0,0.2-0.1,0.4-0.1,0.6l0.1-0.4c-0.1,0.6-0.3,1.1-0.4,1.5c0.2-0.5,0.4-1,0.5-1.4
		c0.1,0.2,0.2,0.3,0.3,0.4c-0.2,0.4-0.4,0.8-0.5,1.1c0.2-0.3,0.4-0.7,0.6-1c0,0,0,0,0,0c0,0,0,0,0,0c0.3-0.6,0.6-1.2,0.8-1.8
		c0,0,0,0.1,0,0.1c0-0.1,0-0.1,0-0.2c0,0,0-0.1,0-0.1c0,0.6-0.1,1.2-0.1,1.6c0.1-0.9,0.3-1.6,0.4-2.3c0.1-0.3,0.2-0.6,0.3-0.8
		c-0.1,1.3-0.1,2.4-0.1,3.1l0.1-0.5c-0.1,0.7-0.1,1.3-0.2,1.7c0.3-1.1,0.4-2,0.6-2.9c0.6-1.6,1.1-3,1.6-4.1l0.2-0.3
		c-0.6,2-1.1,3.7-1.3,4.6l0.2-0.5c-0.2,0.7-0.4,1.4-0.6,1.8c1-2.3,1.6-4,2.3-5.5c0.4-1,0.9-1.9,1.2-2.6c0.5,1,0.6,1.1,0.5,0.8
		c-0.1-0.2-0.2-0.6-0.2-1.3c0-0.1,0.1-0.1,0.1-0.2c0,0.1,0,0.1,0.1,0.2l0-0.3c0,0,0,0,0,0c0.1,0.7,0.3,1.2,0.4,1.6
		c-0.1-0.9-0.2-1.8-0.3-2.5c0.1-1.1,0.2-2.1,0.4-3.2c0,0.1,0,0.1,0.1,0.2c0-0.1,0-0.2,0-0.3c0-0.1,0-0.2,0.1-0.3
		c0,0.1,0,0.2-0.1,0.3c0-0.3-0.1-0.5-0.1-0.7l0.1-0.3c0,0.3,0,0.5,0.1,0.8c0.1,1.6,0.1,2.9,0,3.9c0.2-0.9,0.2-1.7,0.2-2.4
		c0,0.1,0.1,0.2,0.1,0.3c0-0.3-0.1-0.5-0.1-0.7c0-0.1,0-0.2,0-0.4c0-0.3,0-0.6,0-0.9c0.1,0.2,0.1,0.4,0.1,0.6l0.1-0.5
		c0.1,0.4,0.4,0.8,0.4,1.2c0,0,0,0.1,0,0.1c0,1-0.1,1.9-0.1,2.5c0-0.2,0-0.5,0-0.7c-0.1,1-0.2,1.9-0.8,2.9c0.5-0.6,0.6-1.1,0.7-1.6
		c0.1-0.4,0.1-0.8,0.2-1.2c0-0.3,0.1-0.6,0.1-1c0.1,0.3,0.1,0.5,0.2,0.7c-0.1-0.4-0.1-0.9-0.1-1.3c0-0.1,0-0.3,0-0.4
		c0.1-1.2,0.1-2.3,0.2-3.1c0-0.2,0.1-0.4,0.1-0.6c0,0.2,0.1,0.4,0.1,0.6c0-0.3,0-0.6,0-0.9c0.1-0.3,0.1-0.5,0.2-0.8
		c0.2,0.7,0.3,1.2,0.4,1.6c0.1,0.5,0.1,0.9,0.2,1.3c0-0.3,0-0.6,0-0.9c0.3,0.3,0.2-2.7,0.6-5.8c0.1-0.1,0.1-0.2,0.2-0.2
		c0.1,0.6,0.2,1,0.4,1.4c-0.1-0.4-0.1-0.8-0.2-1.2c0.1-0.1,0.1-0.2,0.2-0.3c0,0.1,0,0.3,0,0.4c0,0.3,0,0.5,0,0.7l0.1-0.4
		c0,0.2,0.1,0.4,0.1,0.6c0-0.4,0-0.7,0-1l0-0.1c0,0.2,0.1,0.3,0.1,0.5c0.1,0.3,0.1,0.5,0.2,0.7l-0.1-0.4c0.1,0.7,0.3,1.2,0.4,1.6
		c0-0.2-0.1-0.4-0.1-0.5c0-0.1,0-0.1,0-0.2c0,0.3,0.1,0.5,0.1,0.7c0-0.4,0-0.8,0-1.2c0,0,0,0,0,0c0,0.2,0.1,0.4,0.1,0.6
		c0-0.1,0-0.1,0-0.2c0,0,0,0.1,0,0.1c0-0.4,0-0.7,0-1c0-0.2,0.1-0.4,0.1-0.5c0.1-0.1,0.1-0.2,0.2-0.3c0.1,0.7,0.2,1.3,0.3,1.8l0-0.3
		c0,0,0,0.1,0,0.1c0.1,0.6,0.1,1,0.2,1.4c0-0.1,0-0.1,0-0.1c0,0,0,0.1,0,0.1c0-1.3,0-2.5,0.1-3.5c0,0.1,0.1,0.2,0.1,0.3
		c0,0.1,0,0.2,0,0.3c0-0.1,0-0.1,0-0.2c0,0.1,0.1,0.3,0.1,0.4l0-0.3c0.1,0.5,0.2,0.9,0.3,1.1c-0.1-1-0.1-1.9-0.1-2.7l0.1-0.1
		c0.1,0.6,0.3,1.2,0.5,1.6c0,0.3,0.1,0.6,0.1,0.9l0-0.6c0.1,0.3,0.2,0.5,0.3,0.7c-0.1-0.4-0.2-0.8-0.3-1.2l0-1c0-0.1,0-0.1,0-0.1
		c0.1,0.6,0.4,1.1,0.6,1.5c0,0.2,0.2,0.4,0.2,0.5v-0.4c0,0-0.1,0-0.1,0c0,0.8,0,1.4,0.1,1.9c0-0.5,0-1.1,0-1.6
		c0,0.1,0.1,0.1,0.1,0.2l-0.1-0.2v0c0,0.5,0.4,0.8,0.5,1.1c-0.2-0.7-0.4-1.4-0.5-1.9c0-0.1,0-0.3,0-0.4c0.1,0.2,0.1,0.3,0.2,0.4
		c-0.1-0.4,0.4-1.9,0.9-3.9c0.5,1.4,0.9,2.9,1.3,4.5c2.1,11.1,4.1,25.3-1,34.7c0.1,2.9-3.5,6.1-5,9.4c-1.5,3.2-0.1,8.9,1.2,14.3
		s5.3,29.5,5.6,30.3c0.3,0.8,1.6,3.4,3.6,4.4c2.1,1,3.3,0.8,4.5,0.2c1.1-0.6,1.8,0.1,3.4-0.1c1.5-0.2,1.6-0.3,1.6-0.3l0.4,1
		c0,0,0.7-0.9,0.8-1.3c0.1-0.5,0.6,0,2.1-0.3c1.4-0.3,3.2-2.4,3.2-2.4s0.7,0.2,1.4,0.8c0.7,0.6,0.2-0.5-0.4-2
		c-0.6-1.5-0.3-1.8-0.3-1.8s-0.5-1.3-2.3-2.3s-2.9-1.4-4.4-1.8c-1.5-0.4-1.5-0.2-3.3-4s-3.7-22.8-3.7-22.8s0.8,3.4,2.4,6.7
		s10.9,16.9,11.1,17.9c0.2,1,1.6,2.5,3,3.6c1.4,1.1,2.8-0.3,4-0.4c1.2-0.1,1.9,0.4,5.4,0.4c3.5,0,4.8-0.6,5.7-1.1s2,0.3,2,0.3
		l0.1-1.2c0,0,2.4-0.2,3.3-0.5c0.9-0.4,1.3-1.1,1.8-1.8s2.7,0.5,2.7,0.5s0,0,0-0.8c-0.1-0.8-1.1-1.8-1.1-1.8s-0.5-1.1-1.1-1.5
		c-0.7-0.4-2.3-2.3-5.8-2.5c-3.4-0.2-11.2,0.2-11.2,0.2s-7-12.1-8-17c-0.7-3.5,0.8-11.7,1.5-16.4c0,0,0.3-1.8,0.8-4.1
		c0,0-0.1,0-0.1-0.1c0,0,0-0.1,0.1-0.1c0,0,0,0.1,0,0.1c0.3-1.1,0.5-2.4,0.8-3.6c0.9-3.6,2.8-7.4,7.1-9.2c4.3-1.9,7-5.1,7-5.1
		c4.2-6.6,8.5-14.1,9.8-16.9c1.6-3.6,3.3-7.4,4.1-9.3c0.3-0.2,0.5-0.4,0.8-0.7l0,0.1l-0.1,0.7c-0.1,0.1-0.2,0.2-0.3,0.3l0.3-0.3
		c-0.4,0.4-0.8,0.8-1,1.1c0.5-0.4,0.9-0.8,1.4-1.2l0.1,0.2c0.2,0,0.3,0,0.5,0c0,0.1,0,0.2,0,0.2c0-0.1,0.1-0.2,0.1-0.2
		c0.1,0,0.1,0,0.2,0c0,0-0.1,0.1-0.1,0.1c0,0,0.1-0.1,0.1-0.1c0.1,0,0.1,0,0.1,0c0,0.1,0,0.2,0,0.2c0,0,0,0,0,0c0,0,0,0,0,0
		c0,0.1,0,0.2,0,0.3l0.1-0.3c-0.1,0.3-0.1,0.6-0.1,0.8c0,0-0.1,0.1-0.1,0.1c0,0,0.1,0,0.1-0.1c0,0.1,0,0.1,0,0.2
		c0-0.1,0-0.2,0.1-0.2c0.4-0.2,0.8-0.4,1.2-0.6c-0.2,0.4-0.3,0.7-0.4,1c0.2-0.4,0.4-0.8,0.7-1.1c0.7-0.3,1.3-0.6,1.9-0.9
		c-0.5,0.3-0.9,0.6-1.1,0.8c1.1-0.6,2-1.1,2.9-1.4c0.3-0.1,0.7-0.2,1-0.3c-1.6,0.8-2.8,1.6-3.4,2.1l0.4-0.2c-0.6,0.4-1.1,0.7-1.4,1
		c1.9-1.1,3.5-1.7,4.8-2.2c-0.2,0.2-0.3,0.3-0.4,0.5c0.3-0.2,0.5-0.4,0.8-0.6c0,0,0.1,0,0.1,0c0.3-0.1,0.5-0.1,0.7-0.2
		c-0.4,0.4-0.7,0.7-1,1c-0.7,0.1-1.3,0.1-1.7,0.2c0.5,0,0.9,0,1.4,0c-0.1,0.1-0.3,0.3-0.4,0.4c-0.3,0-0.4,0.1-0.6,0.1l0.8,0v0
		c0,0-1.9,0.1-2.5,0c0.8,0.1,1.5,0.2,2.1,0.2c0,0-0.1,0-0.1,0.1c0,0,0.1,0,0.1-0.1c0.9,0,1.7,0,2.4-0.1c0.8-0.1,1.6-0.1,2.3-0.2
		c0,0-0.1,0.1-0.1,0.1c0.1,0,0.1-0.1,0.1-0.1c0.4,0,0.7-0.1,1-0.1c-0.3,0.2-0.5,0.4-0.6,0.6l0.5-0.3c-0.7,0.5-1.2,0.9-1.5,1.3
		c0.8-0.6,1.7-1.2,2.5-1.6c1.4-0.1,2.5-0.2,3.5-0.3c-0.2-0.1-0.3-0.2-0.4-0.1c0.3-0.1,0.5-0.9,0.8-0.9l0.1,0c0,0,0.1,0.4,0.1,0.4
		c0.6-0.3,1.2-0.4,1.7-0.6c0.2-0.1,0.4-0.3,0.6-0.4c0.1,0,0.3,0,0.4,0c-0.2,0.1-0.3,0.1-0.4,0.2c0.5-0.1,1-0.3,1.4-0.5l0.4,0.1
		c-2.2,0.9-3.9,1.9-4.8,2.5l0.5-0.2c-0.8,0.4-1.4,0.8-1.8,1c2.7-1.3,5-2,6.7-2.5c0.1,0,0.1,0,0.2-0.1c-1.1,0.5-2,1-2.6,1.4l0.6-0.2
		c-0.8,0.4-1.5,0.8-2,1c2.2-0.9,4.1-1.6,5.8-2.2c-0.2,0.2-0.4,0.4-0.6,0.6c-0.4,0.3-0.4,0.5-0.1,0.6l-0.6,0.2c0.3,0,0.5-0.1,0.8-0.1
		c0.5,0.1,1.5,0.2,3.1,0.4c0.4,0,0.8,0,1.1,0c-0.3,0.2-0.6,0.3-0.8,0.5c0.4-0.2,0.7-0.3,1.1-0.5c0.4,0,0.8-0.1,1.2-0.2
		c-0.8,0.4-1.4,0.8-1.9,1.1l0.5-0.2c-0.8,0.4-1.4,0.8-1.8,1c2.9-1.3,5.1-2.2,6.9-2.7c0.4,0,1.1,0,1.8,0c-0.1,0-0.3,0.1-0.4,0.1
		c0.2,0,0.5-0.1,0.8-0.1c-0.4,0.7-1.6,1.6-1.1,1.5c0.1,0,0.3-0.1,0.6-0.2c-0.4,0.4-0.7,0.7-0.9,1c0.5-0.4,1-0.9,1.4-1.2
		c0.3-0.1,0.6-0.2,0.9-0.4c-0.8,0.8-1.5,1.5-1.8,1.9l0.4-0.3c-0.5,0.5-0.9,0.9-1.2,1.3c1-0.9,1.9-1.6,2.8-2.2
		c-0.2,0.3-0.4,0.6-0.4,0.8c0.3-0.4,0.6-0.8,0.9-1.1c0.3-0.2,0.6-0.4,0.9-0.6c-0.6,0.8-1.1,1.5-1.3,2l0.3-0.4
		c-0.4,0.5-0.6,1-0.7,1.4c1.1-1.6,2.2-2.7,3.3-3.5c0,0.3-0.1,0.6-0.2,1.1c-0.1,0.1-0.1,0.1-0.2,0.2c0.1,0,0.1-0.1,0.2-0.1
		c0,0.1-0.1,0.3-0.1,0.4c-0.3,0.9,1.8-0.5,3.5-1.8c0.2,0,0.4,0,0.6-0.1c-0.8,0.6-1.5,1.1-1.9,1.5l0.5-0.3c-0.7,0.5-1.2,1-1.6,1.3
		c0.9-0.6,1.7-1.2,2.5-1.7c-0.5,0.6-0.8,1.2-1,1.6c0.6-0.7,1.1-1.4,1.7-1.9c0.3-0.1,0.5-0.3,0.7-0.4c-0.4,0.5-0.8,0.9-1.1,1.4
		c-0.1,0-0.1,0-0.1,0c0,0,0.1,0,0.1,0c-0.3,0.5-0.6,0.9-0.8,1.2l0.3-0.4c-0.4,0.6-0.7,1.1-0.9,1.5c0.6-0.7,1.1-1.4,1.6-2
		c0.1-0.1,0.3-0.2,0.4-0.3c0.1,0,0.1,0,0.2,0c0,0,0,0.1-0.1,0.1c-0.1,0.3-0.2,0.4-0.2,0.6c-0.1,0.2-0.3,0.3-0.4,0.5l0.4-0.3
		c-0.5,0.5-0.9,1-1.2,1.3c0.6-0.5,1.1-1,1.6-1.4c0.4-0.2,1-0.7,1.7-1c0.5-0.1,1-0.2,1.6-0.4c-1.5,1.3-2.9,2.4-3.6,3
		c1.9-1.2,3.4-2.4,4.7-3.4l0.4-0.2c-1.9,1.7-3.6,3.1-4.5,3.9l0.6-0.4l-1.9,1.4c3.1-1.8,5.1-3.4,6.8-4.6c0.4-0.3,0.7-0.5,1-0.7
		c0,0-0.1,0.1-0.1,0.1l0.2-0.2c0,0,0,0,0,0c-0.3,0.5-0.6,0.9-0.8,1.2c0.5-0.6,1-1.1,1.5-1.6c0.1,0,0.1-0.1,0.2-0.1
		c0,0.2-0.1,0.5-0.1,0.7l0.1-0.2c-0.1,0.4-0.1,0.7-0.2,0.9c0.3-0.7,0.4-1.2,0.6-1.6c0.2-0.1,0.5-0.3,0.7-0.4
		c-0.1,0.2-0.1,0.4-0.1,0.5l0.1-0.3c-0.2,0.5-0.4,0.9-0.5,1.3c0.4-0.6,0.7-1.2,1-1.7c0.2-0.1,0.4-0.2,0.5-0.3l0.2-0.1
		c0.1-0.1,0.2-0.2,0.3-0.3c0.2-0.1,0.4-0.2,0.5-0.2c-0.4,0.9-0.6,1.6-0.8,2.1c0.4-0.8,0.7-1.4,1-2.1c0.1,0.1,0.1,0.1,0.2,0.2
		c-0.3,0.8-0.6,1.5-0.7,2l0.2-0.4c-0.3,0.6-0.5,1.2-0.6,1.6c0.6-1.1,1.1-2,1.5-2.8c0,0,0,0,0,0c0.2,0.2,0.4,0.5,0.6,0.7
		c-0.2,0.3-0.3,0.5-0.4,0.7c0.2-0.2,0.3-0.4,0.5-0.6c0.1,0.1,0.1,0.2,0.1,0.3c0,0,0,0.1,0,0.2c-0.1,0.1,0.3,0.2,0.3,0.3
		c-1.2,0.5-0.5,0.7-0.7,1c0.3-0.3,0.4-0.6,0.7-0.9c0.2,3.4-0.1,21,1.4,24.3c1.6,3.5,2.5,25.5,2.7,28c0.2,2.5-0.5,9.1,1.4,14.8
		c1.9,5.7,3.9,13,4,13.6s-1.7,5.7-1.3,9.9c0.4,4.1,1.1,0.8,1.8,0.9s2.5,3.3,3.8,4.6c1.3,1.4,2.5,1,4.9,0.8c2.4-0.2,3-0.7,3-0.7
		l0.3,0.6c0,0,1.2-0.5,1.9-1.4c0.6-1,1.2-0.5,2.9-1c1.7-0.5,1.7-1.5,1.7-1.5s0.4,0.1,0.8,0.3s0.1-2.1,0.1-2.1s0.2-0.4,0.3-1.3
		c0.1-0.9-0.5-2.3-1.2-3.6c-0.8-1.3-3.9-2.9-5.3-4.6c-1.4-1.8-2.1-10.7-3.4-13c-1.3-2.3-1-5.6-0.3-7.8c0.7-2.3,0.4-18.6-0.2-30.4
		c-0.5-9.2,2.6-25.5,4-32.1c0.2-0.3,0.3-0.5,0.5-0.8c0.2,0.8,0.5,1.5,0.9,2.2c-0.1,0.1-0.2,0.3-0.3,0.4c0,0,0,0.1,0,0.1
		c-0.1,0.1-0.3,0.2-0.5,0.3c0.1,0.3,0.5,0.5,0.5,0.8c0,0.6,0,1.2,0,1.9c0.1-0.3,0.3-0.8,0.5-1.4c0.2,0.5,0.5,1,0.8,1.5
		c0,0.9-0.1,1.9-0.4,3.1c0.3-0.5,0.6-1.4,0.7-2.6c0.4,0.5,0.7,1,1,1.4c0.2,0.9,0.4,1.8,0.4,2.7c0,0.5,0.1,1.3,0.2,2.3
		c-0.2,0.7-0.4,1.5-0.7,2.4c0.2-0.4,0.5-0.9,0.7-1.7c0.5,8.2,1.2,27,1,30c-0.3,3.5-1.2,13.9-1.2,16.1c0,2.2,2.9,3.9,2.9,3.9
		l3.7,13.9c0,0,1.2,2.2,2.5,3.6c1.3,1.4,0.5,5.2,1,6.8c0.6,1.6,2.3,2.4,3.9,2.4c1.6,0,3.1-0.4,3.5-0.3c0.5,0,2.4,0.3,5,0
		s3.7-1.4,3.7-1.4s3.5,0.3,4.9-0.2s1.8-1.8,1.8-1.8l1.2,0.5c0,0,0.5-1.3,0.1-2c-0.3-0.7,0-1.2-0.8-2.7c-0.8-1.5-2.5-2-4.4-2.3
		c-1.9-0.3-7.3-1.4-8.2-1.8c-0.9-0.4-1.6-0.7-3-3.5c-1.4-2.8-3-10.9-3.4-12.3c-0.4-1.4-0.2-1.9,1.3-6.9s2.8-21.3,3.5-32.4
		c0.7-11.2,3.6-33.9,3.6-33.9s2.3-3.4,4.1-8.9c1.8-5.5,2.6-5,2.6-5s0.6,1.2,0.7,2.7c0,1.4,0,0.3,1-2.6c-0.1,0.6-0.2,1.2-0.2,1.6
		c0.1-0.3,0.1-0.5,0.2-0.8c-0.2,1.2-0.5,2.2-0.7,2.9c0.8-1.9,1.1-3.6,1.4-5.1c0.4-1.3,0.6-2.5,0.8-3.6c0.1,0.2,0.1,0.5,0.2,0.7
		c0.1,1.2,0.4-0.2,0.7-3.1c0.1,1.8,0.1,3.3,0.1,4.2c0.3-2.6,0.1-4.7,0.1-6.5l0.1-0.5c0,0.4,0.1,0.9,0.1,1.3c0,0.3,0,0.6,0,0.8
		c0-0.1,0-0.3,0.1-0.4c0.2,2.2,0.2,4,0.3,5l0-0.8c0,1.1-0.1,2-0.1,2.7c0.4-2,0.4-3.8,0.5-5.3c0-0.4,0-0.7,0-1c0.2-1.1,0.3-2,0.4-2.9
		c0.2-0.5,0.5-1,0.7-1.6c0,0.8,0,1.4,0,1.9c0.1-0.9,0.4-1.7,0.4-2.5c0-0.1,0.1-0.2,0.2-0.3c0.1,1,0,1.8,0,2.4c0-0.1,0-0.2,0-0.3
		c0,0.2,0,0.3,0,0.5c0,0.7-0.1,1.4-0.1,1.8c0-0.2,0-0.4,0.1-0.5c0,0.4,0,0.7-0.1,0.9c0.2-1.1,0.3-2.1,0.3-3c0-0.4,0.1-0.9,0.1-1.3
		c0,0.3,0,0.6,0,0.8c0-0.3,0.1-0.6,0.1-0.9c0,0.1,0.1,0.1,0.1,0.1c0,0.3,0,0.6,0,0.8c0.1,1.3,0,2.4,0,3.1c0-0.3,0.1-0.6,0.1-0.9
		c-0.1,1.3-0.3,2.3-0.5,3.1c0.7-2.1,0.9-3.9,0.9-5.6c0.4,0.4,0.3,0.2,0-0.3c0,0,0-0.1,0-0.1c0-0.2,0-0.3,0-0.5
		c0.4-1.7,0.7-3.3,0.8-4.6c0-0.4,0.1-0.8,0.1-1.2c0.1-0.5,0.2-1.5,0.2-2.4c0-0.2-0.6-0.3-0.6-0.5c0.1,0.1-0.4,0.3-0.4,0.4
		c0,0,0,0,0,0c0,0,0.7,0,0.7,0c0.1,0.1,0.5,0.2,0.5,0.2c0,0.1,0.1,0.2,0.1,0.2l0.1-0.2c0,0,0,0,0.1,0c-0.2,0.9-0.3,1.6-0.5,2.2
		c0.3-0.7,0.5-1.4,0.6-2c0,0,0,0.1,0.1,0.1c0,0,0-0.1-0.1-0.1c0-0.2,0.1-0.4,0.1-0.6c0,0.1,0.1,0.1,0.1,0.2
		c-0.1,0.6-0.1,1.1-0.2,1.5c0.1-0.5,0.3-1.1,0.4-1.6c0,0,0,0.1,0.1,0.1l-0.1-0.1c0,0,0,0,0,0c0.3,0.5,0.6,0.8,0.8,1.1
		c-0.3-0.5-0.5-0.9-0.8-1.4c0-0.1,0-0.3,0.1-0.4c0.1,0.2,0.4,0.3,0.5,0.4l0-0.2c-0.1-0.3-0.2-0.5-0.3-0.8c0.1-0.7,0.1-1.4,0.2-2
		c0.1-0.7,0.1-1.3,0.1-2c0.1-0.7,0.2-1.3,0.3-1.9c0.1,0.2,0.1,0.3,0.2,0.4l-0.1-0.6c0.2,0.9,0.5,1.6,0.7,2.1c-0.3-1-0.4-1.9-0.6-2.8
		c0-0.2,0.1-0.4,0.1-0.6c0,0.1,0.1,0.2,0.1,0.4c0-0.2-0.1-0.3-0.1-0.5c0-0.1,0-0.1,0-0.1c0.1,0.4,0.2,0.8,0.3,1.1l-0.1-0.6
		c0.2,0.9,0.4,1.7,0.6,2.2c-0.3-1.2-0.4-2.3-0.5-3.3c0.1,0.3,0.2,0.5,0.3,0.7l-0.2-0.7c0.3,1,0.6,1.8,0.9,2.3
		c-0.4-1.3-0.7-2.4-0.9-3.6c0.1-0.4,0.2-0.8,0.2-1.1c0.1,0.3,0.2,0.6,0.2,0.9l-0.1-0.7c0.2,1,0.4,1.9,0.6,2.4
		c-0.2-1.3-0.4-2.4-0.5-3.5c0,0,0-0.1,0-0.1l-0.9-0.3c-0.3-1.4-1.3-2.9-1.3-4.3c0,0,0,0,0,0c2.9-0.7,1.3-1.3,1.5-1.8l0.5-0.1
		c-0.1,1.2,0.2,2.3,0.2,3.2c0,0.1,0.1,0.3,0,0.4c0-0.1,0.1-0.2,0.2-0.3c0,0.6,0.1,1.1,0.2,1.5c0-0.7,0-1.3,0-2
		c0.1-0.4,0.3-0.8,0.4-1.2c0,0.6,0,1.2,0.1,1.6c0,0,0.2,0,0.4,0c0-0.1,0-0.2,0-0.3c0.2-0.4,0.5-0.8,0.7-1.2c0,0.1,0,0.2,0,0.3
		c0-0.1,0-0.3,0-0.4c0,0,0-0.1,0-0.1c0,0.1,0.1,0.2,0.1,0.3c-0.1,0.4-0.1,0.7-0.2,1c0.1-0.3,0.2-0.6,0.2-0.8c0,0.1,0.1,0.3,0.2,0.4
		c0,0.2,0,0.3,0,0.5c0-0.1,0-0.2,0.1-0.4c0.1,0.4,0.3,0.7,0.4,0.9c0.3,0.7-0.2-0.3,0.2-3.7c0,0,0-0.1,0-0.1
		c-0.1,2.3-0.1,4.2-0.1,5.3c0.3-2.5,0.3-4.6,0.5-6.5l0.1-0.4c0,0.2,0,0.4,0,0.6c0,2.6,0,4.7,0,5.9l0.1-0.7c-0.1,1.1-0.1,2-0.1,2.6
		c0.3-1.9,0.5-3.6,0.6-5.1c0-0.5,0.1-0.9,0.1-1.4c0,0.9,0.1,1.6,0.1,2.2l0-0.6c0,0.9,0,1.7,0,2.3c0.1-1.9,0.3-3.5,0.4-4.9
		c0.1,0.6,0.3,1,0.4,1.4c-0.1-0.8-0.3-1.4-0.4-2.1c0.1-0.8,0.1-1.5,0.3-2.2c0-0.2,0.1-0.4,0.1-0.6c-0.1,0.9-0.1,1.6-0.1,2.1l0.1-0.6
		c-0.1,0.8-0.1,1.5-0.1,2c0.2-1.5,0.4-2.8,0.7-4c0.2,0.4,0.4,0.8,0.6,1c-0.2-0.5-0.4-0.9-0.5-1.3c0-0.2,0.1-0.4,0.1-0.6
		c0.3,0.7,0.6,1.2,0.9,1.6l-0.2-0.4c0.3,0.6,0.6,1.2,0.9,1.5c-0.6-1.4-1-2.5-1.3-3.5c0.1-0.4,0.2-0.7,0.3-1c0.1,0.1,0.1,0.1,0.2,0.2
		c0,0.1,0,0.3,0.1,0.4l0-0.4l0,0c0.1,0.8,0.2,1.5,0.3,2c0-0.6-0.1-1.2-0.1-1.8c0.1,0.1,0.2,0.2,0.3,0.3c0.1,0.1,0.2,0.2,0.3,0.2
		c0,0.2,0,0.4-0.1,0.5c0-0.1,0-0.2,0.1-0.3c0,0.1,0,0.3,0,0.4c0-0.3,0.1-0.5,0.1-0.8l0.3,0c0,0,0.3,0,0.3,0l0,0
		c0-3.8,1.6-6.9,2.4-9.4c0.2-0.7,0.3-1.2,0.5-1.8c0,0.2,0,0.4,0,0.6c0-0.3,0-0.5,0-0.8c0-0.1,0.1-0.2,0.1-0.3c0,1,0,1.9,0,2.5
		c0.1-1.1,0.1-2.2,0.2-3.2c0,0,0-0.1,0-0.1c0,0.6,0.1,1.2,0.1,1.6l0-0.6c0,0.9,0.1,1.7,0.2,2.2c0-0.2,0-0.4,0-0.6c0,0.2,0,0.3,0,0.4
		l0-0.7c0,1,0,1.8,0,2.4c0.1-1.5,0.3-2.9,0.4-4.1c0,0,0,0.1,0,0.1c0-0.1,0-0.1,0-0.2c0-0.1,0-0.3,0-0.4c0.1-0.2,0.2-0.5,0.3-1
		c0.1,0.6,0.2,1.1,0.3,1.4l0-0.5c0.1,0.7,0.1,1.3,0.2,1.7c0-2,0-3.6,0-4.9c0-0.2,0.1-0.4,0.1-0.6c0.1-0.2,0.2-0.4,0.3-0.6
		c-0.1,0.6-0.1,1.2-0.1,1.6l0.1-0.7c-0.2,1.1-0.3,2-0.3,2.6c0.2-0.9,0.4-1.7,0.5-2.5c0.1,0.5,0.2,1,0.4,1.3
		c-0.1-0.7-0.2-1.3-0.2-1.8c0-0.2,0.1-0.4,0.1-0.7c0.1,0.1,0.1,0.3,0.2,0.4c0.1,0.8,0.3,1.5,0.5,1.9l-0.1-0.5
		c0.1,0.7,0.3,1.3,0.5,1.7c-0.3-1.3-0.4-2.4-0.4-3.4c0.1,0.1,0.1,0.3,0.2,0.4l-0.1-0.4c0.2,0.6,0.5,1.1,0.7,1.5
		c-0.2-0.8-0.4-1.5-0.6-2.1c0.3,0.5,0.6,1,0.6,1.3c0,0.4,0.1,0.2,0.2-0.4c0.2,0.4,0.3,0.8,0.5,1.1c-0.1-0.5-0.3-1-0.4-1.5
		c0.1-0.7,0.3-1.8,0.5-3.2c0-0.1,0-0.2,0-0.2c0,0.2,0,0.4,0,0.5c0-1.5,0.1-2.9,0.1-4.2c0.1-0.3,0.1-0.6,0.2-0.9
		c0.1,1.3,0.2,2.4,0.3,3.1l0-0.6c0,0.9,0.1,1.6,0.2,2.1c0-0.9,0-1.7,0-2.4l0.1,1.8c0-1.9,0-3.7-0.1-5.3c0-0.6,0-1.2,0-1.7
		c0.1,0.1,0.1,0.2,0.2,0.2l0.5,6l0-1.2l0.1,4.1c0.1-2.9,0.1-5.5,0-7.9c0.1,0.2,0.1,0.3,0.1,0.4c-0.1,0.7,0.2-0.4,0.2-2.4
		c0.1-0.5,0.2-1,0.3-1.6l0.8,4.7c0-0.7-0.1-1.3-0.1-2c0.2-0.6,0.4-1.2,0.5-1.7c0.2,1.1,0.4,2,0.5,2.6c-0.1-1.2-0.2-2.2-0.4-3.3
		c0.1-0.5,0.1-0.9,0.1-1.4c0.3,1.7,0.6,3.1,0.8,4l-0.1-1c0.2,1.4,0.3,2.6,0.4,3.4c-0.1-3.8-0.6-6.8-1-9.4c0.3,0.1,0.5,0.3,0.7,0.4
		c0.9,0.4,0.2,0.1-0.9-1.8L350,101c0.1,0.2,0.3,0.3,0.4,0.5l-0.2-0.3c0.3,0.5,0.6,0.8,0.9,1.1c-0.5-0.8-0.9-1.5-1.2-2.2
		c0-0.7,0-1.3,0-1.8v-0.1c0.1,0.1,0.1,0.2,0.2,0.2c0.1,0.3,0.2,0.5,0.3,0.7c0.2,1,0.5,1.8,0.6,2.4c-0.2-0.9-0.3-1.8-0.5-2.7
		c0,0.1,0.1,0.1,0.2,0.2c-0.1-0.1-0.1-0.2-0.2-0.3c-0.1-0.3-0.1-0.7-0.2-1c0.1,0.2,0.3,0.3,0.4,0.5c0.1,0.3,0.2,0.6,0.4,0.8
		c0.2,0.7,0.3,1.3,0.5,1.7l-0.2-1c0.3,1.4,0.6,2.6,0.8,3.4c-0.1-1-0.3-1.9-0.5-2.8c0,0,0,0.1,0,0.1c0-0.1,0-0.1,0-0.2
		c-0.1-0.4-0.1-0.9-0.2-1.3c0.2,0.2,0.3,0.4,0.4,0.5c-0.2-0.3-0.3-0.6-0.5-0.8c-0.1-0.7-0.3-1.4-0.4-2.1c0.3,0.4,0.5,0.7,0.7,0.9
		c-0.3-0.5-0.5-1-0.8-1.4c0-0.3-0.1-0.6-0.1-0.9c0.5,0.8,1,1.5,1.4,1.9l-0.2-0.4c0.4,0.6,0.7,1.1,1,1.4c-1.2-2.2-2-3.8-2.5-5.1
		c0,0,0-0.1,0-0.1c0-0.1,0-0.1,0-0.1c0-0.3,0-0.6,0-0.9c0.1,0.1-0.5,0.1-0.4,0.2l-0.8-0.2l0,0c0,0.2,0.9,0.3,1,0.4
		c0.3,1,0.8,1.8,0.9,2.4c-0.1-0.8-0.1-1.5-0.3-2.2c0.1,0.1,0.2,0.1,0.3,0.2c-0.1-0.1-0.1-0.2-0.2-0.3c-0.1-0.5-0.2-1.1-0.3-1.6
		c0.2,0.2,0.3,0.3,0.5,0.4c0.1,1.1,0.2,1.9,0.2,2.6c0-0.7,0-1.3,0-1.9c0.2,0.8,0.4,1.6,0.6,2.1l-0.2-0.9c0.1,0.3,0.1,0.6,0.2,0.9
		c0,0.7-0.1,1.3-0.1,1.8c0.1-0.5,0.2-1,0.2-1.5c0.2,0.7,0.3,1.3,0.4,1.8c-0.1-0.8-0.3-1.6-0.4-2.3c0.2-2-0.9-3.8-1.1-5.4
		c-0.3-1.7-1.8-3.2-1.8-4.6c0,0,0,0,0,0c2.9,1,2.1,2,2.1,2.8c0.4,1.3,1.1,2.4,1.4,3.1c-0.8-3.1-1.4-5.7-1.9-8.1c0-1,0-2.2,0-3.2
		c0.1-0.1,0.2-0.2,0.2-0.4c0.1,0.2,0.3,0.3,0.4,0.5c-0.1-0.2-0.2-0.4-0.3-0.6c0.1-0.2,0.2-0.4,0.2-0.6c0.1,0.2,0.3,0.4,0.4,0.5
		c0,0.2,0.1,0.4,0.1,0.6c-0.1,0.5-0.4,1-0.6,1.5c0.2-0.2,0.5-0.6,0.7-1.1c0.1,1.1,0.2,2,0.3,2.6c0-1.1,0-2.1-0.1-3.1c0,0,0,0,0-0.1
		c0.2,0.2,0.3,0.5,0.5,0.7c0.1,0.8,0.2,1.4,0.2,2c0-0.3,0-0.6,0-0.9c0.1,1.3,0,2.4,0,3.2c0.4-2.4,0.2-4.4,0-6.2
		c0-0.3-0.1-0.5-0.1-0.8c0,0.1,0.1,0.1,0.1,0.2c0.2,1,0.4,1.8,0.5,2.4c0-0.6-0.1-1.2-0.1-1.7c0.1,0.4,0.2,0.8,0.3,1.1
		c0.2,0.9,0.2,1.7,0.2,2.3c0.1-1,0-2-0.1-2.8l0.2,0.8c0-0.4-0.1-0.8-0.1-1.2c0,0,0,0.1,0.1,0.1c0-0.1,0-0.1-0.1-0.2
		c0-0.3-0.1-0.6-0.1-0.9c0.2,0.8,0.3,1.4,0.4,1.9c0-0.3,0-0.5-0.1-0.8c0.2,1.2,0.2,2.1,0.2,2.8c0.1-0.7,0.1-1.4,0-2
		c0.1,0.6,0.2,1.2,0.2,1.7c0,0.9-0.1,1.7-0.3,2.3c0.4-1.2,0.5-2.3,0.5-3.3s-0.2-1.9-0.3-2.7c-0.3-1.1-0.6-2.1-0.9-3
		c0.1,0.2,0.2,0.4,0.3,0.6c-0.2-0.4-0.3-0.8-0.5-1.2c-0.2-0.6-0.3-1.1-0.5-1.7c0-0.1,0-0.3-0.1-0.4c0.6,1.2,1.1,2.1,1.5,2.7
		l-0.3-0.7c0.5,1,0.9,1.8,1.1,2.4c-0.6-1.7-1.3-3.2-1.8-4.5c0.2,0.2,0.4,0.4,0.5,0.6c1,1-1.9-6.9-2.8-11.2s1.2-8.9,2.2-11.9
		c0.9-3,3.2-5.1,3.8-10.1C357,33.1,354.5,27,354.5,27z M67.2,246.6c-0.3,0-0.6-0.1-0.8-0.1c0.5-0.1,1-0.2,1.7-0.4
		c0.1,0,0.2,0,0.2,0.1c-0.4,0.1-0.8,0.2-1.3,0.3c0.3,0,0.8-0.1,1.4-0.2C68.1,246.3,67.6,246.5,67.2,246.6z M69.5,252.9
		c0.2-0.2,0.4-0.3,0.5-0.5c0.3,0.1,0.5,0.2,0.7,0.4c0.3,0.2,0.5,0.4,0.8,0.6C70.8,253.2,70.1,253,69.5,252.9z M70.6,245.5
		c-0.6,0.2-1.3,0.4-2,0.6c-0.1,0-0.2,0-0.3-0.1c1-0.3,2.2-0.6,3.5-1.1c0.3,0,0.5-0.1,0.8-0.2C71.9,245,71.3,245.3,70.6,245.5z
		 M87.8,235c-0.3,0.2-0.6,0.3-1,0.5c0.5-0.4,1-0.9,1.6-1.5L87.8,235z M104.1,211.7C104.1,211.8,104.1,211.8,104.1,211.7
		c-0.5,0.7-0.9,1.4-1.4,2.1c0.5-1,0.9-2,1.4-2.9l0.8-1.1c-0.2,0.6-0.5,1.1-0.7,1.7c-0.3,0.3-0.5,0.7-0.8,1
		C103.6,212.3,103.8,212.1,104.1,211.7z M105.9,208.4c0.1-0.1,0.1-0.2,0.2-0.3c-0.3,0.6-0.5,1.2-0.7,1.7c-0.2,0.3-0.4,0.5-0.5,0.8
		C105.2,209.8,105.5,209.1,105.9,208.4l0.3-0.5C106.1,208.1,106,208.3,105.9,208.4z M116.5,258.4c0.2-0.1,0.4-0.2,0.6-0.3
		c-0.4,0.2-0.9,0.4-1.4,0.5c-0.3,0-0.5,0-0.8,0c0.6-0.5,1.1-1,1.5-1.4l0.7-0.7c0.4-0.2,0.8-0.5,1.2-0.8c0,0.2,0,0.3,0,0.5
		c-0.7,0.8-1.4,1.5-2.3,1.7c0.7-0.1,1.1-0.4,1.4-0.6c0.3-0.3,0.6-0.5,0.9-0.8l0,0c0,0.2,0,0.2,0,0.3c0,0,0-0.1,0.1-0.4
		c0.4-0.4,0.7-0.7,1-1.1c-0.1,0.2-0.2,0.4-0.3,0.5l0.5-0.8l0.1-0.1c0,0-0.1,0.1-0.1,0.1c0.1-0.1,0.1-0.1,0.1-0.1l0.1-0.1
		C118.7,256.5,117.7,257.8,116.5,258.4z M130,248c-0.4,0.8-0.7,1.5-1,2c-0.2,0.3-0.4,0.6-0.7,0.9c0.2-0.6,0.5-1.2,0.7-1.8
		c0.4-0.5,0.6-1.1,0.9-1.6c0.3-0.7,0.6-1.3,0.8-1.9c-0.1,0.4-0.2,0.8-0.3,1.1c0.2-0.6,0.4-1.1,0.6-1.6l0,0
		C130.7,246.2,130.4,247.1,130,248z M134.9,241.9c-0.1,0.3-0.3,0.6-0.4,0.9c-0.1-0.2-0.2-0.4-0.3-0.5c0.1-0.4,0.3-0.8,0.4-1.1
		c0.1-0.2,0.2-0.5,0.3-0.7c-0.1,0.6-0.2,1-0.3,1.3c0.2-0.5,0.3-0.9,0.5-1.4c0.1,0.1,0.1,0.1,0.2,0.2c-0.2,0.8-0.4,1.4-0.6,1.9
		L134.9,241.9z M128.8,168.8c-0.3,0.3-0.6,0.6-0.9,0.9c0.4-0.8,0.9-1.5,1.4-2.1l0.4-0.3C129.3,167.8,129,168.3,128.8,168.8z
		 M136.5,240.5c0.1-0.6,0.2-1.2,0.4-1.8c0.1-0.4,0.2-0.7,0.3-1c0.1-0.1,0.2-0.2,0.3-0.3C137,238.6,136.7,239.7,136.5,240.5z
		 M206.3,213.5c-0.2,0.2-0.4,0.3-0.6,0.4l0.4-0.2c-0.5,0.3-0.9,0.6-1.2,0.8c0.1-0.4,0.2-0.7,0.4-1c0.1,0,0.3,0,0.4,0
		c0,0,0,0.1-0.1,0.1c0-0.1,0.1-0.1,0.1-0.1c0.1,0,0.2,0,0.3,0c-0.1-0.1-0.2-0.1-0.3-0.1c0.1-0.1,0.1-0.2,0.2-0.3
		c0.3-0.1,0.5-0.3,0.7-0.4C206.6,213.1,206.4,213.3,206.3,213.5z M214.4,212.1c0.2,0.1,0.3,0.1,0.5,0.2c-0.1,0.1-0.2,0.1-0.3,0.2
		c0.1-0.1,0.2-0.1,0.3-0.2c0.2,0.1,0.4,0.1,0.6,0.2c-0.1,0.1-0.2,0.1-0.3,0.2c-0.3,0-0.7-0.1-1.1-0.2
		C214.3,212.4,214.3,212.3,214.4,212.1z M213.1,212.6c0.3,0.1,0.6,0.2,0.9,0.3c0,0.1,0,0.1,0,0.1c-0.6,0.1-1.3,0.2-1.8,0.3
		C212.5,213,212.8,212.8,213.1,212.6z M211.1,214c0.3-0.2,0.5-0.3,0.7-0.5c0.8,0,1.5-0.1,2.1-0.2c0,0.1,0,0.2,0,0.3
		C212.8,213.8,211.9,213.9,211.1,214z M237.4,213c0.7-0.2,1.4-0.4,1.9-0.5c0.2,0,0.2,0.1,0.2,0.2C239,212.8,238.2,212.9,237.4,213z
		 M248.4,101.2c-0.3,0.1-0.5,0.3-0.8,0.4c0.4-0.7,0.7-1.3,1.1-1.9c0.2-0.2,0.4-0.3,0.6-0.5C248.9,100,248.6,100.7,248.4,101.2z
		 M250,99.9c-0.2,0.2-0.3,0.4-0.5,0.6c-0.2,0.1-0.4,0.2-0.6,0.4c0.4-0.6,0.7-1.1,1-1.6l0.4-0.2C250.2,99.4,250.1,99.7,250,99.9z
		 M249.7,98.6c-0.2,0.2-0.5,0.4-0.7,0.6c0.5-0.8,1-1.6,1.5-2.2l0.4-0.3C250.4,97.4,250,98,249.7,98.6z M252.5,93.8
		c-0.4,0.3-0.6,0.4-0.8,0.4c0.5-0.6,1-1.2,1.5-1.8C252.9,92.9,252.7,93.4,252.5,93.8z M268.3,71.1c-0.4,0.1-0.8,0.3-1.2,0.5
		c0.5-0.4,1.1-0.8,1.6-1.1c0.3-0.1,0.6-0.2,0.9-0.3C269.2,70.5,268.7,70.8,268.3,71.1z M324,171.6c-0.1,0.6-0.3,1.3-0.6,1.9l0.3-3.1
		c0,0.1,0.1,0.2,0.2,0.3C324,170.9,324,171.3,324,171.6z M326.1,169.5l-0.3,2.3c0-1.3-0.1-2.4-0.1-3.4c0.1-0.9,0.2-1.7,0.2-2.5
		c0.1,0.1,0.1,0.2,0.2,0.3c0,1.7-0.1,3.2-0.1,4.1L326.1,169.5z M331.1,145.4c-0.1,0.6-0.3,1.1-0.4,1.5c0-1.1,0.1-2.1,0.3-3.1
		c0.1-0.1,0.2-0.2,0.2-0.3C331.1,144.1,331.1,144.8,331.1,145.4z M337.8,135.4c0,0.6,0,1.1-0.1,1.5c-0.1-0.4-0.3-0.9-0.4-1.3
		c0.1-0.5,0.2-0.9,0.3-1.4c0,0.8,0,1.4,0,1.9L337.8,135.4z M337.4,135.5c0-0.2-0.1-0.3-0.1-0.4c0-0.2,0-0.4,0-0.6
		c0.1-0.3,0.3-0.6,0.4-0.9C337.6,134.4,337.5,135,337.4,135.5z M338.1,135c0.1-0.9,0.2-1.8,0.3-2.6c0.1-0.2,0.2-0.4,0.3-0.7
		C338.5,133,338.2,134.1,338.1,135z M349.2,104.5c0.1,0.7,0.3,1.4,0.4,2.1c0,0.3,0,0.6,0,0.9c-0.1-0.4-0.3-0.8-0.4-1.3
		C349.3,105.5,349.2,105,349.2,104.5z M350.9,87.5c0.2,0.7,0.3,1.3,0.4,1.9c0.3,1.4,0.4,2.5,0.5,3.4c-0.4-2.1-0.7-3.8-1-5.4
		C350.8,87.5,350.8,87.5,350.9,87.5z M351.9,76.8c0,0.1,0,0.3,0,0.4c0,0.3-0.1,0.6-0.1,0.8c-0.1-0.6-0.1-1.2-0.3-1.8
		C351.6,76.4,351.7,76.6,351.9,76.8C351.8,76.7,351.9,76.8,351.9,76.8z"/>
	<path id="XMLID_98_" class="st1" d="M266.2,72.3C266.2,72.3,266.2,72.3,266.2,72.3C266.3,72.3,266.3,72.3,266.2,72.3
		C266.3,72.3,266.3,72.3,266.2,72.3z"/>
	<path id="XMLID_97_" class="st1" d="M127.8,166.6c0.8-0.4,1.8-1.1,3-1.7c-0.2,0.2-0.4,0.3-0.6,0.5
		C129.4,165.7,128.7,166.1,127.8,166.6z"/>
	<path id="XMLID_96_" class="st1" d="M202.9,213.1c0.3-0.7,0.5-1.1,0.5-1.1s0,0,0,0l0.1,0.3C203.2,212.6,203,212.9,202.9,213.1z"/>
	<path id="XMLID_95_" class="st1" d="M203.7,212.1C203.7,212.2,203.7,212.2,203.7,212.1l-0.1-0.1l0,0l0.1-0.1L203.7,212.1z"/>
	<path id="XMLID_94_" class="st1" d="M206.3,212.1c0.2-0.2,0.4-0.3,0.6-0.4c-0.1,0.1-0.2,0.3-0.3,0.4c-0.3,0.2-0.5,0.4-0.7,0.6
		C206,212.4,206.1,212.3,206.3,212.1z"/>
	<path id="XMLID_93_" class="st1" d="M205.8,212.7l0.4-0.2C206,212.6,205.9,212.7,205.8,212.7C205.7,212.7,205.8,212.7,205.8,212.7z
		"/>
	<path id="XMLID_92_" class="st1" d="M205.6,213.4C205.5,213.4,205.5,213.4,205.6,213.4c0.1-0.1,0.2-0.2,0.4-0.4c0,0,0,0.1-0.1,0.1
		C205.8,213.2,205.7,213.3,205.6,213.4z"/>
	<path id="XMLID_91_" class="st1" d="M205.8,213.3c0,0.1-0.1,0.1-0.1,0.1c0,0-0.1,0-0.1,0C205.7,213.4,205.8,213.3,205.8,213.3z"/>
	<path id="XMLID_90_" class="st1" d="M205.6,213C205.6,213,205.6,213,205.6,213L205.6,213c0.1,0,0.1-0.1,0.1-0.1
		c-0.1,0.1-0.2,0.2-0.4,0.3c0-0.1,0.1-0.1,0.1-0.2C205.6,213,205.6,213,205.6,213z"/>
	<path id="XMLID_89_" class="st1" d="M204.3,213.1c0.2-0.2,0.3-0.3,0.4-0.5c0,0,0,0,0,0c-0.1,0.2-0.1,0.4-0.1,0.6
		C204.5,213.2,204.4,213.2,204.3,213.1z"/>
	<path id="XMLID_88_" class="st1" d="M204.7,213.2c0.1-0.3,0.2-0.6,0.3-0.8c0.1-0.1,0.2-0.1,0.4-0.2c0,0,0,0.1,0,0.1
		c0,0-0.1,0-0.1,0.1c0,0,0,0,0.1,0c-0.1,0.4-0.2,0.7-0.3,1C204.9,213.3,204.8,213.2,204.7,213.2z"/>
	<path id="XMLID_87_" class="st1" d="M207,212.4c-0.3,0.2-0.6,0.4-0.8,0.6c0,0,0.1-0.1,0.1-0.1C206.5,212.7,206.8,212.5,207,212.4
		C207,212.4,207,212.4,207,212.4z"/>
	<path id="XMLID_86_" class="st1" d="M207.1,213c0.2-0.3,0.5-0.5,0.7-0.7c0.3-0.2,0.7-0.3,1-0.4c0.1,0,0.2,0,0.3,0
		C208.4,212.2,207.7,212.6,207.1,213z"/>
	<path id="XMLID_85_" class="st1" d="M214.3,212.9c-0.1,0-0.1,0-0.2,0c0,0,0-0.1,0-0.1C214.2,212.9,214.3,212.9,214.3,212.9z"/>
	<path id="XMLID_84_" class="st1" d="M214.1,212.5L214.1,212.5l0-0.1C214.1,212.4,214.1,212.5,214.1,212.5z"/>
	<path id="XMLID_83_" class="st1" d="M213.6,212.3c0.1-0.1,0.2-0.2,0.3-0.2c0.1,0,0.1,0,0.1,0c0,0,0,0,0,0c0,0.2,0,0.3-0.1,0.5
		c-0.2,0-0.3-0.1-0.5-0.1C213.6,212.4,213.6,212.3,213.6,212.3z"/>
	<path id="XMLID_82_" class="st1" d="M213.5,212.3C213.5,212.3,213.5,212.4,213.5,212.3C213.5,212.4,213.5,212.4,213.5,212.3
		C213.5,212.4,213.5,212.3,213.5,212.3z"/>
	<path id="XMLID_81_" class="st1" d="M211.4,213.4C211.4,213.4,211.4,213.4,211.4,213.4C211.4,213.4,211.4,213.4,211.4,213.4
		L211.4,213.4z"/>
	<path id="XMLID_80_" class="st1" d="M211.3,213.5C211.4,213.5,211.4,213.5,211.3,213.5C211.4,213.6,211.3,213.6,211.3,213.5
		L211.3,213.5z"/>
	<path id="XMLID_79_" class="st1" d="M214,213.6c0-0.1,0-0.2,0.1-0.3c0.2,0,0.4-0.1,0.6-0.1c-0.1,0.1-0.3,0.2-0.4,0.3
		C214.1,213.6,214,213.6,214,213.6z"/>
	<path id="XMLID_78_" class="st1" d="M214.3,213.5c0.2-0.1,0.4-0.2,0.6-0.3c0.2,0,0.3,0,0.5-0.1l0.4,0.1
		C215.3,213.3,214.8,213.4,214.3,213.5z"/>
	<path id="XMLID_77_" class="st1" d="M225,211.6c-0.3,0-0.6,0-0.9,0.1c0,0,0,0,0,0c0.4-0.1,0.9-0.2,1.3-0.2c0,0,0,0,0.1,0
		C225.3,211.4,225.1,211.5,225,211.6z"/>
	<path id="XMLID_76_" class="st1" d="M247.8,212.2c-0.1,0.1-0.2,0.1-0.3,0.2c-0.3,0.1-0.5,0.1-0.8,0.2c0,0,0,0,0,0
		c0,0,0.1-0.1,0.1-0.1C247.2,212.3,247.5,212.3,247.8,212.2C247.8,212.2,247.8,212.2,247.8,212.2z"/>
	<path id="XMLID_75_" class="st1" d="M247.8,214c0,0-0.1,0-0.1,0c0.1-0.1,0.1-0.1,0.2-0.2C247.9,213.9,247.8,213.9,247.8,214z"/>
	<path id="XMLID_74_" class="st1" d="M241,106c-0.1,0-0.2,0-0.3,0.1c0.3-0.2,0.5-0.3,0.8-0.5l0.1,0C241.4,105.7,241.2,105.9,241,106
		z"/>
	<path id="XMLID_73_" class="st1" d="M243.2,104.1c-0.1,0-0.2,0-0.3-0.1c0.2,0,0.4-0.1,0.7-0.1C243.5,103.9,243.4,104,243.2,104.1z"
		/>
	<path id="XMLID_72_" class="st1" d="M243.8,105.6C243.8,105.6,243.8,105.6,243.8,105.6C243.8,105.6,243.8,105.6,243.8,105.6
		C243.8,105.6,243.8,105.6,243.8,105.6z"/>
	<path id="XMLID_71_" class="st1" d="M248.1,104.7c-0.1,0.1-0.3,0.2-0.4,0.4c0.1-0.1,0.2-0.3,0.3-0.4L248.1,104.7
		C248.1,104.6,248.1,104.6,248.1,104.7z"/>
	<path id="XMLID_70_" class="st1" d="M248.3,101.6C248.3,101.6,248.3,101.6,248.3,101.6L248.3,101.6
		C248.3,101.6,248.3,101.6,248.3,101.6C248.3,101.6,248.3,101.6,248.3,101.6z"/>
	<path id="XMLID_69_" class="st1" d="M249,101.3c-0.1,0.1-0.3,0.1-0.4,0.2c0,0,0,0,0,0C248.7,101.4,248.9,101.3,249,101.3
		C249,101.3,249,101.3,249,101.3z"/>
	<path id="XMLID_68_" class="st1" d="M249.9,101c-0.1,0-0.2,0.1-0.3,0.1c0,0,0,0,0-0.1c0-0.1,0.1-0.1,0.1-0.2l0.3-0.2
		C250,100.8,249.9,100.9,249.9,101z"/>
	<path id="XMLID_67_" class="st1" d="M250.2,98.9c0.2-0.3,0.4-0.6,0.7-0.9c0,0,0,0,0,0C250.6,98.3,250.4,98.7,250.2,98.9z"/>
	<path id="XMLID_66_" class="st1" d="M261.5,212.1c-0.1,0-0.1,0-0.2,0.1L261.5,212.1C261.5,212.1,261.5,212.1,261.5,212.1z"/>
	<path id="XMLID_65_" class="st1" d="M252.7,93.6L252.7,93.6L252.7,93.6C252.7,93.6,252.7,93.6,252.7,93.6z"/>
	<path id="XMLID_64_" class="st1" d="M251.8,93.8c0.5-0.7,0.9-1.3,1.3-1.9c0.1,0,0.1,0,0.2-0.1C252.8,92.5,252.3,93.2,251.8,93.8z"
		/>
	<path id="XMLID_63_" class="st1" d="M253.5,91.6c-0.1,0.1-0.2,0.1-0.3,0.2c0.1,0,0.1-0.1,0.2-0.1c0,0,0,0,0,0
		c-0.1,0-0.2,0.1-0.3,0.1c0.1-0.1,0.2-0.2,0.3-0.4c0.1-0.1,0.3-0.2,0.4-0.2C253.7,91.3,253.6,91.5,253.5,91.6z"/>
	<path id="XMLID_62_" class="st1" d="M254.8,91C254.8,91,254.9,90.9,254.8,91c0.1-0.1,0.1-0.1,0.1-0.1
		C254.9,90.9,254.8,90.9,254.8,91z"/>
	<path id="XMLID_61_" class="st1" d="M254.4,90.4c-0.2,0.1-0.4,0.2-0.5,0.3c0.3-0.4,0.6-0.9,0.9-1.3l0.2,0
		C254.8,89.8,254.6,90.1,254.4,90.4z"/>
	<path id="XMLID_60_" class="st1" d="M255.4,88.9l-0.4,0.3c0,0,0.1-0.1,0.1-0.1l0.4-0.3C255.5,88.8,255.4,88.8,255.4,88.9z"/>
	<path id="XMLID_59_" class="st1" d="M260.2,82.2C260.2,82.2,260.2,82.2,260.2,82.2l0.1-0.1C260.3,82.1,260.2,82.2,260.2,82.2z"/>
	<path id="XMLID_58_" class="st1" d="M261.9,80.7c-0.1,0.1-0.2,0.2-0.3,0.3c-0.1,0.1-0.3,0.3-0.5,0.4l1-1.1
		C262.1,80.5,262,80.6,261.9,80.7z"/>
	<path id="XMLID_57_" class="st1" d="M264.1,77.3c-0.2,0.1-0.4,0.2-0.6,0.4c0.1-0.1,0.2-0.3,0.4-0.4l0.5-0.3
		C264.3,77.1,264.2,77.2,264.1,77.3z"/>
	<path id="XMLID_56_" class="st1" d="M270.2,69.7l0.4-0.1c-0.5,0.2-0.9,0.4-1.4,0.6C269.5,70,269.9,69.8,270.2,69.7z"/>
	<path id="XMLID_55_" class="st1" d="M270.6,70.7c-0.2,0-0.3,0-0.5,0.1c0.3-0.1,0.5-0.2,0.8-0.3C270.8,70.5,270.7,70.6,270.6,70.7z"
		/>
	<path id="XMLID_54_" class="st1" d="M271.2,70.6c0.3-0.2,0.6-0.5,0.9-0.7c0,0,0.1,0,0.1,0c-0.3,0.2-0.5,0.4-0.7,0.7
		C271.4,70.6,271.3,70.6,271.2,70.6z"/>
	<path id="XMLID_53_" class="st1" d="M284.5,209C284.4,209,284.4,209,284.5,209c-0.1,0.1-0.1,0.1,0,0.1c0,0.1-0.1,0.3-0.2,0.4
		c0.1-0.3,0.1-0.6,0.2-0.9c0,0.1,0,0.2,0.1,0.2C284.5,208.9,284.5,208.9,284.5,209z"/>
	<path id="XMLID_52_" class="st1" d="M272.5,70.4c-0.1,0-0.3,0.1-0.4,0.1c0.3-0.3,0.6-0.5,0.8-0.7c0.1,0,0.1,0.1,0.2,0.1
		C272.9,70.1,272.7,70.2,272.5,70.4z"/>
	<path id="XMLID_51_" class="st1" d="M286.9,215.3l0-0.3c0.2,0.3,0.4,0.7,0.6,1c0.1,0.3,0.1,0.6,0.2,0.8
		C287.4,216.3,287.1,215.8,286.9,215.3z"/>
	<path id="XMLID_50_" class="st1" d="M325.1,171.6c0-0.1-0.1-0.1-0.1-0.2c0.1-0.1,0.1-0.1,0.1-0.2C325,171.4,325,171.5,325.1,171.6z
		"/>
	<path id="XMLID_49_" class="st1" d="M325.5,166.4c0-0.1,0-0.3,0-0.4c0,0.2,0,0.4,0,0.6C325.6,166.6,325.6,166.5,325.5,166.4z"/>
	<path id="XMLID_48_" class="st1" d="M327.5,161.3C327.5,161.3,327.5,161.3,327.5,161.3c0,0.2,0,0.3,0,0.5c0,0,0-0.1,0-0.1
		C327.5,161.6,327.5,161.4,327.5,161.3z"/>
	<path id="XMLID_47_" class="st1" d="M327.2,161C327.3,161,327.3,161,327.2,161c0,0.1,0,0.2,0,0.3c0-0.1,0-0.1,0-0.1
		C327.2,161.1,327.2,161.1,327.2,161z"/>
	<path id="XMLID_46_" class="st1" d="M327.1,162.2C327.2,162.3,327.2,162.3,327.1,162.2c0,0.2,0,0.3,0,0.5
		C327.1,162.5,327.1,162.4,327.1,162.2z"/>
	<path id="XMLID_45_" class="st1" d="M327.2,163c0-0.2,0.1-0.4,0.1-0.5c0,0.1,0.1,0.1,0.1,0.2c0,0.3,0,0.5,0,0.7
		C327.3,163.3,327.3,163.1,327.2,163z"/>
	<path id="XMLID_44_" class="st1" d="M327.6,163.7c-0.1-0.1-0.1-0.2-0.2-0.3c0-0.2,0.1-0.4,0.1-0.6c0,0.1,0.1,0.1,0.2,0.2
		C327.6,163.3,327.6,163.5,327.6,163.7z"/>
	<path id="XMLID_43_" class="st1" d="M327.6,163.8C327.6,163.8,327.6,163.8,327.6,163.8l0.1-0.5
		C327.7,163.5,327.7,163.6,327.6,163.8z"/>
	<path id="XMLID_42_" class="st1" d="M327.8,162.4c0-0.1-0.1-0.2-0.1-0.3c0-0.2,0-0.4,0.1-0.5c0,0.1,0.1,0.1,0.1,0.2
		C327.8,162,327.8,162.2,327.8,162.4z"/>
	<path id="XMLID_41_" class="st1" d="M328,163.7c0-0.1-0.1-0.2-0.1-0.3v0c0,0.1,0.1,0.1,0.1,0.1C328,163.6,328,163.6,328,163.7z"/>
	<path id="XMLID_40_" class="st1" d="M328.1,163.4L328.1,163.4L328.1,163.4L328.1,163.4L328.1,163.4
		C328,163.4,328,163.4,328.1,163.4C328.1,163.4,328.1,163.4,328.1,163.4z"/>
	<path id="XMLID_39_" class="st1" d="M328,163C328,163,328,162.9,328,163c0-0.1,0-0.1,0-0.1C328,162.9,328,162.9,328,163z"/>
	<path id="XMLID_38_" class="st1" d="M328.1,163.1C328.1,163.1,328.1,163,328.1,163.1l0-0.4C328.1,162.8,328.1,162.9,328.1,163.1z"
		/>
	<path id="XMLID_37_" class="st1" d="M328.1,158.2c0,0.1,0,0.2,0,0.3c0-0.3,0-0.6-0.1-0.9l0.1-0.2
		C328.1,157.6,328.1,157.9,328.1,158.2z"/>
	<path id="XMLID_36_" class="st1" d="M331.1,142.7C331.1,142.7,331.1,142.8,331.1,142.7c0,0.1,0,0.1,0,0.2
		C331.1,142.8,331.1,142.8,331.1,142.7z"/>
	<path id="XMLID_35_" class="st1" d="M331.7,144.5c0,0.1,0.1,0.2,0.1,0.3c-0.1,0.3-0.2,0.7-0.3,1
		C331.6,145.3,331.7,144.9,331.7,144.5z"/>
	<path id="XMLID_34_" class="st1" d="M332.2,145.7c-0.1,0.3-0.3,0.6-0.4,0.8C331.9,146.2,332,145.9,332.2,145.7
		c-0.1,0-0.1,0.1-0.1,0.1c0-0.1,0-0.2,0-0.3c0,0,0,0,0,0c0,0,0,0,0,0.1C332.2,145.6,332.2,145.6,332.2,145.7z"/>
	<path id="XMLID_33_" class="st1" d="M336.9,131.2l0.1-0.2C336.9,131.1,336.9,131.2,336.9,131.2c0,0.1,0,0.1,0,0.1
		C336.9,131.3,336.9,131.3,336.9,131.2z"/>
	<path id="XMLID_32_" class="st1" d="M337.3,136C337.3,136,337.3,136,337.3,136C337.3,136,337.3,136,337.3,136
		C337.3,136,337.3,136,337.3,136z"/>
	<path id="XMLID_31_" class="st1" d="M337.8,137.3C337.8,137.3,337.8,137.3,337.8,137.3c0-0.1-0.2-0.4-0.4-0.9c0-0.1,0-0.2-0.1-0.3
		c0,0,0,0,0,0c0.1,0.4,0.3,0.8,0.4,1C337.8,137.1,337.8,137.2,337.8,137.3z"/>
	<path id="XMLID_30_" class="st1" d="M338,135.9c0-0.1,0-0.2,0-0.3l0.2-0.6C338.1,135.3,338,135.6,338,135.9z"/>
	<path id="XMLID_29_" class="st1" d="M339.1,130.3c-0.1,0.2-0.1,0.4-0.2,0.6l0-0.1c0,0.1,0,0.1,0,0.2l-0.5,1.4
		c0.1-0.4,0.1-0.8,0.2-1.2c0.1-0.4,0.2-0.9,0.4-1.3C339,130,339.1,130.1,339.1,130.3C339.1,130.2,339.1,130.3,339.1,130.3z"/>
	<path id="XMLID_28_" class="st1" d="M344.3,119.9C344.3,119.9,344.3,119.9,344.3,119.9c0,0,0,0.1,0.1,0.2
		C344.4,120.1,344.3,120,344.3,119.9z"/>
	<path id="XMLID_27_" class="st1" d="M348.4,107.4c0-0.3,0-0.6-0.1-0.9c0-0.1,0-0.2,0-0.3c0.1,0.2,0.1,0.3,0.2,0.4
		C348.5,106.8,348.4,107.1,348.4,107.4z"/>
	<path id="XMLID_26_" class="st1" d="M348.5,106.4c-0.1-0.3-0.2-0.6-0.3-0.9c0,0,0-0.1,0-0.1c0.1-0.1,0.1-0.2,0.2-0.4l0.1,0.8
		C348.5,106,348.5,106.2,348.5,106.4z"/>
	<path id="XMLID_25_" class="st1" d="M349.4,109.3c-0.1-0.8-0.1-1.6-0.2-2.3c0-0.2,0-0.3,0.1-0.5c0.1,0.3,0.3,0.7,0.4,0.9
		c0,0.2,0,0.3,0,0.5c0-0.1,0-0.3,0.1-0.4c0,0,0,0,0,0C349.6,108.3,349.5,108.9,349.4,109.3z"/>
	<path id="XMLID_24_" class="st1" d="M349.7,107.6C349.7,107.6,349.7,107.6,349.7,107.6c0-0.1,0-0.1,0-0.2
		C349.7,107.5,349.7,107.5,349.7,107.6z"/>
	<path id="XMLID_23_" class="st1" d="M349.4,97L349.4,97c0-0.1,0-0.2,0-0.3c0,0,0,0,0,0c0.1,0.4,0.2,0.7,0.3,1
		C349.6,97.5,349.5,97.2,349.4,97z"/>
	<path id="XMLID_22_" class="st1" d="M351.8,92.2c0,0.4,0,0.7,0,1c0-0.1,0-0.1,0-0.2C351.8,92.7,351.8,92.4,351.8,92.2z"/>
	<path id="XMLID_21_" class="st1" d="M350.2,91.6c0-0.2,0-0.4,0.1-0.6c0.1,0.4,0.2,0.7,0.3,1.1C350.5,91.9,350.3,91.7,350.2,91.6z"
		/>
	<path id="XMLID_20_" class="st1" d="M350.5,89.2c0.2,0.7,0.3,1.3,0.5,1.9c0,0,0,0.1,0,0.1c-0.2-0.2-0.3-0.4-0.5-0.6
		c0-0.1,0-0.2-0.1-0.3l0,0c0,0,0-0.1,0-0.1c-0.1-0.4-0.2-0.8-0.2-1.1c0-0.2,0-0.5,0-0.7C350.3,88.6,350.4,88.9,350.5,89.2z"/>
	<path id="XMLID_19_" class="st1" d="M351.4,77.6c-0.1-0.1-0.1-0.2-0.2-0.3c0-0.1,0.1-0.2,0.1-0.3C351.3,77.1,351.4,77.3,351.4,77.6
		z"/>
	<path id="XMLID_18_" class="st1" d="M350.5,76.1c0-0.2,0.1-0.3,0.1-0.5c0,0.2,0,0.5,0,0.7C350.6,76.2,350.5,76.2,350.5,76.1
		C350.5,76.1,350.5,76.1,350.5,76.1z"/>
	<path id="XMLID_17_" class="st1" d="M350.5,76.9L350.5,76.9L350.5,76.9L350.5,76.9z"/>
	<path id="XMLID_16_" class="st1" d="M350.6,78.5c0-0.1,0-0.2,0-0.3c0-0.1,0-0.1,0-0.2c0,0.1,0.1,0.1,0.1,0.1
		C350.7,78.3,350.7,78.4,350.6,78.5z"/>
	<path id="XMLID_15_" class="st1" d="M350.8,78.1c0-0.1-0.1-0.1-0.1-0.2c0-0.2,0.1-0.4,0.1-0.7c0.1,0.1,0.1,0.1,0.2,0.2
		C350.9,77.6,350.9,77.8,350.8,78.1z"/>
	<path id="XMLID_14_" class="st1" d="M350.9,76.7c0-0.4,0.1-0.7,0.1-1.1l0,0c0.1,0.3,0.1,0.6,0.2,0.8c0,0.2-0.1,0.4-0.1,0.6
		C351,76.9,350.9,76.8,350.9,76.7z"/>
	<path id="XMLID_13_" class="st1" d="M351.1,77.5c0.1,0.2,0.2,0.3,0.4,0.5c0,0,0,0,0,0.1L351.1,77.5z"/>
	<path id="XMLID_12_" class="st1" d="M351.3,75.3c0-0.1,0-0.1,0-0.2c0,0,0,0,0,0.1C351.3,75.2,351.3,75.3,351.3,75.3z"/>
	<path id="XMLID_11_" class="st1" d="M353,76.8l0,0.2C353,76.9,353,76.9,353,76.8C353,76.8,353,76.8,353,76.8z"/>
	<path id="XMLID_10_" class="st1" d="M352,77.7c0.1,0.5,0.2,0.9,0.2,1.3c-0.1-0.2-0.3-0.5-0.4-0.7C351.9,78.1,352,77.9,352,77.7z"/>
	<path id="XMLID_8_" class="st1" d="M351.8,76.6c-0.1-0.2-0.2-0.4-0.3-0.5c0-0.2,0.1-0.3,0.1-0.5C351.7,75.8,351.7,76.2,351.8,76.6z
		"/>
	<path id="XMLID_7_" class="st1" d="M351.5,86.8C351.5,86.8,351.5,86.8,351.5,86.8c0-0.1,0-0.1,0-0.1V86.8z"/>
	<path id="XMLID_6_" class="st1" d="M332.3,147.7C332.3,147.7,332.3,147.7,332.3,147.7l-0.6,0c0,0-0.1,0-0.2,0c0,0,0,0.1,0,0.1
		C331.7,147.8,331.9,147.8,332.3,147.7z"/>
	<path id="XMLID_5_" class="st1" d="M284.7,212.5c0,0.1,0,0.2-0.1,0.3c0,0,0.1-0.1,0.1-0.1C284.7,212.6,284.7,212.6,284.7,212.5
		L284.7,212.5z"/>
	<path id="XMLID_4_" class="st1" d="M222.4,212.8c0.4-0.2,0.8-0.4,1.3-0.6c-0.2,0.1-0.4,0.1-0.6,0.2
		C222.8,212.5,222.6,212.7,222.4,212.8z"/>
	<path id="XMLID_135_" class="st1" d="M331.2,148.3C331.2,148.2,331.2,148.2,331.2,148.3C331.3,148.2,331.3,148.2,331.2,148.3
		C331.3,148.3,331.3,148.3,331.2,148.3L331.2,148.3c0.1,0.2,0.1,0.4,0.1,0.5L331.2,148.3C331.3,148.3,331.3,148.3,331.2,148.3
		c0.1,1,0.2,1.8,0.3,2.3c0-1,0-1.9,0-2.8C330.7,148.1,331,148.1,331.2,148.3z M331.3,148.1c0,0.1,0,0.1,0,0.2v0L331.3,148.1z"/>
	<path id="XMLID_1_" class="st1" d="M328.9,162.8L328.9,162.8l-0.1,0.4c0.1,0.2,0.2,0.5,0.3,0.7C329,163.5,329,163.1,328.9,162.8z"
		/>
</g>
</svg>
