<?xml version="1.0" encoding="utf-8"?>
<!-- Generator: Adobe Illustrator 24.0.2, SVG Export Plug-In . SVG Version: 6.00 Build 0)  -->
<svg version="1.1" id="Layer_1" xmlns="http://www.w3.org/2000/svg" xmlns:xlink="http://www.w3.org/1999/xlink" x="0px" y="0px"
	 viewBox="0 0 1900 700" style="enable-background:new 0 0 1900 700;" xml:space="preserve">
<style type="text/css">
	.st0{fill:#0D081E;}
	.st1{fill:#060015;}
	.st2{fill:#FFFFFF;}
</style>
<path class="st0" d="M0,0h1999.5c0,0-311,246-1015.7,249S319,700,319,700H0V0z"/>
<path id="XMLID_11584_" class="st1" d="M0,705.3h327.2c-7.1-27.2-32.2-67.8-36.3-79.4c-6.5-18-10.3-33.5-37.3-21.9
	c-27.1,11.6-106.7,21.9-124,19.3c-17.3-2.5-39.3,1.3-70.1,19.3c-11,6.5-50.1,9.4-59.4,10.8C0.1,666.6,0,692.1,0,705.3z"/>
<g id="XMLID_133_">
	<path id="XMLID_131_" class="st2" d="M270.9,498.4c-0.2,0.4-0.2,0.7-0.4,1.1C270.6,499.2,270.8,498.8,270.9,498.4
		C271,498.4,271,498.4,270.9,498.4L270.9,498.4z"/>
	<path id="XMLID_130_" class="st2" d="M287.6,448.7v-0.7C287.5,448.3,287.5,448.6,287.6,448.7z"/>
	<path id="XMLID_232_" class="st2" d="M290,399.2c0,0-0.1-3.6-0.2-6.1c-0.1-2.5-0.3-3.4-0.7-3.9c-0.4-0.6-0.2-2.9-0.4-3.4
		c-0.2-0.6-2.9-1.9-4.6-1.6c-1.8,0.2-2.8,2.5-3,3.1c-0.2,0.6-0.8,0.3-2.4,1.6c-1.6,1.1-7.3,7-7.3,7s-8.6,0.5-14.3,3.7
		c-5.7,3.2-6.5,6.1-6.5,6.1s-0.6,0.4-2.5,0.7c-2,0.3-4.7,1.3-7.9,5.2c-3.2,3.9-4.9,6.3-4.9,6.3s-0.2-0.2-4.5,0.8
		c-4.4,1-9.9,4.4-9.9,4.4s0.4,1.6,3.3,3.6c1.9,1.3,3.2,2.5,3.8,3.3c-1.4,0.7-2.7,1.4-3.8,2c-0.9,0.2-2,0.6-3.1,0.9
		c-1.4,0.2-2.5,0.4-3,0.6c-0.8,0.2,0.7,0,2.9,0.3c0,0-0.1,0-0.1,0.1c-1.3,0.2-2.9,0.6-4.7,1.1c0.8-0.1,2.1-0.4,3.8-0.7
		c-0.9,0.6-1.6,1.1-2.1,1.6c-0.7,0.3-1.4,0.7-1.6,0.9c-0.2,0.1,0.2,0.1,1,0.1c-0.2,0.2-0.2,0.6-0.3,0.7c0.4-0.4,0.8-0.7,1.2-1
		c0.5-0.1,0.9-0.1,1.3-0.2c-1.5,1.1-2.8,2.4-3.8,3.5c-1.4,1-3,2-5.1,3.1c0.9-0.3,2.5-1.1,4.3-2.2c-0.1,0.1-0.2,0.2-0.2,0.3
		c-0.7,0.5-1.6,1-2.4,1.6c0.5-0.2,1.1-0.7,2-1.1c-1.1,1.2-1.9,2.3-2.3,2.9c1.1-1.3,2.1-2.4,3-3.4c0.2-0.1,0.3-0.2,0.5-0.3
		c-0.1,0.1-0.2,0.2-0.2,0.2c-0.1,0-0.2,0.1-0.2,0.1c0.1,0,0.1,0,0.2,0c-0.4,0.5-0.8,1-1.2,1.5c-0.2,0.1-0.3,0.2-0.5,0.2
		c0.1,0,0.2-0.1,0.4-0.1c-0.5,0.7-0.9,1.2-1.2,1.6c-0.9,0.7-1.8,1.2-1.8,1.2s0,0.2,0.1,0.2c-0.4,0.3-0.9,0.7-1.4,1.1
		c0.4-0.2,0.9-0.6,1.5-1c0.1,0,0.1,0,0.2,0c0,0,0.1,0,0.1,0.1c-0.6,0.6-1.1,1.2-1.6,1.8c-0.5,0.2-1,0.5-1.6,0.7
		c0.3-0.1,0.8-0.2,1.3-0.4c-0.2,0.3-0.5,0.7-0.7,1.1c-0.4,0.2-0.8,0.4-1.2,0.6c0.2-0.1,0.7-0.2,1.1-0.4c-0.1,0.1-0.2,0.2-0.2,0.3
		c-1.1,0.9-2.4,1.9-3.9,2.8c0.7-0.2,2-0.9,3.4-2c-0.2,0.4-0.5,0.7-0.7,1.1c-1,0.7-2.1,1.3-3.5,2c0.7-0.2,1.8-0.8,3.2-1.6
		c-0.5,0.7-0.8,1.4-1.1,1.9c-0.3,0.5-0.7,0.9-0.8,1.2c0.2-0.3,0.6-0.7,0.8-1c0.1,0,0.2,0,0.3,0c-0.6,0.7-1.1,1.3-1.5,2
		c-1.1,0.8-2.2,1.8-3.7,2.8c0.7-0.3,1.8-1.1,3.2-2c-0.3,0.6-0.7,1.1-0.9,1.6c-0.3,0.2-0.7,0.6-1.1,0.9c0.2-0.2,0.6-0.3,1-0.6
		c-0.2,0.6-0.4,1-0.6,1.3c-0.5,0.2-1,0.4-1.6,0.6c0.5,0,1.1-0.2,2-0.6l0,0c-1,0.4-1.9,0.8-2.7,1.3c-0.7,0.2-1.5,0.3-2.3,0.5
		c-0.5-0.1-0.9-0.2-1.5-0.3c-0.1,0-0.2,0.1-0.2,0.1c-1.2,0.5-2.2,1.2-2.9,1.9c-0.9,0.3-2,0.7-3.3,1.1c0.6-0.1,1.6-0.2,2.8-0.7
		c-0.2,0.2-0.4,0.5-0.7,0.7c-2,0.6-2.9,1.3-4.2,2.1c-0.1,0-0.2,0.1-0.2,0.1c0.1,0,0.1,0,0.2,0c-1.6,1.1-3.6,2.4-8.8,3.5
		c-9.3,2-11.5,0.4-18.8,2.8c-7.3,2.4-26.8,8.1-31.4,10.1c-0.3,0.2-0.7,0.3-1.1,0.5c-5.5,2.4-10.2,6.4-13.2,11.6
		c-0.3,0.6-0.7,1.1-0.9,1.7c-1.7,3.3-3,6.9-3.8,10.9c-0.8,0.6-1.8,1.2-2.8,1.8c0.4-0.2,1-0.4,1.6-0.8l-0.5,0.2
		c0.4-0.2,0.9-0.5,1.6-0.9c0,0.1,0,0.2-0.1,0.2c-0.5,0.3-1.1,0.7-1.6,1.1c0.4-0.2,0.9-0.5,1.6-0.9c0,0.1-0.1,0.2-0.1,0.3l0,0
		c-0.1,0.1-0.2,0.2-0.2,0.2c-0.5,0.3-1,0.7-1.6,1c0.3-0.1,0.7-0.3,1.1-0.6c-0.1,0.1-0.2,0.2-0.2,0.2c-0.5,0.3-1.1,0.7-1.7,1.2
		c-0.1,0.1-0.1,0.1-0.2,0.1c-1,0.6-2.1,1.2-3.5,2c0.3-0.1,0.7-0.3,1.2-0.6l-0.3,0.2c0.2-0.1,0.3-0.1,0.5-0.2
		c-0.7,0.5-1.5,1.1-2.4,1.6c0.4-0.2,1-0.6,1.6-1l-0.5,0.3c0.2-0.1,0.4-0.2,0.7-0.4c0.3-0.1,0.8-0.3,1.4-0.6
		c-0.2,0.2-0.6,0.3-0.8,0.6c-0.2,0.2-0.5,0.2-0.7,0.4c0.1-0.1,0.2-0.1,0.3-0.2c-0.3,0.2-0.6,0.4-0.9,0.7c0.3-0.2,0.7-0.4,1.2-0.7
		c-0.1,0.1-0.2,0.1-0.2,0.2c-0.3,0.2-0.7,0.6-1.1,0.9c-0.3,0.3-0.7,0.7-1.1,1.5c0.2-0.5,0.7-0.8,1.1-1.2c0.4-0.3,1-0.7,1.7-1.2
		c0.1-0.1,0.2-0.1,0.3-0.2c-0.1,0.1-0.2,0.2-0.3,0.2c-0.1,0-0.1,0.1-0.1,0.1h0.1c-0.6,0.4-1.1,0.8-1.7,1.2c0.3-0.2,0.7-0.4,1.3-0.7
		c-0.4,0.3-0.9,0.7-1.3,1.1c0.5-0.5,1.2-1.1,2.2-1.7c-0.2,0.2-0.3,0.3-0.4,0.5c-0.1,0.1-0.2,0.1-0.2,0.2c0.1,0,0.2-0.1,0.2-0.1
		c-0.1,0.1-0.2,0.2-0.2,0.3c-0.1,0.1-0.2,0.2-0.2,0.2c-0.4,0.3-0.8,0.7-1.2,1.3c0.2-0.3,0.7-0.7,1.1-1c0,0.1-0.1,0.1-0.1,0.2
		c0.1-0.1,0.1-0.2,0.2-0.2c0.2-0.2,0.5-0.4,0.7-0.6c-0.4,0.6-0.7,1.1-0.8,1.5c-1.1,1.1-2.3,2.3-3.8,3.6c0.4-0.3,1-0.7,1.6-1.4
		l-0.5,0.4c0.6-0.5,1.6-1.3,2.8-2.5l0,0l0,0c0.2-0.2,0.3-0.3,0.5-0.5c0,0.1,0,0.1,0,0.1c-0.1,0.1-0.2,0.2-0.3,0.3
		c-0.7,0.6-1.4,1.2-2.3,2c-0.9,0.8-1.9,1.7-2.9,2.8c-0.2,0.2-0.6,0.4-0.8,0.6c0.2-0.1,0.4-0.2,0.7-0.3c-0.5,0.5-1,1-1.5,1.6
		c-0.3,0.2-0.3,0.3,0.1,0.2c0.2-0.1,0.2-0.2,0.4-0.2c-0.8,0.9-1.9,1.9-3,3.2c0.2-0.2,0.7-0.7,1.1-1.1l-0.3,0.3
		c0.6-0.5,1.7-1.6,3-2.8l-0.2,0.2c-0.8,0.8-1.7,1.7-2.8,2.9c0.3-0.3,0.9-0.8,1.6-1.5c-0.2,0.3-0.5,0.7-0.7,1.2
		c-0.2,0.3-0.5,0.6-0.8,0.9c0.2-0.2,0.4-0.3,0.6-0.6c-0.2,0.2-0.2,0.5-0.3,0.7c-0.2,0.3-0.2,0.7-0.4,1c-0.5,0.5-1,1.1-1.6,1.7
		c0.2-0.2,0.6-0.6,1.1-1l-0.2,0.2c0.2-0.2,0.4-0.3,0.7-0.5c-0.1,0.2-0.2,0.4-0.2,0.5l-0.3,0.3c0.1-0.1,0.2-0.1,0.2-0.2
		c-0.2,0.2-0.4,0.5-0.7,0.8c-1,1.1-2.1,2.5-3.4,4.3l1.2-1.4l-0.3,0.4c0.2-0.2,0.7-0.7,1.1-1.2c-0.8,1.2-2.1,2.7-4,4.7
		c0.2-0.2,0.7-0.6,1.1-1l-0.2,0.3c0.6-0.5,1.6-1.4,2.7-2.6l-0.2,0.2c-0.7,0.8-1.5,1.7-2.5,2.8c0.5-0.4,1.2-1.1,2.1-2.1l-0.2,0.5
		c-1.3,1.2-2.1,1.9-1.7,1.7c0.1-0.1,0.2-0.1,0.4-0.2c-0.2,0.2-0.4,0.4-0.6,0.7c0.2-0.2,0.6-0.5,0.9-0.8c0.2-0.1,0.3-0.2,0.5-0.2
		c-0.1,0.2-0.2,0.3-0.2,0.5c-0.4,0.3-0.8,0.7-1.3,1.1c0.2-0.2,0.6-0.3,1-0.7l-0.2,0.2c0.2-0.1,0.3-0.2,0.5-0.3
		c0,0.1-0.1,0.2-0.1,0.3c0.1-0.1,0.1-0.2,0.2-0.3c0.1-0.1,0.2-0.1,0.2-0.2c-0.2,0.2-0.2,0.4-0.4,0.6c-0.1,0.1-0.2,0.2-0.2,0.2
		c0.1-0.1,0.2-0.1,0.2-0.2c-0.8,1.3-1.9,2.8-3.1,4.4c0.3-0.3,0.7-0.9,1.3-1.6l-0.3,0.5c0.1-0.1,0.2-0.2,0.3-0.3
		c-0.3,0.7-0.7,1.6-1.1,2.5c-0.4,0.5-0.7,1-1.2,1.6c0.2-0.2,0.5-0.5,0.7-0.8c-0.3,0.6-0.7,1.1-1.1,1.9l0.9-1.3l-0.2,0.4
		c0.1-0.1,0.2-0.2,0.2-0.3c-0.6,0.9-1.2,1.9-2,2.9c-0.1,0.1-0.1,0.1-0.1,0.1c-0.1,0.2-0.2,0.2-0.2,0.4c-1.3,1.9-2.9,4.1-4.7,6.9
		l1.6-2.2l-0.5,0.5c0.8-1.1,2.4-4.4,4.3-6l0,0l-0.2,0.7c-1.1,1.6-2.5,3.7-4.2,6c0.7-0.9,1.9-2.5,3.4-4.6l-0.6,1.1
		c-0.9,1.3-1.9,2.8-3,4.5c0.6-0.7,1.4-1.8,2.4-3.2c-0.3,0.7-0.7,1.4-0.8,2c-0.2,0.2-0.3,0.4-0.5,0.7c-0.1,0.1-0.2,0.2-0.2,0.3
		c-1.9,2.3-2.9,3.9-3.2,4.4c-2,2.5-4.6,5.5-8.3,9.6c0.5-0.5,1.2-1.2,2.1-2.2l-0.6,0.7c0.7-0.7,1.6-1.6,2.9-3
		c-0.7,0.8-1.4,1.7-2.2,2.7c-1.4,1.6-3.1,3.5-5.3,5.3c0.5-0.3,1.1-0.8,2-1.6l-0.6,0.5c1-0.7,2.7-2.4,4.8-4.7l-0.2,0.3
		c-0.4,0.5-0.8,1-1.3,1.5c-1,1.1-2.1,2.2-3.4,3.4c0.8-0.6,2.2-1.8,3.9-3.6l-0.2,0.4c-0.6,0.6-1.2,1.2-1.9,1.8
		c0.4-0.2,0.9-0.7,1.6-1.3l-0.4,0.4c0.1-0.1,0.2-0.2,0.3-0.2L73,568c-0.1,0.1-0.2,0.2-0.3,0.2c0.1-0.1,0.2-0.1,0.2-0.2
		c-0.7,0.7-1.4,1.6-2.2,2.3c-1,0.5-2,1-3.2,1.4c0.4-0.1,1.1-0.3,1.9-0.7l-0.5,0.2c0.3-0.1,0.7-0.2,1.2-0.5c-0.2,0.2-0.3,0.3-0.5,0.5
		c0.2-0.2,0.5-0.3,0.7-0.5c0.3-0.2,0.7-0.3,1.2-0.5l-0.2,0.2c-0.8,0.4-1.7,0.8-2.7,1.2c0.6-0.2,1.5-0.5,2.5-1l-0.2,0.2
		c-0.1,0.1-0.2,0.2-0.3,0.3c-0.7,0.4-1.6,0.7-2.5,1.1c0.5-0.2,1.2-0.4,2.1-0.7c-0.5,0.5-1.1,1.1-1.6,1.6c-0.1,0.1-0.1,0.1-0.2,0.2
		c-0.6,0.4-1.2,0.7-2,1.1h-0.1l-0.3-0.4c0,0-0.1,0-0.1,0.1c-0.7,0.2-1.5,0.4-2.2,0.5l-0.3,0.1c-1.1,0.6-2.4,1.1-4,1.9
		c-1,0.2-2.1,0.6-3.3,0.8c0.5-0.1,1.1-0.2,2-0.3l-0.6,0.2c0.2,0,0.4-0.1,0.6-0.1c-0.9,0.3-2,0.7-3,1.1c-0.2-0.1-0.5-0.1-0.7-0.1
		c0.2,0,0.4,0.1,0.7,0.2c-0.4,0.2-0.8,0.2-1.3,0.4c-0.2,0-0.2,0-0.1,0c-0.6,0.2-1.1,0.3-1.7,0.5c0.5-0.1,1.1-0.2,1.9-0.4l0,0
		l-0.2,0.1c0.1,0,0.2-0.1,0.2-0.1c0,0,0,0,0.1,0c0.1,0.1,0.2,0.1,0.4,0.2c-0.3,0.1-0.7,0.2-1.1,0.3c0.3-0.1,0.7-0.2,1.1-0.2
		c0.2,0.1,0.3,0.2,0.6,0.2c-0.7,0.2-1.5,0.5-2.4,0.7c0.6-0.1,1.5-0.3,2.6-0.6c0.1,0,0.2,0.1,0.2,0.1c-0.1,0-0.2,0-0.2,0.1
		c0.1,0,0.2,0,0.2,0c-0.8,0.4-1.4,0.8-1.9,1.1l2-1.1c0.2,0.1,0.3,0.1,0.5,0.2c-0.6,0.2-1.2,0.5-2,0.7c0.3-0.1,0.7-0.2,1.3-0.3
		l-0.3,0.2c0.2,0,0.3-0.1,0.5-0.1c-0.9,0.7-1.6,1.1-2.1,1.6c0.7-0.4,1.2-0.7,1.7-1.1c0.2,0,0.3-0.1,0.6-0.2c0,0,0.1,0,0.1,0.1
		c-0.2,0.1-0.3,0.2-0.5,0.3l0,0l0,0c-0.2,0.1-0.3,0.2-0.5,0.2c0.1-0.1,0.2-0.1,0.3-0.1c-0.1,0.1-0.1,0.1-0.2,0.1
		c-0.1,0-0.2,0.1-0.2,0.1c0.1,0,0.2,0,0.2,0c-0.3,0.2-0.7,0.5-0.9,0.7l0.6-0.4c-0.9,0.6-1.6,1.1-2,1.5c1.1-0.7,2.2-1.4,3.2-2
		c0.2-0.1,0.3-0.1,0.5-0.2c0.1,0,0,0,0.1,0h-0.1l0,0V580c0.1,0,0.1,0,0.2,0c-0.1,0-0.1,0.7-0.2,0.7c-0.2,0-0.2,0.2-0.4,0.2
		c0.1,0,0.2,0.2,0.3,0.2c-0.4,0.1-0.7,0.3-1,0.5c0.2-0.1,0.2-0.1,0.3-0.1c-0.6,0.2-1,0.5-1.1,0.7c0.5-0.2,1.1-0.4,1.6-0.6
		c-0.2,0.2-0.2,0.3-0.4,0.4c0.2-0.2,0.3-0.2,0.5-0.4c0.2,0,0.3-0.1,0.5-0.1c-0.1,0.1-0.1,0.1-0.2,0.2l0,0l0,0l0,0l0,0l0,0
		c-0.1,0-0.1,0.1-0.1,0.1c-0.2,0-0.2,0.1-0.4,0.1c0.1,0,0.2,0,0.3,0c-0.2,0.1-0.2,0.2-0.3,0.3c-0.6,0.2-0.9,0.3-0.4,0.5
		c0.1,0,0.2,0.1,0.2,0.1c-0.3,0.2-0.6,0.2-0.7,0.4c0.2-0.1,0.6-0.2,0.8-0.3l0,0c0,0,0,0,0-0.1c0,0,0,0,0.1,0
		c0.1,0.1,0.2,0.2,0.3,0.2c-0.2,0.3-0.5,0.7-0.6,0.9c0.2-0.2,0.5-0.6,0.7-0.8c0.1,0.1,0.1-0.9,0.2-0.8l-0.1-0.9l0,0c0,0,0,1,0.1,1
		c-0.1,0.1-0.1,0.7-0.2,0.7c-0.1,0-0.2,0.2-0.2,0.2c0.1,0,0.2,0.2,0.2,0.2c-0.1,0.1-0.1,0.2-0.1,0.2c0.1-0.1,0.1-0.1,0.2-0.1
		c0.2,0.1,0.4,0.2,0.6,0.2c-0.2,0.2-0.2,0.3-0.3,0.4c-0.5-0.1-0.9-0.2-1.1-0.2c0.4,0.1,0.7,0.2,1.1,0.2l0,0l0,0
		c0.7,0.2,1.2,0.4,1.8,0.6c-0.2,0-0.4,0-0.6,0c0.3,0.1,0.7,0.1,0.9,0.2c0.2,0.1,0.2,0.1,0.3,0.2l0.2,0.2c-1.6-0.6-3-0.9-3.8-0.9
		l0.4,0.1c-0.6-0.1-1.1-0.2-1.4-0.1c0.9,0.1,1.7,0.3,2.4,0.6c0.2,0.1,0.5,0.2,0.7,0.2c-0.4-0.1-0.7-0.1-1.1-0.1
		c0.6,0.1,1.1,0.2,1.6,0.3c0.2,0.1,0.5,0.2,0.7,0.3c1.1,0.6,2,1.1,2.7,1.6h0.4c0.8,0.2,1.6,0.2,2.4,0.3c0.3,0.1,0.6,0.2,0.9,0.2
		c0.3,0.1,0.7,0.2,0.9,0.3H66h0.1l0,0c-0.3,0.1-0.6,0.2-0.7,0.2c0.3-0.1,0.7-0.1,1-0.1c-0.6,0.2-1.1,0.3-1.3,0.5
		c0.6-0.2,1.1-0.3,1.7-0.3c0.2,0.1,0.2,0.1,0.3,0.2c-0.8,0.2-1.5,0.4-1.9,0.6l0.3-0.1c-0.2,0.1-0.4,0.2-0.6,0.2
		c-0.2,0.1-0.3,0.1-0.4,0.2c-0.1,0-0.1,0.1-0.2,0.1c0.1,0,0.1,0,0.2-0.1h0.1c0.3,0.1,0.8,0.2,1.5,0.4H66c0.1,0,0.1,0,0.2,0
		c0.8,0.2,1.8,0.5,2.8,0.6c-0.1,0-0.2,0-0.3,0c0.3,0,0.6,0,0.8,0c0.2,0,0.2,0,0.4,0c1,0,1.9,0,2.7-0.1c0.1,0,0.1,0.1,0.1,0.2
		c-1.6,0.2-3,0.2-3.8,0.4h0.5l-1.8,0.1c2,0.2,3.5,0.1,4.9,0.1c-0.5,0.3-0.8,0.6-0.6,0.6c0.2-0.1,0.8-0.2,1.6-0.3h-0.1l0.2-0.1
		c0.3-0.1,0.7-0.2,1-0.2c0.2,0,0.3,0,0.4,0l-0.1,0.2c0.1,0,0.1,0.2,0.2,0.2h0.1c-0.7,0-1.2,0.3-1.6,0.5L74,592
		c-0.6,0.2-1.1,0.3-1.4,0.5c1.4-0.3,2.5-0.7,3.5-1c-0.2,0.1-0.6,0.2-0.7,0.2l0.7-0.2c-0.9,0.2-1.6,0.4-2.2,0.6
		c1.3-0.2,2.5-0.5,3.5-0.7l-0.7,0.9c0,0,0.9-0.3,3.5-1.1c0.8-0.2,1.6-0.5,2.3-0.7c-0.2,0.2-0.3,0.3-0.4,0.4c0.2-0.2,0.5-0.3,0.7-0.5
		c0.2-0.1,0.5-0.2,0.7-0.2l0,0c-0.6,0.3-1,0.7-1.2,0.8c0.2-0.2,0.5-0.3,0.7-0.4c-0.2,0.2-0.4,0.4-0.6,0.6l0.2-0.2
		c-0.3,0.3-0.7,0.6-0.8,0.8c0.8-0.7,1.6-1.1,2.2-1.6c0.1,0,0.1,0,0.2,0c-0.7,0.4-1.2,0.7-1.6,1.1L83,591c-0.6,0.3-0.9,0.7-1.1,0.9
		c1.4-0.9,2.7-1.5,3.8-1.9c-0.1,0.1-0.2,0.2-0.2,0.2c-0.8,0.4-1.6,0.7-2,0.9c0.6-0.2,1-0.3,1.5-0.4c-0.2,0.2-0.5,0.4-0.7,0.5
		c0.4-0.2,0.9-0.5,1.3-0.7c0.5-0.2,0.9-0.4,1.3-0.6c-0.2,0.2-0.3,0.2-0.4,0.4c-1.1,0.6-2,1.1-2.6,1.3l0.4-0.1
		c-0.6,0.2-1.1,0.3-1.5,0.5c1.1-0.2,1.9-0.4,2.7-0.7c0.7-0.2,1.2-0.5,1.8-0.7c-0.1,0.3-0.2,0.7-0.2,0.8c0.1-0.2,0.5-0.7,1-1.2
		c0.7-0.3,1.3-0.6,1.9-0.8l0.2-0.2c0.1-0.1,0.2-0.2,0.3-0.3c-0.1,0.1-0.2,0.2-0.2,0.3l0.3-0.3c-0.5,0.4-0.8,0.8-1.1,1.1
		c1.2-1,2.2-1.8,3-2.5c0,0.2,0,0.2,0.1,0.3c-0.4,0.4-0.7,0.8-1,1.1c0.4-0.3,0.7-0.7,1.1-1l0,0c0.1,0.1,0.2,0,0.5-0.2
		c-0.5,0.6-0.9,1-1.1,1.3l0.3-0.3l-1.1,1.1c0.9-0.7,1.6-1.2,2.1-1.8l1.3-1.2c-0.1,0.2-0.2,0.4-0.2,0.6c0.2-0.3,0.3-0.6,0.6-0.8
		c0.1-0.1,0.2-0.1,0.2-0.2c0.1,0,0.2-0.1,0.2-0.1c-0.1,0.1-0.1,0.2-0.2,0.2c0,0-0.1,0-0.1-0.1l0.1,0.1c-0.1,0.2-0.2,0.3-0.2,0.5
		c-0.4,0.5-0.7,0.9-1,1.2c0.2-0.2,0.5-0.5,0.7-0.7v0.1l0.1-0.1l0,0c-0.2,0.3-0.3,0.7-0.4,0.9c0.4-0.7,0.8-1.1,1.1-1.6h0.1
		c0.1,0,0.1,0,0.2,0c-0.6,0.7-1.1,1.4-1.4,1.8l0.2-0.2c-0.2,0.2-0.3,0.4-0.6,0.6c-0.2-0.1-0.4-0.1-0.7-0.2c0.2,0.1,0.4,0.2,0.6,0.2
		c-0.2,0.2-0.2,0.3-0.4,0.4c0.2-0.1,0.3-0.2,0.5-0.3c0.3,0.1,0.6,0.1,0.8,0.1c0.4,0,0.7-0.2,1-0.2c0.5-0.2,0.8-0.5,1.1-0.8
		c0.2-0.2,0.5-0.5,0.7-0.7c-0.2,0.2-0.2,0.5-0.4,0.7c0.2-0.3,0.5-0.7,0.7-1.1c0.2-0.2,0.2-0.2,0.3-0.3c0-0.1,0.1-0.1,0.1-0.1
		c-0.2,0.2-0.2,0.5-0.3,0.7c0.2-0.3,0.4-0.6,0.6-0.9c0,0.1-0.1,0.2-0.1,0.2l0.2-0.3c-0.2,0.5-0.4,0.9-0.5,1.2
		c0.3-0.6,0.7-1.1,0.9-1.6c0.1-0.1,0.2-0.2,0.2-0.2c-0.3,0.7-0.7,1.3-0.9,1.7l0.2-0.3c-0.2,0.5-0.6,0.9-0.7,1.1
		c0.7-0.7,1.1-1.4,1.5-2c0.8-0.5,3.4-2.3,5.3-5.2c-0.2,0.6-0.3,1.1-0.4,1.4c0.2-0.7,0.5-1.2,0.7-1.8c0.2-0.2,0.2-0.3,0.4-0.5
		c0,0.1,0,0.2,0,0.2c-0.2,0.7-0.3,1.1-0.5,1.6c0,0.1-0.1,0.1-0.1,0.2c0.1-0.1,0.1-0.1,0.1-0.1c0,0.2-0.1,0.3-0.1,0.4l0.2-0.5
		c-0.1,0.4-0.2,0.7-0.3,1c-0.2,0.2-0.2,0.2-0.4,0.3c0.2-0.1,0.2-0.2,0.4-0.2c-0.1,0.2-0.1,0.4-0.2,0.7c0.1-0.2,0.2-0.5,0.2-0.7
		c0.4-0.3,0.7-0.7,1-1c0.3-0.5,0.6-0.9,0.8-1.3c0.2-0.2,0.2-0.5,0.4-0.7l-0.2,0.7c0.3-0.7,0.7-1.4,0.8-2c0,0,0,0,0-0.1
		c0.1-0.1,0.1-0.2,0.1-0.2c0.1,0.2,0.2,0.5,0.2,0.7c-0.1-0.3-0.1-0.6-0.1-0.8c0.2-0.3,0.2-0.6,0.4-0.9c0.1,0.3,0.1,0.6,0.1,0.7v-0.9
		h0.1l0,0v-0.1c0-0.1,0.1-0.2,0.1-0.3c0-0.1,0.1-0.1,0.1-0.2c0.1,0.6,0.2,1,0.2,1.3V577c0.1,0.6,0.1,1,0.2,1.3c0-0.5,0-0.9,0-1.3
		c0,0.1,0.1,0.2,0.1,0.2c0-0.2-0.1-0.4-0.1-0.6c0-0.5,0-1,0-1.4c0.1,0.1,0.1,0.2,0.1,0.2c0,0.1,0,0.1,0,0.2c0-0.1,0-0.1,0.1-0.2
		c0,0.1,0.1,0.1,0.1,0.1c0-0.1-0.1-0.1-0.1-0.2c0-0.1,0-0.1,0.1-0.2c0,0.1,0.1,0.1,0.1,0.2c0-0.1-0.1-0.1-0.1-0.2
		c0.1-0.2,0.1-0.2,0.1-0.4c0.1,0.2,0.2,0.2,0.2,0.3c0,0.2-0.1,0.3-0.1,0.5l0.1-0.3c-0.1,0.5-0.2,0.9-0.3,1.2
		c0.2-0.4,0.3-0.8,0.4-1.1c0.1,0.2,0.2,0.2,0.2,0.3c-0.2,0.3-0.3,0.7-0.4,0.9c0.2-0.2,0.3-0.6,0.5-0.8l0,0l0,0
		c0.2-0.5,0.5-1,0.7-1.5v0.1c0-0.1,0-0.1,0-0.2v-0.1c0,0.5-0.1,1-0.1,1.3c0.1-0.7,0.2-1.3,0.3-1.9c0.1-0.2,0.2-0.5,0.2-0.7
		c-0.1,1.1-0.1,2-0.1,2.5l0.1-0.4c-0.1,0.6-0.1,1.1-0.2,1.4c0.2-0.9,0.3-1.6,0.5-2.4c0.5-1.3,0.9-2.5,1.3-3.4l0.2-0.2
		c-0.5,1.6-0.9,3-1.1,3.8l0.2-0.4c-0.2,0.6-0.3,1.1-0.5,1.5c0.8-1.9,1.3-3.3,1.9-4.5c0.3-0.8,0.7-1.6,1-2.1c0.4,0.8,0.5,0.9,0.4,0.7
		c-0.1-0.2-0.2-0.5-0.2-1.1c0-0.1,0.1-0.1,0.1-0.2c0,0.1,0,0.1,0.1,0.2v-0.2l0,0c0.1,0.6,0.2,1,0.3,1.3c-0.1-0.7-0.2-1.5-0.2-2
		c0.1-0.9,0.2-1.7,0.3-2.6c0,0.1,0,0.1,0.1,0.2c0-0.1,0-0.2,0-0.2c0-0.1,0-0.2,0.1-0.2c0,0.1,0,0.2-0.1,0.2c0-0.2-0.1-0.4-0.1-0.6
		l0.1-0.2c0,0.2,0,0.4,0.1,0.7c0.1,1.3,0.1,2.4,0,3.2c0.2-0.7,0.2-1.4,0.2-2c0,0.1,0.1,0.2,0.1,0.2c0-0.2-0.1-0.4-0.1-0.6
		c0-0.1,0-0.2,0-0.3c0-0.2,0-0.5,0-0.7c0.1,0.2,0.1,0.3,0.1,0.5l0.1-0.4c0.1,0.3,0.3,0.7,0.3,1v0.1c0,0.8-0.1,1.6-0.1,2
		c0-0.2,0-0.4,0-0.6c-0.1,0.8-0.2,1.6-0.7,2.4c0.4-0.5,0.5-0.9,0.6-1.3c0.1-0.3,0.1-0.7,0.2-1c0-0.2,0.1-0.5,0.1-0.8
		c0.1,0.2,0.1,0.4,0.2,0.6c-0.1-0.3-0.1-0.7-0.1-1.1c0-0.1,0-0.2,0-0.3c0.1-1,0.1-1.9,0.2-2.5c0-0.2,0.1-0.3,0.1-0.5
		c0,0.2,0.1,0.3,0.1,0.5c0-0.2,0-0.5,0-0.7c0.1-0.2,0.1-0.4,0.2-0.7c0.2,0.6,0.2,1,0.3,1.3c0.1,0.4,0.1,0.7,0.2,1.1
		c0-0.2,0-0.5,0-0.7c0.2,0.2,0.2-2.2,0.5-4.7c0.1-0.1,0.1-0.2,0.2-0.2c0.1,0.5,0.2,0.8,0.3,1.1c-0.1-0.3-0.1-0.7-0.2-1
		c0.1-0.1,0.1-0.2,0.2-0.2c0,0.1,0,0.2,0,0.3c0,0.2,0,0.4,0,0.6l0.1-0.3c0,0.2,0.1,0.3,0.1,0.5c0-0.3,0-0.6,0-0.8v-0.1
		c0,0.2,0.1,0.2,0.1,0.4c0.1,0.2,0.1,0.4,0.2,0.6l-0.1-0.3c0.1,0.6,0.2,1,0.3,1.3c0-0.2-0.1-0.3-0.1-0.4c0-0.1,0-0.1,0-0.2
		c0,0.2,0.1,0.4,0.1,0.6c0-0.3,0-0.7,0-1l0,0c0,0.2,0.1,0.3,0.1,0.5c0-0.1,0-0.1,0-0.2v0.1c0-0.3,0-0.6,0-0.8c0-0.2,0.1-0.3,0.1-0.4
		c0.1-0.1,0.1-0.2,0.2-0.2c0.1,0.6,0.2,1.1,0.2,1.5v-0.2v0.1c0.1,0.5,0.1,0.8,0.2,1.1c0-0.1,0-0.1,0-0.1v0.1c0-1.1,0-2,0.1-2.9
		c0,0.1,0.1,0.2,0.1,0.2s0,0.2,0,0.2c0-0.1,0-0.1,0-0.2c0,0.1,0.1,0.2,0.1,0.3v-0.2c0.1,0.4,0.2,0.7,0.2,0.9
		c-0.1-0.8-0.1-1.6-0.1-2.2l0.1-0.1c0.1,0.5,0.2,1,0.4,1.3c0,0.2,0.1,0.5,0.1,0.7v-0.5c0.1,0.2,0.2,0.4,0.2,0.6
		c-0.1-0.3-0.2-0.7-0.2-1v-0.8c0-0.1,0-0.1,0-0.1c0.1,0.5,0.3,0.9,0.5,1.2c0,0.2,0.2,0.3,0.2,0.4v-0.3h-0.1c0,0.7,0,1.1,0.1,1.6
		c0-0.4,0-0.9,0-1.3c0,0.1,0.1,0.1,0.1,0.2l-0.1-0.2l0,0c0,0.4,0.3,0.7,0.4,0.9c-0.2-0.6-0.3-1.1-0.4-1.6c0-0.1,0-0.2,0-0.3
		c0.1,0.2,0.1,0.2,0.2,0.3c-0.1-0.3,0.3-1.6,0.7-3.2c0.4,1.1,0.7,2.4,1.1,3.7c1.7,9.1,3.4,20.7-0.8,28.4c0.1,2.4-2.9,5-4.1,7.7
		c-1.2,2.6-0.1,7.3,1,11.7c1.1,4.4,4.3,24.1,4.6,24.8c0.2,0.7,1.3,2.8,2.9,3.6c1.7,0.8,2.7,0.7,3.7,0.2c0.9-0.5,1.5,0.1,2.8-0.1
		c1.2-0.2,1.3-0.2,1.3-0.2l0.3,0.8c0,0,0.6-0.7,0.7-1.1c0.1-0.4,0.5,0,1.7-0.2c1.1-0.2,2.6-2,2.6-2s0.6,0.2,1.1,0.7
		c0.6,0.5,0.2-0.4-0.3-1.6c-0.5-1.2-0.2-1.5-0.2-1.5s-0.4-1.1-1.9-1.9c-1.5-0.8-2.4-1.1-3.6-1.5c-1.2-0.3-1.2-0.2-2.7-3.3
		c-1.5-3.1-3-18.7-3-18.7s0.7,2.8,2,5.5c1.3,2.7,8.9,13.8,9.1,14.6c0.2,0.8,1.3,2,2.5,2.9c1.1,0.9,2.3-0.2,3.3-0.3
		c1-0.1,1.6,0.3,4.4,0.3c2.9,0,3.9-0.5,4.7-0.9c0.7-0.4,1.6,0.2,1.6,0.2l0.1-1c0,0,2-0.2,2.7-0.4c0.7-0.3,1.1-0.9,1.5-1.5
		c0.4-0.6,2.2,0.4,2.2,0.4s0,0,0-0.7c-0.1-0.7-0.9-1.5-0.9-1.5s-0.4-0.9-0.9-1.2c-0.6-0.3-1.9-1.9-4.7-2c-2.8-0.2-9.2,0.2-9.2,0.2
		s-5.7-9.9-6.5-13.9c-0.6-2.9,0.7-9.6,1.2-13.4c0,0,0.2-1.5,0.7-3.4c0,0-0.1,0-0.1-0.1c0,0,0-0.1,0.1-0.1v0.1c0.2-0.9,0.4-2,0.7-2.9
		c0.7-2.9,2.3-6.1,5.8-7.5c3.5-1.6,5.7-4.2,5.7-4.2c3.4-5.4,7-11.5,8-13.8c1.3-2.9,2.7-6.1,3.4-7.6c0.2-0.2,0.4-0.3,0.7-0.6v0.1
		l-0.1,0.6c-0.1,0.1-0.2,0.2-0.2,0.2l0.2-0.2c-0.3,0.3-0.7,0.7-0.8,0.9c0.4-0.3,0.7-0.7,1.1-1l0.1,0.2c0.2,0,0.2,0,0.4,0
		c0,0.1,0,0.2,0,0.2c0-0.1,0.1-0.2,0.1-0.2c0.1,0,0.1,0,0.2,0l-0.1,0.1l0.1-0.1c0.1,0,0.1,0,0.1,0c0,0.1,0,0.2,0,0.2l0,0l0,0
		c0,0.1,0,0.2,0,0.2l0.1-0.2c-0.1,0.2-0.1,0.5-0.1,0.7l-0.1,0.1c0,0,0.1,0,0.1-0.1c0,0.1,0,0.1,0,0.2c0-0.1,0-0.2,0.1-0.2
		c0.3-0.2,0.7-0.3,1-0.5c-0.2,0.3-0.2,0.6-0.3,0.8c0.2-0.3,0.3-0.7,0.6-0.9c0.6-0.2,1.1-0.5,1.6-0.7c-0.4,0.2-0.7,0.5-0.9,0.7
		c0.9-0.5,1.6-0.9,2.4-1.1c0.2-0.1,0.6-0.2,0.8-0.2c-1.3,0.7-2.3,1.3-2.8,1.7l0.3-0.2c-0.5,0.3-0.9,0.6-1.1,0.8
		c1.6-0.9,2.9-1.4,3.9-1.8c-0.2,0.2-0.2,0.2-0.3,0.4c0.2-0.2,0.4-0.3,0.7-0.5h0.1c0.2-0.1,0.4-0.1,0.6-0.2c-0.3,0.3-0.6,0.6-0.8,0.8
		c-0.6,0.1-1.1,0.1-1.4,0.2c0.4,0,0.7,0,1.1,0c-0.1,0.1-0.2,0.2-0.3,0.3c-0.2,0-0.3,0.1-0.5,0.1h0.7l0,0c0,0-1.6,0.1-2,0
		c0.7,0.1,1.2,0.2,1.7,0.2c0,0-0.1,0-0.1,0.1c0,0,0.1,0,0.1-0.1c0.7,0,1.4,0,2-0.1c0.7-0.1,1.3-0.1,1.9-0.2l-0.1,0.1
		c0.1,0,0.1-0.1,0.1-0.1c0.3,0,0.6-0.1,0.8-0.1c-0.2,0.2-0.4,0.3-0.5,0.5l0.4-0.2c-0.6,0.4-1,0.7-1.2,1.1c0.7-0.5,1.4-1,2-1.3
		c1.1-0.1,2-0.2,2.9-0.2c-0.2-0.1-0.2-0.2-0.3-0.1c0.2-0.1,0.4-0.7,0.7-0.7h0.1l0.1,0.3c0.5-0.2,1-0.3,1.4-0.5
		c0.2-0.1,0.3-0.2,0.5-0.3c0.1,0,0.2,0,0.3,0c-0.2,0.1-0.2,0.1-0.3,0.2c0.4-0.1,0.8-0.2,1.1-0.4l0.3,0.1c-1.8,0.7-3.2,1.6-3.9,2
		l0.4-0.2c-0.7,0.3-1.1,0.7-1.5,0.8c2.2-1.1,4.1-1.6,5.5-2c0.1,0,0.1,0,0.2-0.1c-0.9,0.4-1.6,0.8-2.1,1.1l0.5-0.2
		c-0.7,0.3-1.2,0.7-1.6,0.8c1.8-0.7,3.4-1.3,4.7-1.8c-0.2,0.2-0.3,0.3-0.5,0.5c-0.3,0.2-0.3,0.4-0.1,0.5l-0.5,0.2
		c0.2,0,0.4-0.1,0.7-0.1c0.4,0.1,1.2,0.2,2.5,0.3c0.3,0,0.7,0,0.9,0c-0.2,0.2-0.5,0.2-0.7,0.4c0.3-0.2,0.6-0.2,0.9-0.4
		c0.3,0,0.7-0.1,1-0.2c-0.7,0.3-1.1,0.7-1.6,0.9l0.4-0.2c-0.7,0.3-1.1,0.7-1.5,0.8c2.4-1.1,4.2-1.8,5.6-2.2c0.3,0,0.9,0,1.5,0
		c-0.1,0-0.2,0.1-0.3,0.1c0.2,0,0.4-0.1,0.7-0.1c-0.3,0.6-1.3,1.3-0.9,1.2c0.1,0,0.2-0.1,0.5-0.2c-0.3,0.3-0.6,0.6-0.7,0.8
		c0.4-0.3,0.8-0.7,1.1-1c0.2-0.1,0.5-0.2,0.7-0.3c-0.7,0.7-1.2,1.2-1.5,1.6l0.3-0.2c-0.4,0.4-0.7,0.7-1,1.1c0.8-0.7,1.6-1.3,2.3-1.8
		c-0.2,0.2-0.3,0.5-0.3,0.7c0.2-0.3,0.5-0.7,0.7-0.9c0.2-0.2,0.5-0.3,0.7-0.5c-0.5,0.7-0.9,1.2-1.1,1.6l0.2-0.3
		c-0.3,0.4-0.5,0.8-0.6,1.1c0.9-1.3,1.8-2.2,2.7-2.9c0,0.2-0.1,0.5-0.2,0.9c-0.1,0.1-0.1,0.1-0.2,0.2c0.1,0,0.1-0.1,0.2-0.1
		c0,0.1-0.1,0.2-0.1,0.3c-0.2,0.7,1.5-0.4,2.9-1.5c0.2,0,0.3,0,0.5-0.1c-0.7,0.5-1.2,0.9-1.6,1.2l0.4-0.2c-0.6,0.4-1,0.8-1.3,1.1
		c0.7-0.5,1.4-1,2-1.4c-0.4,0.5-0.7,1-0.8,1.3c0.5-0.6,0.9-1.1,1.4-1.6c0.2-0.1,0.4-0.2,0.6-0.3c-0.3,0.4-0.7,0.7-0.9,1.1
		c-0.1,0-0.1,0-0.1,0h0.1c-0.2,0.4-0.5,0.7-0.7,1l0.2-0.3c-0.3,0.5-0.6,0.9-0.7,1.2c0.5-0.6,0.9-1.1,1.3-1.6
		c0.1-0.1,0.2-0.2,0.3-0.2c0.1,0,0.1,0,0.2,0c0,0,0,0.1-0.1,0.1c-0.1,0.2-0.2,0.3-0.2,0.5c-0.1,0.2-0.2,0.2-0.3,0.4l0.3-0.2
		c-0.4,0.4-0.7,0.8-1,1.1c0.5-0.4,0.9-0.8,1.3-1.1c0.3-0.2,0.8-0.6,1.4-0.8c0.4-0.1,0.8-0.2,1.3-0.3c-1.2,1.1-2.4,2-2.9,2.5
		c1.6-1,2.8-2,3.8-2.8l0.3-0.2c-1.6,1.4-2.9,2.5-3.7,3.2l0.5-0.3l-1.6,1.1c2.5-1.5,4.2-2.8,5.6-3.8c0.3-0.2,0.6-0.4,0.8-0.6
		l-0.1,0.1l0.2-0.2l0,0c-0.2,0.4-0.5,0.7-0.7,1c0.4-0.5,0.8-0.9,1.2-1.3c0.1,0,0.1-0.1,0.2-0.1c0,0.2-0.1,0.4-0.1,0.6l0.1-0.2
		c-0.1,0.3-0.1,0.6-0.2,0.7c0.2-0.6,0.3-1,0.5-1.3c0.2-0.1,0.4-0.2,0.6-0.3c-0.1,0.2-0.1,0.3-0.1,0.4l0.1-0.2
		c-0.2,0.4-0.3,0.7-0.4,1.1c0.3-0.5,0.6-1,0.8-1.4c0.2-0.1,0.3-0.2,0.4-0.2l0.2-0.1c0.1-0.1,0.2-0.2,0.2-0.2
		c0.2-0.1,0.3-0.2,0.4-0.2c-0.3,0.7-0.5,1.3-0.7,1.7c0.3-0.7,0.6-1.1,0.8-1.7c0.1,0.1,0.1,0.1,0.2,0.2c-0.2,0.7-0.5,1.2-0.6,1.6
		l0.2-0.3c-0.2,0.5-0.4,1-0.5,1.3c0.5-0.9,0.9-1.6,1.2-2.3l0,0c0.2,0.2,0.3,0.4,0.5,0.6c-0.2,0.2-0.2,0.4-0.3,0.6
		c0.2-0.2,0.2-0.3,0.4-0.5c0.1,0.1,0.1,0.2,0.1,0.2c0,0,0,0.1,0,0.2c-0.1,0.1,0.2,0.2,0.2,0.2c-1,0.4-0.4,0.6-0.6,0.8
		c0.2-0.2,0.3-0.5,0.6-0.7c0.2,2.8-0.1,17.2,1.1,19.9c1.3,2.9,2,20.9,2.2,22.9c0.2,2-0.4,7.4,1.1,12.1c1.6,4.7,3.2,10.6,3.3,11.1
		c0.1,0.5-1.4,4.7-1.1,8.1c0.3,3.4,0.9,0.7,1.5,0.7c0.6,0.1,2,2.7,3.1,3.8c1.1,1.1,2,0.8,4,0.7s2.5-0.6,2.5-0.6l0.2,0.5
		c0,0,1-0.4,1.6-1.1c0.5-0.8,1-0.4,2.4-0.8c1.4-0.4,1.4-1.2,1.4-1.2s0.3,0.1,0.7,0.2c0.3,0.2,0.1-1.7,0.1-1.7s0.2-0.3,0.2-1.1
		c0.1-0.7-0.4-1.9-1-2.9c-0.7-1.1-3.2-2.4-4.3-3.8c-1.1-1.5-1.7-8.8-2.8-10.6c-1.1-1.9-0.8-4.6-0.2-6.4c0.6-1.9,0.3-15.2-0.2-24.9
		c-0.4-7.5,2.1-20.9,3.3-26.3c0.2-0.2,0.2-0.4,0.4-0.7c0.2,0.7,0.4,1.2,0.7,1.8c-0.1,0.1-0.2,0.2-0.2,0.3v0.1
		c-0.1,0.1-0.2,0.2-0.4,0.2c0.1,0.2,0.4,0.4,0.4,0.7c0,0.5,0,1,0,1.6c0.1-0.2,0.2-0.7,0.4-1.1c0.2,0.4,0.4,0.8,0.7,1.2
		c0,0.7-0.1,1.6-0.3,2.5c0.2-0.4,0.5-1.1,0.6-2.1c0.3,0.4,0.6,0.8,0.8,1.1c0.2,0.7,0.3,1.5,0.3,2.2c0,0.4,0.1,1.1,0.2,1.9
		c-0.2,0.6-0.3,1.2-0.6,2c0.2-0.3,0.4-0.7,0.6-1.4c0.4,6.7,1,22.1,0.8,24.5c-0.2,2.9-1,11.4-1,13.2s2.4,3.2,2.4,3.2l3,11.4
		c0,0,1,1.8,2,2.9c1.1,1.1,0.4,4.3,0.8,5.6c0.5,1.3,1.9,2,3.2,2c1.3,0,2.5-0.3,2.9-0.2c0.4,0,2,0.2,4.1,0c2.1-0.2,3-1.1,3-1.1
		s2.9,0.2,4-0.2c1.1-0.4,1.5-1.5,1.5-1.5l1,0.4c0,0,0.4-1.1,0.1-1.6c-0.2-0.6,0-1-0.7-2.2c-0.7-1.2-2-1.6-3.6-1.9
		c-1.6-0.2-6-1.1-6.7-1.5c-0.7-0.3-1.3-0.6-2.5-2.9c-1.1-2.3-2.5-8.9-2.8-10.1c-0.3-1.1-0.2-1.6,1.1-5.6c1.2-4.1,2.3-17.4,2.9-26.5
		c0.6-9.2,2.9-27.7,2.9-27.7s1.9-2.8,3.4-7.3c1.5-4.5,2.1-4.1,2.1-4.1s0.5,1,0.6,2.2c0,1.1,0,0.2,0.8-2.1c-0.1,0.5-0.2,1-0.2,1.3
		c0.1-0.2,0.1-0.4,0.2-0.7c-0.2,1-0.4,1.8-0.6,2.4c0.7-1.6,0.9-2.9,1.1-4.2c0.3-1.1,0.5-2,0.7-2.9c0.1,0.2,0.1,0.4,0.2,0.6
		c0.1,1,0.3-0.2,0.6-2.5c0.1,1.5,0.1,2.7,0.1,3.4c0.2-2.1,0.1-3.8,0.1-5.3l0.1-0.4c0,0.3,0.1,0.7,0.1,1.1c0,0.2,0,0.5,0,0.7
		c0-0.1,0-0.2,0.1-0.3c0.2,1.8,0.2,3.3,0.2,4.1V526c0,0.9-0.1,1.6-0.1,2.2c0.3-1.6,0.3-3.1,0.4-4.3c0-0.3,0-0.6,0-0.8
		c0.2-0.9,0.2-1.6,0.3-2.4c0.2-0.4,0.4-0.8,0.6-1.3c0,0.7,0,1.1,0,1.6c0.1-0.7,0.3-1.4,0.3-2c0-0.1,0.1-0.2,0.2-0.2
		c0.1,0.8,0,1.5,0,2c0-0.1,0-0.2,0-0.2c0,0.2,0,0.2,0,0.4c0,0.6-0.1,1.1-0.1,1.5c0-0.2,0-0.3,0.1-0.4c0,0.3,0,0.6-0.1,0.7
		c0.2-0.9,0.2-1.7,0.2-2.5c0-0.3,0.1-0.7,0.1-1.1c0,0.2,0,0.5,0,0.7c0-0.2,0.1-0.5,0.1-0.7c0,0.1,0.1,0.1,0.1,0.1c0,0.2,0,0.5,0,0.7
		c0.1,1.1,0,2,0,2.5c0-0.2,0.1-0.5,0.1-0.7c-0.1,1.1-0.2,1.9-0.4,2.5c0.6-1.7,0.7-3.2,0.7-4.6c0.3,0.3,0.2,0.2,0-0.2v-0.1
		c0-0.2,0-0.2,0-0.4c0.3-1.4,0.6-2.7,0.7-3.8c0-0.3,0.1-0.7,0.1-1c0.1-0.4,0.2-1.2,0.2-2c0-0.2-0.5-0.2-0.5-0.4
		c0.1,0.1-0.3,0.2-0.3,0.3l0,0h0.6c0.1,0.1,0.4,0.2,0.4,0.2c0,0.1,0.1,0.2,0.1,0.2l0.1-0.2c0,0,0,0,0.1,0c-0.2,0.7-0.2,1.3-0.4,1.8
		c0.2-0.6,0.4-1.1,0.5-1.6c0,0,0,0.1,0.1,0.1c0,0,0-0.1-0.1-0.1c0-0.2,0.1-0.3,0.1-0.5c0,0.1,0.1,0.1,0.1,0.2
		c-0.1,0.5-0.1,0.9-0.2,1.2c0.1-0.4,0.2-0.9,0.3-1.3c0,0,0,0.1,0.1,0.1l-0.1-0.1l0,0c0.2,0.4,0.5,0.7,0.7,0.9
		c-0.2-0.4-0.4-0.7-0.7-1.1c0-0.1,0-0.2,0.1-0.3c0.1,0.2,0.3,0.2,0.4,0.3v-0.2c-0.1-0.2-0.2-0.4-0.2-0.7c0.1-0.6,0.1-1.1,0.2-1.6
		c0.1-0.6,0.1-1.1,0.1-1.6c0.1-0.6,0.2-1.1,0.2-1.6c0.1,0.2,0.1,0.2,0.2,0.3l-0.1-0.5c0.2,0.7,0.4,1.3,0.6,1.7
		c-0.2-0.8-0.3-1.6-0.5-2.3c0-0.2,0.1-0.3,0.1-0.5c0,0.1,0.1,0.2,0.1,0.3c0-0.2-0.1-0.2-0.1-0.4c0-0.1,0-0.1,0-0.1
		c0.1,0.3,0.2,0.7,0.2,0.9l-0.1-0.5c0.2,0.7,0.3,1.4,0.5,1.8c-0.2-1-0.3-1.9-0.4-2.7c0.1,0.2,0.2,0.4,0.2,0.6l-0.2-0.6
		c0.2,0.8,0.5,1.5,0.7,1.9c-0.3-1.1-0.6-2-0.7-2.9c0.1-0.3,0.2-0.7,0.2-0.9c0.1,0.2,0.2,0.5,0.2,0.7l-0.1-0.6c0.2,0.8,0.3,1.6,0.5,2
		c-0.2-1.1-0.3-2-0.4-2.9v-0.1l-0.7-0.2c-0.2-1.1-1.1-2.4-1.1-3.5l0,0c2.4-0.6,1.1-1.1,1.2-1.5l0.4-0.1c-0.1,1,0.2,1.9,0.2,2.6
		c0,0.1,0.1,0.2,0,0.3c0-0.1,0.1-0.2,0.2-0.2c0,0.5,0.1,0.9,0.2,1.2c0-0.6,0-1.1,0-1.6c0.1-0.3,0.2-0.7,0.3-1c0,0.5,0,1,0.1,1.3
		c0,0,0.2,0,0.3,0c0-0.1,0-0.2,0-0.2c0.2-0.3,0.4-0.7,0.6-1c0,0.1,0,0.2,0,0.2c0-0.1,0-0.2,0-0.3v-0.1c0,0.1,0.1,0.2,0.1,0.2
		c-0.1,0.3-0.1,0.6-0.2,0.8c0.1-0.2,0.2-0.5,0.2-0.7c0,0.1,0.1,0.2,0.2,0.3c0,0.2,0,0.2,0,0.4c0-0.1,0-0.2,0.1-0.3
		c0.1,0.3,0.2,0.6,0.3,0.7c0.2,0.6-0.2-0.2,0.2-3v-0.1c-0.1,1.9-0.1,3.4-0.1,4.3c0.2-2,0.2-3.8,0.4-5.3l0.1-0.3c0,0.2,0,0.3,0,0.5
		c0,2.1,0,3.8,0,4.8l0.1-0.6c-0.1,0.9-0.1,1.6-0.1,2.1c0.2-1.6,0.4-2.9,0.5-4.2c0-0.4,0.1-0.7,0.1-1.1c0,0.7,0.1,1.3,0.1,1.8v-0.5
		c0,0.7,0,1.4,0,1.9c0.1-1.6,0.2-2.9,0.3-4c0.1,0.5,0.2,0.8,0.3,1.1c-0.1-0.7-0.2-1.1-0.3-1.7c0.1-0.7,0.1-1.2,0.2-1.8
		c0-0.2,0.1-0.3,0.1-0.5c-0.1,0.7-0.1,1.3-0.1,1.7l0.1-0.5c-0.1,0.7-0.1,1.2-0.1,1.6c0.2-1.2,0.3-2.3,0.6-3.3
		c0.2,0.3,0.3,0.7,0.5,0.8c-0.2-0.4-0.3-0.7-0.4-1.1c0-0.2,0.1-0.3,0.1-0.5c0.2,0.6,0.5,1,0.7,1.3l-0.2-0.3c0.2,0.5,0.5,1,0.7,1.2
		c-0.5-1.1-0.8-2-1.1-2.9c0.1-0.3,0.2-0.6,0.2-0.8c0.1,0.1,0.1,0.1,0.2,0.2c0,0.1,0,0.2,0.1,0.3v-0.3l0,0c0.1,0.7,0.2,1.2,0.2,1.6
		c0-0.5-0.1-1-0.1-1.5c0.1,0.1,0.2,0.2,0.2,0.2c0.1,0.1,0.2,0.2,0.2,0.2c0,0.2,0,0.3-0.1,0.4c0-0.1,0-0.2,0.1-0.2c0,0.1,0,0.2,0,0.3
		c0-0.2,0.1-0.4,0.1-0.7h0.2h0.2l0,0c0-3.1,1.3-5.6,2-7.7c0.2-0.6,0.2-1,0.4-1.5c0,0.2,0,0.3,0,0.5c0-0.2,0-0.4,0-0.7
		c0-0.1,0.1-0.2,0.1-0.2c0,0.8,0,1.6,0,2c0.1-0.9,0.1-1.8,0.2-2.6v-0.1c0,0.5,0.1,1,0.1,1.3v-0.5c0,0.7,0.1,1.4,0.2,1.8
		c0-0.2,0-0.3,0-0.5c0,0.2,0,0.2,0,0.3v-0.6c0,0.8,0,1.5,0,2c0.1-1.2,0.2-2.4,0.3-3.4v0.1c0-0.1,0-0.1,0-0.2s0-0.2,0-0.3
		c0.1-0.2,0.2-0.4,0.2-0.8c0.1,0.5,0.2,0.9,0.2,1.1v-0.4c0.1,0.6,0.1,1.1,0.2,1.4c0-1.6,0-2.9,0-4c0-0.2,0.1-0.3,0.1-0.5
		c0.1-0.2,0.2-0.3,0.2-0.5c-0.1,0.5-0.1,1-0.1,1.3l0.1-0.6c-0.2,0.9-0.2,1.6-0.2,2.1c0.2-0.7,0.3-1.4,0.4-2c0.1,0.4,0.2,0.8,0.3,1.1
		c-0.1-0.6-0.2-1.1-0.2-1.5c0-0.2,0.1-0.3,0.1-0.6c0.1,0.1,0.1,0.2,0.2,0.3c0.1,0.7,0.2,1.2,0.4,1.6l-0.1-0.4
		c0.1,0.6,0.2,1.1,0.4,1.4c-0.2-1.1-0.3-2-0.3-2.8c0.1,0.1,0.1,0.2,0.2,0.3l-0.1-0.3c0.2,0.5,0.4,0.9,0.6,1.2
		c-0.2-0.7-0.3-1.2-0.5-1.7c0.2,0.4,0.5,0.8,0.5,1.1c0,0.3,0.1,0.2,0.2-0.3c0.2,0.3,0.2,0.7,0.4,0.9c-0.1-0.4-0.2-0.8-0.3-1.2
		c0.1-0.6,0.2-1.5,0.4-2.6c0-0.1,0-0.2,0-0.2c0,0.2,0,0.3,0,0.4c0-1.2,0.1-2.4,0.1-3.4c0.1-0.2,0.1-0.5,0.2-0.7
		c0.1,1.1,0.2,2,0.2,2.5v-0.5c0,0.7,0.1,1.3,0.2,1.7c0-0.7,0-1.4,0-2l0.1,1.5c0-1.6,0-3-0.1-4.3c0-0.5,0-1,0-1.4
		c0.1,0.1,0.1,0.2,0.2,0.2l0.4,4.9v-1l0.1,3.4c0.1-2.4,0.1-4.5,0-6.5c0.1,0.2,0.1,0.2,0.1,0.3c-0.1,0.6,0.2-0.3,0.2-2
		c0.1-0.4,0.2-0.8,0.2-1.3l0.7,3.8c0-0.6-0.1-1.1-0.1-1.6c0.2-0.5,0.3-1,0.4-1.4c0.2,0.9,0.3,1.6,0.4,2.1c-0.1-1-0.2-1.8-0.3-2.7
		c0.1-0.4,0.1-0.7,0.1-1.1c0.2,1.4,0.5,2.5,0.7,3.3l-0.1-0.8c0.2,1.1,0.2,2.1,0.3,2.8c-0.1-3.1-0.5-5.6-0.8-7.7
		c0.2,0.1,0.4,0.2,0.6,0.3c0.7,0.3,0.2,0.1-0.7-1.5l-0.2-1c0.1,0.2,0.2,0.2,0.3,0.4l-0.2-0.2c0.2,0.4,0.5,0.7,0.7,0.9
		c-0.4-0.7-0.7-1.2-1-1.8c0-0.6,0-1.1,0-1.5v-0.1c0.1,0.1,0.1,0.2,0.2,0.2c0.1,0.2,0.2,0.4,0.2,0.6c0.2,0.8,0.4,1.5,0.5,2
		c-0.2-0.7-0.2-1.5-0.4-2.2c0,0.1,0.1,0.1,0.2,0.2c-0.1-0.1-0.1-0.2-0.2-0.2c-0.1-0.2-0.1-0.6-0.2-0.8c0.1,0.2,0.2,0.2,0.3,0.4
		c0.1,0.2,0.2,0.5,0.3,0.7c0.2,0.6,0.2,1.1,0.4,1.4l-0.2-0.8c0.2,1.1,0.5,2.1,0.7,2.8c-0.1-0.8-0.2-1.6-0.4-2.3v0.1
		c0-0.1,0-0.1,0-0.2c-0.1-0.3-0.1-0.7-0.2-1.1c0.2,0.2,0.2,0.3,0.3,0.4c-0.2-0.2-0.2-0.5-0.4-0.7c-0.1-0.6-0.2-1.1-0.3-1.7
		c0.2,0.3,0.4,0.6,0.6,0.7c-0.2-0.4-0.4-0.8-0.7-1.1c0-0.2-0.1-0.5-0.1-0.7c0.4,0.7,0.8,1.2,1.1,1.6l-0.2-0.3
		c0.3,0.5,0.6,0.9,0.8,1.1c-1-1.8-1.6-3.1-2-4.2V453c0-0.1,0-0.1,0-0.1c0-0.2,0-0.5,0-0.7c0.1,0.1-0.4,0.1-0.3,0.2l-0.7-0.2l0,0
		c0,0.2,0.7,0.2,0.8,0.3c0.2,0.8,0.7,1.5,0.7,2c-0.1-0.7-0.1-1.2-0.2-1.8c0.1,0.1,0.2,0.1,0.2,0.2c-0.1-0.1-0.1-0.2-0.2-0.2
		c-0.1-0.4-0.2-0.9-0.2-1.3c0.2,0.2,0.2,0.2,0.4,0.3c0.1,0.9,0.2,1.6,0.2,2.1c0-0.6,0-1.1,0-1.6c0.2,0.7,0.3,1.3,0.5,1.7l-0.2-0.7
		c0.1,0.2,0.1,0.5,0.2,0.7c0,0.6-0.1,1.1-0.1,1.5c0.1-0.4,0.2-0.8,0.2-1.2c0.2,0.6,0.2,1.1,0.3,1.5c-0.1-0.7-0.2-1.3-0.3-1.9
		c0.2-1.6-0.7-3.1-0.9-4.4c-0.2-1.4-1.5-2.6-1.5-3.8l0,0c2.4,0.8,1.7,1.6,1.7,2.3c0.3,1.1,0.9,2,1.1,2.5c-0.7-2.5-1.1-4.7-1.6-6.6
		c0-0.8,0-1.8,0-2.6c0.1-0.1,0.2-0.2,0.2-0.3c0.1,0.2,0.2,0.2,0.3,0.4c-0.1-0.2-0.2-0.3-0.2-0.5c0.1-0.2,0.2-0.3,0.2-0.5
		c0.1,0.2,0.2,0.3,0.3,0.4c0,0.2,0.1,0.3,0.1,0.5c-0.1,0.4-0.3,0.8-0.5,1.2c0.2-0.2,0.4-0.5,0.6-0.9c0.1,0.9,0.2,1.6,0.2,2.1
		c0-0.9,0-1.7-0.1-2.5c0,0,0,0,0-0.1c0.2,0.2,0.2,0.4,0.4,0.6c0.1,0.7,0.2,1.1,0.2,1.6c0-0.2,0-0.5,0-0.7c0.1,1.1,0,2,0,2.6
		c0.3-2,0.2-3.6,0-5.1c0-0.2-0.1-0.4-0.1-0.7c0,0.1,0.1,0.1,0.1,0.2c0.2,0.8,0.3,1.5,0.4,2c0-0.5-0.1-1-0.1-1.4
		c0.1,0.3,0.2,0.7,0.2,0.9c0.2,0.7,0.2,1.4,0.2,1.9c0.1-0.8,0-1.6-0.1-2.3l0.2,0.7c0-0.3-0.1-0.7-0.1-1c0,0,0,0.1,0.1,0.1
		c0-0.1,0-0.1-0.1-0.2c0-0.2-0.1-0.5-0.1-0.7c0.2,0.7,0.2,1.1,0.3,1.6c0-0.2,0-0.4-0.1-0.7c0.2,1,0.2,1.7,0.2,2.3
		c0.1-0.6,0.1-1.1,0-1.6c0.1,0.5,0.2,1,0.2,1.4c0,0.7-0.1,1.4-0.2,1.9c0.3-1,0.4-1.9,0.4-2.7s-0.2-1.6-0.2-2.2
		c-0.2-0.9-0.5-1.7-0.7-2.5c0.1,0.2,0.2,0.3,0.2,0.5c-0.2-0.3-0.2-0.7-0.4-1c-0.2-0.5-0.2-0.9-0.4-1.4c0-0.1,0-0.2-0.1-0.3
		c0.5,1,0.9,1.7,1.2,2.2l-0.2-0.6c0.4,0.8,0.7,1.5,0.9,2c-0.5-1.4-1.1-2.6-1.5-3.7c0.2,0.2,0.3,0.3,0.4,0.5c0.8,0.8-1.6-5.6-2.3-9.2
		c-0.7-3.5,1-7.3,1.8-9.7c0.7-2.5,2.6-4.2,3.1-8.3C292,404.2,290,399.2,290,399.2z M54.9,578.8c-0.2,0-0.5-0.1-0.7-0.1
		c0.4-0.1,0.8-0.2,1.4-0.3c0.1,0,0.2,0,0.2,0.1c-0.3,0.1-0.7,0.2-1.1,0.2c0.2,0,0.7-0.1,1.1-0.2C55.6,578.6,55.2,578.8,54.9,578.8z
		 M56.8,584c0.2-0.2,0.3-0.2,0.4-0.4c0.2,0.1,0.4,0.2,0.6,0.3c0.2,0.2,0.4,0.3,0.7,0.5C57.8,584.2,57.3,584.1,56.8,584z M57.7,577.9
		c-0.5,0.2-1.1,0.3-1.6,0.5c-0.1,0-0.2,0-0.2-0.1c0.8-0.2,1.8-0.5,2.9-0.9c0.2,0,0.4-0.1,0.7-0.2C58.7,577.5,58.3,577.8,57.7,577.9z
		 M71.8,569.3c-0.2,0.2-0.5,0.2-0.8,0.4c0.4-0.3,0.8-0.7,1.3-1.2L71.8,569.3z M85.1,550.3C85.1,550.4,85.1,550.4,85.1,550.3
		c-0.4,0.6-0.7,1.1-1.1,1.7c0.4-0.8,0.7-1.6,1.1-2.4l0.7-0.9c-0.2,0.5-0.4,0.9-0.6,1.4c-0.2,0.2-0.4,0.6-0.7,0.8
		C84.7,550.8,84.8,550.6,85.1,550.3z M86.6,547.6c0.1-0.1,0.1-0.2,0.2-0.2c-0.2,0.5-0.4,1-0.6,1.4c-0.2,0.2-0.3,0.4-0.4,0.7
		C86,548.7,86.2,548.2,86.6,547.6l0.2-0.4C86.7,547.3,86.6,547.5,86.6,547.6z M95.2,588.5c0.2-0.1,0.3-0.2,0.5-0.2
		c-0.3,0.2-0.7,0.3-1.1,0.4c-0.2,0-0.4,0-0.7,0c0.5-0.4,0.9-0.8,1.2-1.1l0.6-0.6c0.3-0.2,0.7-0.4,1-0.7c0,0.2,0,0.2,0,0.4
		c-0.6,0.7-1.1,1.2-1.9,1.4c0.6-0.1,0.9-0.3,1.1-0.5c0.2-0.2,0.5-0.4,0.7-0.7l0,0c0,0.2,0,0.2,0,0.2c0,0,0-0.1,0.1-0.3
		c0.3-0.3,0.6-0.6,0.8-0.9c-0.1,0.2-0.2,0.3-0.2,0.4l0.4-0.7l0.1-0.1l-0.1,0.1c0.1-0.1,0.1-0.1,0.1-0.1l0.1-0.1
		C97,586.9,96.2,588,95.2,588.5z M106.3,580c-0.3,0.7-0.6,1.2-0.8,1.6c-0.2,0.2-0.3,0.5-0.6,0.7c0.2-0.5,0.4-1,0.6-1.5
		c0.3-0.4,0.5-0.9,0.7-1.3c0.2-0.6,0.5-1.1,0.7-1.6c-0.1,0.3-0.2,0.7-0.2,0.9c0.2-0.5,0.3-0.9,0.5-1.3l0,0
		C106.9,578.5,106.6,579.2,106.3,580z M110.3,575c-0.1,0.2-0.2,0.5-0.3,0.7c-0.1-0.2-0.2-0.3-0.2-0.4c0.1-0.3,0.2-0.7,0.3-0.9
		c0.1-0.2,0.2-0.4,0.2-0.6c-0.1,0.5-0.2,0.8-0.2,1.1c0.2-0.4,0.2-0.7,0.4-1.1c0.1,0.1,0.1,0.1,0.2,0.2c-0.2,0.7-0.3,1.1-0.5,1.6
		L110.3,575z M105.3,515.2c-0.2,0.2-0.5,0.5-0.7,0.7c0.3-0.7,0.7-1.2,1.1-1.7l0.3-0.2C105.7,514.4,105.5,514.8,105.3,515.2z
		 M111.6,573.8c0.1-0.5,0.2-1,0.3-1.5c0.1-0.3,0.2-0.6,0.2-0.8c0.1-0.1,0.2-0.2,0.2-0.2C112,572.3,111.8,573.2,111.6,573.8z
		 M168.7,551.8c-0.2,0.2-0.3,0.2-0.5,0.3l0.3-0.2c-0.4,0.2-0.7,0.5-1,0.7c0.1-0.3,0.2-0.6,0.3-0.8c0.1,0,0.2,0,0.3,0
		c0,0,0,0.1-0.1,0.1c0-0.1,0.1-0.1,0.1-0.1c0.1,0,0.2,0,0.2,0c-0.1-0.1-0.2-0.1-0.2-0.1c0.1-0.1,0.1-0.2,0.2-0.2
		c0.2-0.1,0.4-0.2,0.6-0.3C169,551.4,168.8,551.6,168.7,551.8z M175.3,550.6c0.2,0.1,0.2,0.1,0.4,0.2c-0.1,0.1-0.2,0.1-0.2,0.2
		c0.1-0.1,0.2-0.1,0.2-0.2c0.2,0.1,0.3,0.1,0.5,0.2c-0.1,0.1-0.2,0.1-0.2,0.2c-0.2,0-0.6-0.1-0.9-0.2
		C175.3,550.9,175.3,550.8,175.3,550.6z M174.3,551c0.2,0.1,0.5,0.2,0.7,0.2c0,0.1,0,0.1,0,0.1c-0.5,0.1-1.1,0.2-1.5,0.2
		C173.8,551.3,174,551.2,174.3,551z M172.6,552.2c0.2-0.2,0.4-0.2,0.6-0.4c0.7,0,1.2-0.1,1.7-0.2c0,0.1,0,0.2,0,0.2
		C174,552,173.3,552.1,172.6,552.2z M194.2,551.3c0.6-0.2,1.1-0.3,1.6-0.4c0.2,0,0.2,0.1,0.2,0.2
		C195.5,551.2,194.8,551.3,194.2,551.3z M203.2,459.9c-0.2,0.1-0.4,0.2-0.7,0.3c0.3-0.6,0.6-1.1,0.9-1.6c0.2-0.2,0.3-0.2,0.5-0.4
		C203.6,458.9,203.3,459.5,203.2,459.9z M204.5,458.8c-0.2,0.2-0.2,0.3-0.4,0.5c-0.2,0.1-0.3,0.2-0.5,0.3c0.3-0.5,0.6-0.9,0.8-1.3
		l0.3-0.2C204.6,458.4,204.6,458.6,204.5,458.8z M204.2,457.7c-0.2,0.2-0.4,0.3-0.6,0.5c0.4-0.7,0.8-1.3,1.2-1.8l0.3-0.2
		C204.8,456.8,204.5,457.3,204.2,457.7z M206.5,453.8c-0.3,0.2-0.5,0.3-0.7,0.3c0.4-0.5,0.8-1,1.2-1.5
		C206.8,453.1,206.7,453.5,206.5,453.8z M219.4,435.2c-0.3,0.1-0.7,0.2-1,0.4c0.4-0.3,0.9-0.7,1.3-0.9c0.2-0.1,0.5-0.2,0.7-0.2
		C220.2,434.8,219.8,435,219.4,435.2z M265,517.5c-0.1,0.5-0.2,1.1-0.5,1.6l0.2-2.5c0,0.1,0.1,0.2,0.2,0.2
		C265,516.9,265,517.2,265,517.5z M266.7,515.8l-0.2,1.9c0-1.1-0.1-2-0.1-2.8c0.1-0.7,0.2-1.4,0.2-2c0.1,0.1,0.1,0.2,0.2,0.2
		c0,1.4-0.1,2.6-0.1,3.4L266.7,515.8z M270.8,496c-0.1,0.5-0.2,0.9-0.3,1.2c0-0.9,0.1-1.7,0.2-2.5c0.1-0.1,0.2-0.2,0.2-0.2
		C270.8,495,270.8,495.5,270.8,496z M276.3,487.9c0,0.5,0,0.9-0.1,1.2c-0.1-0.3-0.2-0.7-0.3-1.1c0.1-0.4,0.2-0.7,0.2-1.1
		c0,0.7,0,1.1,0,1.6L276.3,487.9z M276,487.9c0-0.2-0.1-0.2-0.1-0.3c0-0.2,0-0.3,0-0.5c0.1-0.2,0.2-0.5,0.3-0.7
		C276.1,487,276.1,487.5,276,487.9z M276.6,487.5c0.1-0.7,0.2-1.5,0.2-2.1c0.1-0.2,0.2-0.3,0.2-0.6
		C276.9,485.9,276.6,486.8,276.6,487.5z M285.6,462.6c0.1,0.6,0.2,1.1,0.3,1.7c0,0.2,0,0.5,0,0.7c-0.1-0.3-0.2-0.7-0.3-1.1
		C285.7,463.4,285.6,463,285.6,462.6z M287,448.7c0.2,0.6,0.2,1.1,0.3,1.6c0.2,1.1,0.3,2,0.4,2.8C287.4,451.3,287.2,449.9,287,448.7
		C286.9,448.7,286.9,448.7,287,448.7z M287.8,439.9c0,0.1,0,0.2,0,0.3c0,0.2-0.1,0.5-0.1,0.7c-0.1-0.5-0.1-1-0.2-1.5
		C287.6,439.6,287.7,439.7,287.8,439.9C287.8,439.8,287.8,439.9,287.8,439.9z"/>
	<path id="XMLID_98_" class="st2" d="M217.7,436.2L217.7,436.2C217.8,436.2,217.8,436.2,217.7,436.2
		C217.8,436.2,217.8,436.2,217.7,436.2z"/>
	<path id="XMLID_97_" class="st2" d="M104.5,513.4c0.7-0.3,1.5-0.9,2.5-1.4c-0.2,0.2-0.3,0.2-0.5,0.4
		C105.8,512.6,105.2,513,104.5,513.4z"/>
	<path id="XMLID_96_" class="st2" d="M165.9,551.4c0.2-0.6,0.4-0.9,0.4-0.9l0,0l0.1,0.2C166.2,551,166,551.3,165.9,551.4z"/>
	<path id="XMLID_95_" class="st2" d="M166.6,550.6C166.6,550.7,166.6,550.7,166.6,550.6L166.6,550.6L166.6,550.6v-0.2V550.6z"/>
	<path id="XMLID_94_" class="st2" d="M168.7,550.6c0.2-0.2,0.3-0.2,0.5-0.3c-0.1,0.1-0.2,0.2-0.2,0.3c-0.2,0.2-0.4,0.3-0.6,0.5
		C168.5,550.9,168.6,550.8,168.7,550.6z"/>
	<path id="XMLID_93_" class="st2" d="M168.3,551.1l0.3-0.2C168.5,551,168.4,551.1,168.3,551.1S168.3,551.1,168.3,551.1z"/>
	<path id="XMLID_92_" class="st2" d="M168.1,551.7C168.1,551.7,168.1,551.7,168.1,551.7c0.1-0.1,0.2-0.2,0.3-0.3c0,0,0,0.1-0.1,0.1
		C168.3,551.5,168.2,551.6,168.1,551.7z"/>
	<path id="XMLID_91_" class="st2" d="M168.3,551.6C168.3,551.7,168.2,551.7,168.3,551.6l-0.2,0.1
		C168.2,551.7,168.3,551.6,168.3,551.6z"/>
	<path id="XMLID_90_" class="st2" d="M168.1,551.3L168.1,551.3L168.1,551.3C168.2,551.3,168.2,551.3,168.1,551.3
		c0,0-0.1,0.1-0.2,0.2c0-0.1,0.1-0.1,0.1-0.2C168.1,551.3,168.1,551.3,168.1,551.3z"/>
	<path id="XMLID_89_" class="st2" d="M167.1,551.4c0.2-0.2,0.2-0.2,0.3-0.4l0,0c-0.1,0.2-0.1,0.3-0.1,0.5
		C167.2,551.5,167.2,551.5,167.1,551.4z"/>
	<path id="XMLID_88_" class="st2" d="M167.4,551.5c0.1-0.2,0.2-0.5,0.2-0.7c0.1-0.1,0.2-0.1,0.3-0.2v0.1c0,0-0.1,0-0.1,0.1
		c0,0,0,0,0.1,0c-0.1,0.3-0.2,0.6-0.2,0.8C167.6,551.6,167.5,551.5,167.4,551.5z"/>
	<path id="XMLID_87_" class="st2" d="M169.3,550.9c-0.2,0.2-0.5,0.3-0.7,0.5l0.1-0.1C168.9,551.1,169.1,550.9,169.3,550.9
		L169.3,550.9z"/>
	<path id="XMLID_86_" class="st2" d="M169.4,551.3c0.2-0.2,0.4-0.4,0.6-0.6c0.2-0.2,0.6-0.2,0.8-0.3c0.1,0,0.2,0,0.2,0
		C170.4,550.7,169.9,551,169.4,551.3z"/>
	<path id="XMLID_85_" class="st2" d="M175.3,551.3c-0.1,0-0.1,0-0.2,0v-0.1C175.2,551.3,175.3,551.3,175.3,551.3z"/>
	<path id="XMLID_84_" class="st2" d="M175.1,550.9L175.1,550.9L175.1,550.9L175.1,550.9z"/>
	<path id="XMLID_83_" class="st2" d="M174.7,550.8c0.1-0.1,0.2-0.2,0.2-0.2c0.1,0,0.1,0,0.1,0l0,0c0,0.2,0,0.2-0.1,0.4
		c-0.2,0-0.2-0.1-0.4-0.1C174.7,550.9,174.7,550.8,174.7,550.8z"/>
	<path id="XMLID_82_" class="st2" d="M174.6,550.8C174.6,550.8,174.6,550.9,174.6,550.8C174.6,550.9,174.6,550.9,174.6,550.8
		C174.6,550.9,174.6,550.8,174.6,550.8z"/>
	<path id="XMLID_81_" class="st2" d="M172.9,551.7L172.9,551.7L172.9,551.7L172.9,551.7z"/>
	<path id="XMLID_80_" class="st2" d="M172.8,551.8C172.9,551.8,172.9,551.8,172.8,551.8C172.9,551.8,172.8,551.8,172.8,551.8
		L172.8,551.8z"/>
	<path id="XMLID_79_" class="st2" d="M175,551.8c0-0.1,0-0.2,0.1-0.2c0.2,0,0.3-0.1,0.5-0.1c-0.1,0.1-0.2,0.2-0.3,0.2
		C175.1,551.8,175,551.8,175,551.8z"/>
	<path id="XMLID_78_" class="st2" d="M175.3,551.8c0.2-0.1,0.3-0.2,0.5-0.2c0.2,0,0.2,0,0.4-0.1l0.3,0.1
		C176.1,551.6,175.7,551.7,175.3,551.8z"/>
	<path id="XMLID_77_" class="st2" d="M184,550.2c-0.2,0-0.5,0-0.7,0.1l0,0c0.3-0.1,0.7-0.2,1.1-0.2c0,0,0,0,0.1,0
		C184.3,550,184.1,550.1,184,550.2z"/>
	<path id="XMLID_76_" class="st2" d="M202.7,550.7c-0.1,0.1-0.2,0.1-0.2,0.2c-0.2,0.1-0.4,0.1-0.7,0.2l0,0l0.1-0.1
		C202.2,550.8,202.4,550.8,202.7,550.7L202.7,550.7z"/>
	<path id="XMLID_75_" class="st2" d="M202.7,552.2L202.7,552.2c0-0.1,0-0.1,0.1-0.2C202.8,552.1,202.7,552.1,202.7,552.2z"/>
	<path id="XMLID_74_" class="st2" d="M197.1,463.8c-0.1,0-0.2,0-0.2,0.1c0.2-0.2,0.4-0.2,0.7-0.4h0.1
		C197.4,463.6,197.3,463.7,197.1,463.8z"/>
	<path id="XMLID_73_" class="st2" d="M198.9,462.2c-0.1,0-0.2,0-0.2-0.1c0.2,0,0.3-0.1,0.6-0.1C199.2,462.1,199.1,462.2,198.9,462.2
		z"/>
	<path id="XMLID_72_" class="st2" d="M199.4,463.5L199.4,463.5L199.4,463.5L199.4,463.5z"/>
	<path id="XMLID_71_" class="st2" d="M202.9,462.7c-0.1,0.1-0.2,0.2-0.3,0.3C202.7,463,202.8,462.8,202.9,462.7L202.9,462.7
		C202.9,462.7,202.9,462.7,202.9,462.7z"/>
	<path id="XMLID_70_" class="st2" d="M203.1,460.2L203.1,460.2L203.1,460.2L203.1,460.2L203.1,460.2z"/>
	<path id="XMLID_69_" class="st2" d="M203.7,460c-0.1,0.1-0.2,0.1-0.3,0.2l0,0C203.4,460,203.6,460,203.7,460L203.7,460z"/>
	<path id="XMLID_68_" class="st2" d="M204.4,459.7c-0.1,0-0.2,0.1-0.2,0.1c0,0,0,0,0-0.1s0.1-0.1,0.1-0.2l0.2-0.2
		C204.5,459.5,204.4,459.6,204.4,459.7z"/>
	<path id="XMLID_67_" class="st2" d="M204.6,458c0.2-0.2,0.3-0.5,0.6-0.7l0,0C205,457.5,204.8,457.8,204.6,458z"/>
	<path id="XMLID_66_" class="st2" d="M213.9,550.6c-0.1,0-0.1,0-0.2,0.1L213.9,550.6L213.9,550.6z"/>
	<path id="XMLID_65_" class="st2" d="M206.7,453.7L206.7,453.7L206.7,453.7L206.7,453.7z"/>
	<path id="XMLID_64_" class="st2" d="M205.9,453.8c0.4-0.6,0.7-1.1,1.1-1.6c0.1,0,0.1,0,0.2-0.1
		C206.8,452.8,206.4,453.3,205.9,453.8z"/>
	<path id="XMLID_63_" class="st2" d="M207.3,452c-0.1,0.1-0.2,0.1-0.2,0.2C207.2,452.2,207.2,452.1,207.3,452L207.3,452
		c-0.2,0.1-0.2,0.2-0.3,0.2c0.1-0.1,0.2-0.2,0.2-0.3c0.1-0.1,0.2-0.2,0.3-0.2C207.5,451.8,207.4,451.9,207.3,452z"/>
	<path id="XMLID_62_" class="st2" d="M208.4,451.5C208.4,451.5,208.5,451.4,208.4,451.5C208.5,451.4,208.5,451.4,208.4,451.5
		C208.5,451.4,208.4,451.4,208.4,451.5z"/>
	<path id="XMLID_61_" class="st2" d="M208.1,451c-0.2,0.1-0.3,0.2-0.4,0.2c0.2-0.3,0.5-0.7,0.7-1.1h0.2
		C208.4,450.5,208.2,450.8,208.1,451z"/>
	<path id="XMLID_60_" class="st2" d="M208.9,449.8l-0.3,0.2l0.1-0.1L208.9,449.8C209,449.7,208.9,449.7,208.9,449.8z"/>
	<path id="XMLID_59_" class="st2" d="M212.8,444.3L212.8,444.3L212.8,444.3C212.9,444.2,212.8,444.3,212.8,444.3z"/>
	<path id="XMLID_58_" class="st2" d="M214.2,443.1c-0.1,0.1-0.2,0.2-0.2,0.2c-0.1,0.1-0.2,0.2-0.4,0.3l0.8-0.9
		C214.4,442.9,214.3,443,214.2,443.1z"/>
	<path id="XMLID_57_" class="st2" d="M216,440.3c-0.2,0.1-0.3,0.2-0.5,0.3c0.1-0.1,0.2-0.2,0.3-0.3l0.4-0.2
		C216.2,440.2,216.1,440.2,216,440.3z"/>
	<path id="XMLID_56_" class="st2" d="M221,434.1l0.3-0.1c-0.4,0.2-0.7,0.3-1.1,0.5C220.4,434.3,220.8,434.2,221,434.1z"/>
	<path id="XMLID_55_" class="st2" d="M221.3,434.9c-0.2,0-0.2,0-0.4,0.1c0.2-0.1,0.4-0.2,0.7-0.2
		C221.5,434.8,221.4,434.8,221.3,434.9z"/>
	<path id="XMLID_54_" class="st2" d="M221.8,434.8c0.2-0.2,0.5-0.4,0.7-0.6h0.1c-0.2,0.2-0.4,0.3-0.6,0.6
		C222,434.8,221.9,434.8,221.8,434.8z"/>
	<path id="XMLID_53_" class="st2" d="M232.7,548.1C232.6,548.1,232.6,548.1,232.7,548.1C232.6,548.2,232.6,548.2,232.7,548.1
		c0,0.2-0.1,0.3-0.2,0.4c0.1-0.2,0.1-0.5,0.2-0.7c0,0.1,0,0.2,0.1,0.2C232.7,548,232.7,548,232.7,548.1z"/>
	<path id="XMLID_52_" class="st2" d="M222.9,434.7c-0.1,0-0.2,0.1-0.3,0.1c0.2-0.2,0.5-0.4,0.7-0.6c0.1,0,0.1,0.1,0.2,0.1
		C223.2,434.4,223,434.5,222.9,434.7z"/>
	<path id="XMLID_51_" class="st2" d="M234.7,553.2V553c0.2,0.2,0.3,0.6,0.5,0.8c0.1,0.2,0.1,0.5,0.2,0.7
		C235.1,554,234.8,553.6,234.7,553.2z"/>
	<path id="XMLID_50_" class="st2" d="M265.9,517.5c0-0.1-0.1-0.1-0.1-0.2c0.1-0.1,0.1-0.1,0.1-0.2
		C265.8,517.3,265.8,517.4,265.9,517.5z"/>
	<path id="XMLID_49_" class="st2" d="M266.2,513.2c0-0.1,0-0.2,0-0.3c0,0.2,0,0.3,0,0.5C266.3,513.4,266.3,513.3,266.2,513.2z"/>
	<path id="XMLID_48_" class="st2" d="M267.9,509L267.9,509c0,0.2,0,0.2,0,0.4v-0.1C267.9,509.3,267.9,509.1,267.9,509z"/>
	<path id="XMLID_47_" class="st2" d="M267.6,508.8C267.7,508.8,267.7,508.8,267.6,508.8c0,0.1,0,0.2,0,0.2c0-0.1,0-0.1,0-0.1
		C267.6,508.9,267.6,508.9,267.6,508.8z"/>
	<path id="XMLID_46_" class="st2" d="M267.6,509.8C267.6,509.9,267.6,509.9,267.6,509.8c0,0.2,0,0.2,0,0.4
		C267.6,510,267.6,509.9,267.6,509.8z"/>
	<path id="XMLID_45_" class="st2" d="M267.6,510.4c0-0.2,0.1-0.3,0.1-0.4c0,0.1,0.1,0.1,0.1,0.2c0,0.2,0,0.4,0,0.6
		C267.7,510.7,267.7,510.5,267.6,510.4z"/>
	<path id="XMLID_44_" class="st2" d="M268,511c-0.1-0.1-0.1-0.2-0.2-0.2c0-0.2,0.1-0.3,0.1-0.5c0,0.1,0.1,0.1,0.2,0.2
		C268,510.7,268,510.8,268,511z"/>
	<path id="XMLID_43_" class="st2" d="M268,511.1L268,511.1l0.1-0.4C268,510.8,268,510.9,268,511.1z"/>
	<path id="XMLID_42_" class="st2" d="M268.1,509.9c0-0.1-0.1-0.2-0.1-0.2c0-0.2,0-0.3,0.1-0.4c0,0.1,0.1,0.1,0.1,0.2
		C268.1,509.6,268.1,509.8,268.1,509.9z"/>
	<path id="XMLID_41_" class="st2" d="M268.3,511c0-0.1-0.1-0.2-0.1-0.2l0,0c0,0.1,0.1,0.1,0.1,0.1
		C268.3,510.9,268.3,510.9,268.3,511z"/>
	<path id="XMLID_40_" class="st2" d="M268.4,510.8L268.4,510.8L268.4,510.8L268.4,510.8L268.4,510.8
		C268.3,510.8,268.3,510.8,268.4,510.8L268.4,510.8z"/>
	<path id="XMLID_39_" class="st2" d="M268.3,510.4C268.3,510.4,268.3,510.4,268.3,510.4C268.3,510.4,268.3,510.4,268.3,510.4
		C268.3,510.4,268.3,510.4,268.3,510.4z"/>
	<path id="XMLID_38_" class="st2" d="M268.4,510.5C268.4,510.5,268.4,510.4,268.4,510.5v-0.3C268.4,510.3,268.4,510.4,268.4,510.5z"
		/>
	<path id="XMLID_37_" class="st2" d="M268.4,506.5c0,0.1,0,0.2,0,0.2c0-0.2,0-0.5-0.1-0.7l0.1-0.2
		C268.4,506,268.4,506.3,268.4,506.5z"/>
	<path id="XMLID_36_" class="st2" d="M270.8,493.8C270.8,493.8,270.8,493.9,270.8,493.8c0,0.1,0,0.1,0,0.2
		C270.8,493.9,270.8,493.9,270.8,493.8z"/>
	<path id="XMLID_35_" class="st2" d="M271.3,495.3c0,0.1,0.1,0.2,0.1,0.2c-0.1,0.2-0.2,0.6-0.2,0.8
		C271.2,496,271.3,495.6,271.3,495.3z"/>
	<path id="XMLID_34_" class="st2" d="M271.7,496.3c-0.1,0.2-0.2,0.5-0.3,0.7C271.5,496.7,271.6,496.4,271.7,496.3
		C271.6,496.3,271.6,496.4,271.7,496.3c-0.1,0-0.1-0.1-0.1-0.2l0,0C271.6,496.1,271.6,496.1,271.7,496.3
		C271.7,496.2,271.7,496.2,271.7,496.3z"/>
	<path id="XMLID_33_" class="st2" d="M275.6,484.4l0.1-0.2C275.6,484.3,275.6,484.4,275.6,484.4
		C275.6,484.5,275.6,484.5,275.6,484.4C275.6,484.5,275.6,484.5,275.6,484.4z"/>
	<path id="XMLID_32_" class="st2" d="M275.9,488.3L275.9,488.3L275.9,488.3L275.9,488.3z"/>
	<path id="XMLID_31_" class="st2" d="M276.3,489.4L276.3,489.4c0-0.1-0.2-0.3-0.3-0.7c0-0.1,0-0.2-0.1-0.2l0,0
		c0.1,0.3,0.2,0.7,0.3,0.8C276.3,489.2,276.3,489.3,276.3,489.4z"/>
	<path id="XMLID_30_" class="st2" d="M276.5,488.3c0-0.1,0-0.2,0-0.2l0.2-0.5C276.6,487.8,276.5,488,276.5,488.3z"/>
	<path id="XMLID_29_" class="st2" d="M277.4,483.7c-0.1,0.2-0.1,0.3-0.2,0.5v-0.1c0,0.1,0,0.1,0,0.2l-0.4,1.1c0.1-0.3,0.1-0.7,0.2-1
		c0.1-0.3,0.2-0.7,0.3-1.1C277.3,483.4,277.4,483.5,277.4,483.7C277.4,483.6,277.4,483.7,277.4,483.7z"/>
	<path id="XMLID_28_" class="st2" d="M281.6,475.2L281.6,475.2c0,0,0,0.1,0.1,0.2C281.7,475.3,281.6,475.3,281.6,475.2z"/>
	<path id="XMLID_27_" class="st2" d="M285,464.9c0-0.2,0-0.5-0.1-0.7c0-0.1,0-0.2,0-0.2c0.1,0.2,0.1,0.2,0.2,0.3
		C285.1,464.5,285,464.7,285,464.9z"/>
	<path id="XMLID_26_" class="st2" d="M285.1,464.1c-0.1-0.2-0.2-0.5-0.2-0.7v-0.1c0.1-0.1,0.1-0.2,0.2-0.3l0.1,0.7
		C285.1,463.8,285.1,464,285.1,464.1z"/>
	<path id="XMLID_25_" class="st2" d="M285.8,466.5c-0.1-0.7-0.1-1.3-0.2-1.9c0-0.2,0-0.2,0.1-0.4c0.1,0.2,0.2,0.6,0.3,0.7
		c0,0.2,0,0.2,0,0.4c0-0.1,0-0.2,0.1-0.3l0,0C286,465.7,285.9,466.2,285.8,466.5z"/>
	<path id="XMLID_24_" class="st2" d="M286,465.1L286,465.1c0-0.1,0-0.1,0-0.2C286,465,286,465,286,465.1z"/>
	<path id="XMLID_23_" class="st2" d="M285.8,456.4L285.8,456.4c0-0.1,0-0.2,0-0.2l0,0c0.1,0.3,0.2,0.6,0.2,0.8
		C286,456.8,285.9,456.6,285.8,456.4z"/>
	<path id="XMLID_22_" class="st2" d="M287.8,452.5c0,0.3,0,0.6,0,0.8c0-0.1,0-0.1,0-0.2C287.8,452.9,287.8,452.7,287.8,452.5z"/>
	<path id="XMLID_21_" class="st2" d="M286.5,452c0-0.2,0-0.3,0.1-0.5c0.1,0.3,0.2,0.6,0.2,0.9C286.7,452.3,286.5,452.1,286.5,452z"
		/>
	<path id="XMLID_20_" class="st2" d="M286.7,450.1c0.2,0.6,0.2,1.1,0.4,1.6v0.1c-0.2-0.2-0.2-0.3-0.4-0.5c0-0.1,0-0.2-0.1-0.2l0,0
		v-0.1c-0.1-0.3-0.2-0.7-0.2-0.9c0-0.2,0-0.4,0-0.6C286.5,449.6,286.6,449.8,286.7,450.1z"/>
	<path id="XMLID_19_" class="st2" d="M287.4,440.6c-0.1-0.1-0.1-0.2-0.2-0.2c0-0.1,0.1-0.2,0.1-0.2
		C287.4,440.2,287.4,440.3,287.4,440.6z"/>
	<path id="XMLID_18_" class="st2" d="M286.7,439.3c0-0.2,0.1-0.2,0.1-0.4c0,0.2,0,0.4,0,0.6C286.8,439.4,286.7,439.4,286.7,439.3
		L286.7,439.3z"/>
	<path id="XMLID_17_" class="st2" d="M286.7,440L286.7,440L286.7,440L286.7,440z"/>
	<path id="XMLID_16_" class="st2" d="M286.8,441.3c0-0.1,0-0.2,0-0.2c0-0.1,0-0.1,0-0.2c0,0.1,0.1,0.1,0.1,0.1
		C286.9,441.1,286.9,441.2,286.8,441.3z"/>
	<path id="XMLID_15_" class="st2" d="M286.9,441c0-0.1-0.1-0.1-0.1-0.2c0-0.2,0.1-0.3,0.1-0.6c0.1,0.1,0.1,0.1,0.2,0.2
		C287,440.6,287,440.7,286.9,441z"/>
	<path id="XMLID_14_" class="st2" d="M287,439.8c0-0.3,0.1-0.6,0.1-0.9l0,0c0.1,0.2,0.1,0.5,0.2,0.7c0,0.2-0.1,0.3-0.1,0.5
		C287.1,440,287,439.9,287,439.8z"/>
	<path id="XMLID_13_" class="st2" d="M287.2,440.5c0.1,0.2,0.2,0.2,0.3,0.4c0,0,0,0,0,0.1L287.2,440.5z"/>
	<path id="XMLID_12_" class="st2" d="M287.4,438.7c0-0.1,0-0.1,0-0.2C287.4,438.5,287.4,438.5,287.4,438.7
		C287.4,438.6,287.4,438.7,287.4,438.7z"/>
	<path id="XMLID_11_" class="st2" d="M288.7,439.9v0.2C288.7,440,288.7,440,288.7,439.9L288.7,439.9z"/>
	<path id="XMLID_10_" class="st2" d="M287.9,440.6c0.1,0.4,0.2,0.7,0.2,1.1c-0.1-0.2-0.2-0.4-0.3-0.6
		C287.8,441,287.9,440.8,287.9,440.6z"/>
	<path id="XMLID_8_" class="st2" d="M287.8,439.7c-0.1-0.2-0.2-0.3-0.2-0.4c0-0.2,0.1-0.2,0.1-0.4
		C287.7,439.1,287.7,439.4,287.8,439.7z"/>
	<path id="XMLID_7_" class="st2" d="M287.5,448.1L287.5,448.1C287.5,448,287.5,448,287.5,448.1L287.5,448.1z"/>
	<path id="XMLID_6_" class="st2" d="M271.8,497.9L271.8,497.9h-0.5c0,0-0.1,0-0.2,0v0.1C271.3,498,271.5,498,271.8,497.9z"/>
	<path id="XMLID_5_" class="st2" d="M232.9,550.9c0,0.1,0,0.2-0.1,0.2l0.1-0.1C232.9,551,232.9,551,232.9,550.9L232.9,550.9z"/>
	<path id="XMLID_4_" class="st2" d="M181.9,551.2c0.3-0.2,0.7-0.3,1.1-0.5c-0.2,0.1-0.3,0.1-0.5,0.2
		C182.2,550.9,182.1,551.1,181.9,551.2z"/>
	<path id="XMLID_135_" class="st2" d="M270.9,498.4C270.9,498.3,270.9,498.3,270.9,498.4C271,498.3,271,498.3,270.9,498.4
		C271,498.4,271,498.4,270.9,498.4L270.9,498.4c0.1,0.2,0.1,0.3,0.1,0.4L270.9,498.4C271,498.4,271,498.4,270.9,498.4
		c0.1,0.8,0.2,1.5,0.2,1.9c0-0.8,0-1.6,0-2.3C270.5,498.2,270.7,498.2,270.9,498.4z M271,498.2c0,0.1,0,0.1,0,0.2l0,0V498.2z"/>
	<path id="XMLID_1_" class="st2" d="M269,510.3L269,510.3l-0.1,0.3c0.1,0.2,0.2,0.4,0.2,0.6C269.1,510.8,269.1,510.5,269,510.3z"/>
</g>
</svg>
